<svg width="9" height="10" viewBox="0 0 9 10" fill="none" xmlns="http://www.w3.org/2000/svg">
<path d="M5.52776 3.80922C5.7175 3.63234 5.73015 3.32912 5.55306 3.13961C5.37597 2.9501 5.07238 2.93746 4.88264 3.11434C4.86999 3.12697 4.86999 3.12697 4.85734 3.13961L2.50457 5.48958C1.948 6.04548 1.948 6.94251 2.50457 7.49842C3.06114 8.05433 3.95924 8.05433 4.51581 7.49842L6.19817 5.81807L8.37386 3.64498C9.20871 2.81112 9.20871 1.45925 8.37386 0.625395C7.539 -0.208465 6.18552 -0.208465 5.35067 0.625395L3.18763 2.81112L0.834856 5.14845C-0.278285 6.26027 -0.278285 8.05433 0.834856 9.16614C1.948 10.278 3.7442 10.278 4.85734 9.16614L7.88053 6.14656C8.07027 5.96968 8.08292 5.66646 7.90583 5.47694C7.72874 5.28743 7.42516 5.2748 7.23542 5.45167C7.22277 5.46431 7.22277 5.46431 7.21012 5.47694L4.18693 8.49653C3.42797 9.22931 2.22628 9.20404 1.50527 8.44599C0.796908 7.7132 0.796908 6.55085 1.50527 5.81807L3.85805 3.4681L6.03373 1.29501C6.50176 0.827543 7.24807 0.827543 7.71609 1.29501C8.18412 1.76248 8.18412 2.5079 7.71609 2.97536L5.52776 5.14845L3.85805 6.82881C3.66831 7.00569 3.36472 6.99305 3.18763 6.80354C3.02319 6.62666 3.02319 6.33607 3.18763 6.15919L5.52776 3.80922Z" fill="#7C7C7C"/>
</svg>
