<svg width="15" height="17" viewBox="0 0 15 17" fill="none" xmlns="http://www.w3.org/2000/svg">
<g id="Group 11723">
<path id="Vector" d="M4.62105 7.63086H2.70166V9.55024H4.62105V7.63086Z" fill="#7C7C7C"/>
<path id="Vector_2" d="M8.45967 7.63086H6.54028V9.55024H8.45967V7.63086Z" fill="#7C7C7C"/>
<path id="Vector_3" d="M12.2985 7.63086H10.3792V9.55024H12.2985V7.63086Z" fill="#7C7C7C"/>
<path id="Vector_4" d="M4.62105 11.4697H2.70166V13.3891H4.62105V11.4697Z" fill="#7C7C7C"/>
<path id="Vector_5" d="M8.45967 11.4697H6.54028V13.3891H8.45967V11.4697Z" fill="#7C7C7C"/>
<path id="Vector_6" d="M12.2985 11.4697H10.3792V13.3891H12.2985V11.4697Z" fill="#7C7C7C"/>
<path id="Vector_7" d="M5.52086 2.14146H3.37939V0.473376C3.37939 0.211938 3.59133 0 3.85277 0H5.04748C5.30892 0 5.52086 0.211938 5.52086 0.473376V2.14146Z" fill="#7C7C7C"/>
<path id="Vector_8" d="M11.7311 2.14146H9.5896V0.473376C9.5896 0.211938 9.80154 0 10.063 0H11.2577C11.5191 0 11.7311 0.211938 11.7311 0.473376V2.14146Z" fill="#7C7C7C"/>
<path id="Vector_9" d="M13.9848 1.08803H12.0407V2.51099H9.19478V1.08803H5.83044V2.51099H2.98453V1.08803C2.14077 1.18844 -0.0317172 0.652785 0.00987329 2.10327C-0.0207771 4.27106 0.031776 13.1574 0.00969431 15.4913C0.00976143 16.052 0.464293 16.5066 1.02497 16.5066H13.9848C14.5455 16.5066 15 16.052 15 15.4913V5.37096V2.10324C15 1.54256 14.5455 1.08803 13.9848 1.08803ZM13.9244 15.4706H1.07561V5.40573H13.9244V15.4706Z" fill="#7C7C7C"/>
</g>
</svg>
