<svg width="14" height="14" viewBox="0 0 14 14" fill="none" xmlns="http://www.w3.org/2000/svg">
<path id="Vector" fill-rule="evenodd" clip-rule="evenodd" d="M0.574311 8.01858H5.73533C5.88752 8.01825 6.03339 7.95766 6.14102 7.85006C6.24864 7.74246 6.30927 7.59661 6.30964 7.44442V0.574156C6.30927 0.421967 6.24864 0.276119 6.14102 0.16852C6.03339 0.0609204 5.88752 0.000328608 5.73533 0H0.574311C0.422122 0.000328608 0.276258 0.0609204 0.16863 0.16852C0.0610011 0.276119 0.000369835 0.421967 0 0.574156V7.44442C0.000369835 7.59661 0.0610011 7.74246 0.16863 7.85006C0.276258 7.95766 0.422122 8.01825 0.574311 8.01858ZM13.4257 0H8.26467C8.11248 0.000328608 7.96661 0.0609204 7.85899 0.16852C7.75136 0.276119 7.69073 0.421967 7.69036 0.574156V4.0264C7.69073 4.17859 7.75136 4.32444 7.85899 4.43204C7.96661 4.53964 8.11248 4.60023 8.26467 4.60056H13.4257C13.5779 4.60023 13.7237 4.53964 13.8314 4.43204C13.939 4.32444 13.9996 4.17859 14 4.0264V0.574156C13.9996 0.421967 13.939 0.276119 13.8314 0.16852C13.7237 0.0609204 13.5779 0.000328608 13.4257 0ZM13.4257 5.98142H8.26467C8.11245 5.98175 7.96656 6.04236 7.85893 6.15C7.7513 6.25763 7.69068 6.40352 7.69036 6.55573V13.4258C7.69073 13.578 7.75136 13.7239 7.85899 13.8315C7.96661 13.9391 8.11248 13.9997 8.26467 14H13.4257C13.5779 13.9997 13.7237 13.9391 13.8314 13.8315C13.939 13.7239 13.9996 13.578 14 13.4258V6.55573C13.9997 6.40352 13.9391 6.25763 13.8314 6.15C13.7238 6.04236 13.5779 5.98175 13.4257 5.98142ZM0.574311 14H5.73533C5.88752 13.9997 6.03339 13.9391 6.14102 13.8315C6.24864 13.7239 6.30927 13.578 6.30964 13.4258V9.9736C6.30927 9.82141 6.24864 9.67556 6.14102 9.56796C6.03339 9.46037 5.88752 9.39977 5.73533 9.39944H0.574311C0.422122 9.39977 0.276258 9.46037 0.16863 9.56796C0.0610011 9.67556 0.000369835 9.82141 0 9.9736V13.4258C0.000369835 13.578 0.0610011 13.7239 0.16863 13.8315C0.276258 13.9391 0.422122 13.9997 0.574311 14Z" fill="#7C7C7C"/>
</svg>
