<svg width="17" height="19" viewBox="0 0 17 19" fill="none" xmlns="http://www.w3.org/2000/svg">
<path d="M2.30618 17.0203C2.36336 17.6493 2.87799 18.1067 3.50698 18.1067H13.3802C14.0092 18.1067 14.5238 17.6302 14.581 17.0203L15.6865 5.43164H1.20068L2.30618 17.0203ZM10.8643 9.0531C10.8643 8.72907 11.1311 8.44317 11.4742 8.44317C11.7982 8.44317 12.0841 8.71001 12.0841 9.0531V14.4853C12.0841 14.8093 11.8173 15.0952 11.4742 15.0952C11.1502 15.0952 10.8643 14.8284 10.8643 14.4853V9.0531ZM7.83367 9.0531C7.83367 8.72907 8.10052 8.44317 8.4436 8.44317C8.76763 8.44317 9.05353 8.71001 9.05353 9.0531V14.4853C9.05353 14.8093 8.78669 15.0952 8.4436 15.0952C8.11958 15.0952 7.83367 14.8284 7.83367 14.4853V9.0531ZM4.82214 9.0531C4.82214 8.72907 5.08899 8.44317 5.43207 8.44317C5.7561 8.44317 6.042 8.71001 6.042 9.0531V14.4853C6.042 14.8093 5.77516 15.0952 5.43207 15.0952C5.10805 15.0952 4.82214 14.8284 4.82214 14.4853V9.0531Z" fill="#171C8F"/>
<path d="M15.6866 1.81073H10.8644V1.2008C10.8644 0.533689 10.3307 0 9.66358 0H7.24292C6.57581 0 6.04212 0.533689 6.04212 1.2008V1.81073H1.2008C0.533689 1.81073 0 2.34442 0 3.01153C0 3.67864 0.533689 4.21233 1.2008 4.21233H15.6866C16.3537 4.21233 16.8874 3.67864 16.8874 3.01153C16.8874 2.34442 16.3537 1.81073 15.6866 1.81073Z" fill="#171C8F"/>
</svg>
