<svg width="10" height="14" viewBox="0 0 10 14" fill="none" xmlns="http://www.w3.org/2000/svg">
<path d="M5.54644 8.64875V1.53483C5.54644 1.24065 5.30579 1 5.01161 1C4.71742 1 4.47677 1.24065 4.47677 1.53483V8.66212L1.8826 6.34878C1.65529 6.14824 1.32098 6.17492 1.13379 6.38889C0.946588 6.60287 0.959927 6.95052 1.1739 7.1377L4.65063 10.2266L5.0117 10.5476L5.37276 10.2266L8.84949 7.1377C9.0768 6.93716 9.09014 6.60287 8.8896 6.38889C8.68906 6.16158 8.35477 6.14825 8.14079 6.34878L5.54644 8.64875ZM8.48828 11.965C8.78247 11.965 9.02312 12.2057 9.02312 12.4998C9.02312 12.794 8.78247 13.0347 8.48828 13.0347L1.53483 13.0348C1.24065 13.0348 1 12.7941 1 12.4999C1 12.2058 1.24065 11.9651 1.53483 11.9651L8.48828 11.965Z" fill="#01458E" stroke="#171C8F" stroke-width="0.5"/>
</svg>
