<svg width="17" height="17" viewBox="0 0 17 17" fill="none" xmlns="http://www.w3.org/2000/svg">
<path d="M11.096 6.5768V4.42578L6.10828 6.70132C6.04852 6.72607 5.98704 6.74646 5.92434 6.76233V7.54162C5.92194 7.63979 5.88127 7.73314 5.81099 7.80172C5.74071 7.87031 5.6464 7.9087 5.5482 7.9087C5.45001 7.9087 5.3557 7.87031 5.28542 7.80172C5.21514 7.73314 5.17446 7.63979 5.17207 7.54162V6.76244C5.10927 6.74653 5.04769 6.72611 4.98783 6.70132L6.10352e-05 4.42578V10.0827C0.000282443 10.345 0.104591 10.5966 0.290087 10.782C0.475583 10.9675 0.727106 11.0719 0.989437 11.0721H6.57286C6.6313 9.89399 7.12741 8.78014 7.96404 7.94866C8.80067 7.11718 9.91756 6.62796 11.096 6.5768Z" fill="#7C7C7C"/>
<path d="M5.79582 6.01665L11.096 3.59859V3.00569C11.0958 2.74335 10.9915 2.49183 10.806 2.30633C10.6205 2.12084 10.3689 2.01653 10.1066 2.01631H8.16715C8.16483 2.00516 8.1645 1.99415 8.16143 1.98309C8.00206 1.4102 7.65863 0.905657 7.18411 0.547283C6.70959 0.188908 6.13034 -0.00339069 5.53571 4.52562e-05C4.94107 0.0034812 4.36408 0.202461 3.89374 0.566296C3.42339 0.93013 3.08581 1.43861 2.93307 2.0133L2.9326 2.01631H0.989376C0.727045 2.01653 0.475522 2.12084 0.290026 2.30633C0.10453 2.49183 0.000221408 2.74335 0 3.00569V3.59867L5.30021 6.01665C5.378 6.05216 5.46251 6.07054 5.54802 6.07054C5.63353 6.07054 5.71804 6.05216 5.79582 6.01665ZM5.5514 0.975596C5.88821 0.97656 6.21747 1.07546 6.49906 1.26026C6.78065 1.44505 7.00242 1.70776 7.13733 2.01636H3.96408C4.0988 1.70733 4.32071 1.44428 4.60264 1.25942C4.88457 1.07457 5.21428 0.975936 5.5514 0.975596Z" fill="#7C7C7C"/>
<path d="M16.5812 15.5294L14.6443 13.5594C15.1977 12.7393 15.4287 11.7436 15.293 10.7636C15.1573 9.78353 14.6645 8.88811 13.9091 8.24916C13.1536 7.61021 12.1889 7.27273 11.1999 7.3015C10.2109 7.33027 9.26739 7.72326 8.5504 8.40504C7.83341 9.08683 7.39345 10.0094 7.31497 10.9957C7.23648 11.9819 7.52499 12.9625 8.12513 13.7491C8.72526 14.5357 9.59475 15.0729 10.5667 15.2578C11.5387 15.4426 12.5447 15.2619 13.3917 14.7505L15.3603 16.7503C15.5225 16.9107 15.7416 17.0004 15.9698 16.9998C16.1979 16.9991 16.4165 16.9082 16.5778 16.7469C16.7391 16.5856 16.83 16.367 16.8306 16.1389C16.8313 15.9107 16.7416 15.6916 16.5812 15.5294ZM11.3183 13.3931C10.9094 13.3931 10.5097 13.2719 10.1696 13.0447C9.82962 12.8175 9.5646 12.4946 9.40811 12.1168C9.25161 11.739 9.21066 11.3233 9.29043 10.9222C9.3702 10.5211 9.56712 10.1527 9.85628 9.86357C10.1454 9.57441 10.5138 9.37749 10.9149 9.29771C11.316 9.21793 11.7317 9.25888 12.1095 9.41537C12.4873 9.57186 12.8102 9.83687 13.0374 10.1769C13.2646 10.5169 13.3859 10.9167 13.3859 11.3256C13.3858 11.8739 13.168 12.3998 12.7803 12.7875C12.3926 13.1753 11.8667 13.3931 11.3183 13.3931Z" fill="#7C7C7C"/>
</svg>
