<svg width="17" height="17" viewBox="0 0 17 17" fill="none" xmlns="http://www.w3.org/2000/svg">
<g id="Group">
<path id="Vector" d="M11.096 6.5768V4.42578L6.10834 6.70132C6.04858 6.72607 5.9871 6.74646 5.9244 6.76233V7.54162C5.92201 7.63979 5.88133 7.73314 5.81105 7.80172C5.74077 7.87031 5.64647 7.9087 5.54827 7.9087C5.45007 7.9087 5.35576 7.87031 5.28548 7.80172C5.2152 7.73314 5.17453 7.63979 5.17213 7.54162V6.76244C5.10933 6.74653 5.04775 6.72611 4.98789 6.70132L0.00012207 4.42578V10.0827C0.000343478 10.345 0.104652 10.5966 0.290148 10.782C0.475644 10.9675 0.727167 11.0719 0.989498 11.0721H6.57293C6.63136 9.89399 7.12747 8.78014 7.9641 7.94866C8.80073 7.11718 9.91762 6.62796 11.096 6.5768Z" fill="#171C8F"/>
<path id="Vector_2" d="M5.79582 6.01665L11.096 3.59859V3.00569C11.0958 2.74335 10.9915 2.49183 10.806 2.30633C10.6205 2.12084 10.3689 2.01653 10.1066 2.01631H8.16715C8.16483 2.00516 8.1645 1.99415 8.16143 1.98309C8.00206 1.4102 7.65863 0.905657 7.18411 0.547283C6.70959 0.188908 6.13034 -0.00339069 5.53571 4.52562e-05C4.94107 0.0034812 4.36408 0.202461 3.89374 0.566296C3.42339 0.93013 3.08581 1.43861 2.93307 2.0133L2.9326 2.01631H0.989376C0.727045 2.01653 0.475522 2.12084 0.290026 2.30633C0.10453 2.49183 0.000221408 2.74335 0 3.00569V3.59867L5.30021 6.01665C5.378 6.05216 5.46251 6.07054 5.54802 6.07054C5.63353 6.07054 5.71804 6.05216 5.79582 6.01665ZM5.5514 0.975596C5.88821 0.97656 6.21747 1.07546 6.49906 1.26026C6.78065 1.44505 7.00242 1.70776 7.13733 2.01636H3.96408C4.0988 1.70733 4.32071 1.44428 4.60264 1.25942C4.88457 1.07457 5.21428 0.975936 5.5514 0.975596Z" fill="#171C8F"/>
<path id="Vector_3" d="M16.5813 15.5297L14.6443 13.5597C15.1977 12.7395 15.4287 11.7439 15.2931 10.7638C15.1574 9.78378 14.6645 8.88836 13.9091 8.2494C13.1537 7.61045 12.1889 7.27298 11.2 7.30175C10.211 7.33052 9.26745 7.7235 8.55046 8.40529C7.83347 9.08707 7.39351 10.0096 7.31503 10.9959C7.23654 11.9822 7.52505 12.9627 8.12519 13.7493C8.72533 14.5359 9.59482 15.0732 10.5668 15.258C11.5388 15.4428 12.5448 15.2622 13.3917 14.7507L15.3604 16.7505C15.5226 16.9109 15.7417 17.0006 15.9698 17C16.1979 16.9994 16.4165 16.9085 16.5778 16.7471C16.7392 16.5858 16.8301 16.3672 16.8307 16.1391C16.8313 15.911 16.7417 15.6919 16.5813 15.5297ZM11.3184 13.3934C10.9095 13.3934 10.5097 13.2721 10.1697 13.0449C9.82968 12.8178 9.56466 12.4949 9.40817 12.1171C9.25167 11.7393 9.21072 11.3235 9.29049 10.9225C9.37027 10.5214 9.56718 10.153 9.85634 9.86381C10.1455 9.57465 10.5139 9.37773 10.915 9.29795C11.316 9.21817 11.7318 9.25912 12.1096 9.41561C12.4874 9.57211 12.8103 9.83712 13.0375 10.1771C13.2647 10.5171 13.3859 10.9169 13.3859 11.3258C13.3859 11.8742 13.1681 12.4 12.7803 12.7878C12.3926 13.1755 11.8667 13.3934 11.3184 13.3934Z" fill="#171C8F"/>
</g>
</svg>
