<svg width="13" height="13" viewBox="0 0 13 13" fill="none" xmlns="http://www.w3.org/2000/svg">
<path d="M10.8333 13H2.16667C1.59203 13 1.04093 12.7717 0.634602 12.3654C0.228273 11.9591 0 11.408 0 10.8333V2.16667C0 1.59203 0.228273 1.04093 0.634602 0.634602C1.04093 0.228273 1.59203 0 2.16667 0H5.05556C5.2471 0 5.4308 0.076091 5.56624 0.211534C5.70169 0.346977 5.77778 0.530677 5.77778 0.722222C5.77778 0.913767 5.70169 1.09747 5.56624 1.23291C5.4308 1.36835 5.2471 1.44444 5.05556 1.44444H2.16667C1.97512 1.44444 1.79142 1.52054 1.65598 1.65598C1.52054 1.79142 1.44444 1.97512 1.44444 2.16667V10.8333C1.44444 11.0249 1.52054 11.2086 1.65598 11.344C1.79142 11.4795 1.97512 11.5556 2.16667 11.5556H10.8333C11.0249 11.5556 11.2086 11.4795 11.344 11.344C11.4795 11.2086 11.5556 11.0249 11.5556 10.8333V7.94444C11.5556 7.7529 11.6316 7.5692 11.7671 7.43376C11.9025 7.29831 12.0862 7.22222 12.2778 7.22222C12.4693 7.22222 12.653 7.29831 12.7885 7.43376C12.9239 7.5692 13 7.7529 13 7.94444V10.8333C13 11.408 12.7717 11.9591 12.3654 12.3654C11.9591 12.7717 11.408 13 10.8333 13Z" fill="#171C8F"/>
<path d="M12.9091 0.433749C12.8381 0.262803 12.7022 0.126959 12.5313 0.0559677C12.4581 0.0242873 12.38 0.00535848 12.3004 0H8.80243C8.61689 0 8.43895 0.073707 8.30775 0.204906C8.17655 0.336106 8.10284 0.514051 8.10284 0.699595C8.10284 0.885139 8.17655 1.06308 8.30775 1.19428C8.43895 1.32548 8.61689 1.39919 8.80243 1.39919H10.6144L6.20694 5.79964C6.14137 5.86467 6.08932 5.94205 6.0538 6.0273C6.01829 6.11255 6 6.20399 6 6.29635C6 6.3887 6.01829 6.48014 6.0538 6.5654C6.08932 6.65065 6.14137 6.72802 6.20694 6.79306C6.27198 6.85863 6.34935 6.91068 6.4346 6.9462C6.51986 6.98171 6.6113 7 6.70365 7C6.79601 7 6.88745 6.98171 6.9727 6.9462C7.05795 6.91068 7.13533 6.85863 7.20036 6.79306L11.6008 2.38562V4.19757C11.6008 4.38311 11.6745 4.56105 11.8057 4.69225C11.9369 4.82345 12.1149 4.89716 12.3004 4.89716C12.4859 4.89716 12.6639 4.82345 12.7951 4.69225C12.9263 4.56105 13 4.38311 13 4.19757V0.699595C12.988 0.605741 12.957 0.515302 12.9091 0.433749Z" fill="#171C8F"/>
</svg>
