<svg width="23" height="22" viewBox="0 0 23 22" fill="none" xmlns="http://www.w3.org/2000/svg">
<g filter="url(#filter0_d_4154_4311)">
<path d="M18.2641 12.2179H4.31006V13.6443H18.2641V12.2179Z" fill="#171C8F"/>
<path d="M18.2688 13.3358C18.1447 13.3358 18.0191 13.3358 17.8951 13.3358C17.5556 13.3358 17.2176 13.3358 16.878 13.3358C16.3772 13.3358 15.8749 13.3358 15.3741 13.3358C14.7648 13.3358 14.1554 13.3358 13.5461 13.3358C12.8763 13.3358 12.2065 13.3358 11.5367 13.3358C10.8607 13.3358 10.1847 13.3358 9.50874 13.3358C8.88081 13.3358 8.25288 13.3358 7.62495 13.3358C7.09159 13.3358 6.55979 13.3358 6.02643 13.3358C5.64347 13.3358 5.26051 13.3358 4.87755 13.3358C4.69615 13.3358 4.51475 13.3312 4.33335 13.3358C4.32559 13.3358 4.31784 13.3358 4.31009 13.3358C4.41397 13.4397 4.5163 13.542 4.62018 13.6459C4.62018 13.2304 4.62018 12.8133 4.62018 12.3978C4.62018 12.3389 4.62018 12.2784 4.62018 12.2195C4.5163 12.3234 4.41397 12.4257 4.31009 12.5296C4.43413 12.5296 4.55971 12.5296 4.68375 12.5296C5.0233 12.5296 5.36129 12.5296 5.70084 12.5296C6.20163 12.5296 6.70398 12.5296 7.20477 12.5296C7.8141 12.5296 8.42343 12.5296 9.03275 12.5296C9.70254 12.5296 10.3723 12.5296 11.0421 12.5296C11.7181 12.5296 12.3941 12.5296 13.0701 12.5296C13.698 12.5296 14.326 12.5296 14.9539 12.5296C15.4873 12.5296 16.0191 12.5296 16.5524 12.5296C16.9354 12.5296 17.3183 12.5296 17.7013 12.5296C17.8827 12.5296 18.0641 12.5342 18.2455 12.5296C18.2533 12.5296 18.261 12.5296 18.2688 12.5296C18.1649 12.4257 18.0626 12.3234 17.9587 12.2195C17.9587 12.635 17.9587 13.0521 17.9587 13.4676C17.9587 13.5265 17.9587 13.587 17.9587 13.6459C17.9587 13.8087 18.1013 13.9638 18.2688 13.956C18.4362 13.9483 18.5789 13.8196 18.5789 13.6459C18.5789 13.2304 18.5789 12.8133 18.5789 12.3978C18.5789 12.3389 18.5789 12.2784 18.5789 12.2195C18.5789 12.0521 18.4362 11.9094 18.2688 11.9094C18.1447 11.9094 18.0191 11.9094 17.8951 11.9094C17.5556 11.9094 17.2176 11.9094 16.878 11.9094C16.3772 11.9094 15.8749 11.9094 15.3741 11.9094C14.7648 11.9094 14.1554 11.9094 13.5461 11.9094C12.8763 11.9094 12.2065 11.9094 11.5367 11.9094C10.8607 11.9094 10.1847 11.9094 9.50874 11.9094C8.88081 11.9094 8.25288 11.9094 7.62495 11.9094C7.09159 11.9094 6.55979 11.9094 6.02643 11.9094C5.64347 11.9094 5.26051 11.9094 4.87755 11.9094C4.69615 11.9094 4.51475 11.9063 4.33335 11.9094C4.32559 11.9094 4.31784 11.9094 4.31009 11.9094C4.14264 11.9094 4 12.0521 4 12.2195C4 12.635 4 13.0521 4 13.4676C4 13.5265 4 13.587 4 13.6459C4 13.8134 4.14264 13.956 4.31009 13.956C4.43413 13.956 4.55971 13.956 4.68375 13.956C5.0233 13.956 5.36129 13.956 5.70084 13.956C6.20163 13.956 6.70398 13.956 7.20477 13.956C7.8141 13.956 8.42343 13.956 9.03275 13.956C9.70254 13.956 10.3723 13.956 11.0421 13.956C11.7181 13.956 12.3941 13.956 13.0701 13.956C13.698 13.956 14.326 13.956 14.9539 13.956C15.4873 13.956 16.0191 13.956 16.5524 13.956C16.9354 13.956 17.3183 13.956 17.7013 13.956C17.8827 13.956 18.0641 13.9591 18.2455 13.956C18.2533 13.956 18.261 13.956 18.2688 13.956C18.4316 13.956 18.5866 13.8134 18.5789 13.6459C18.5727 13.4769 18.444 13.3358 18.2688 13.3358Z" fill="#171C8F"/>
<path d="M11.1646 0.308891L4.3186 4.29664V5.07186H17.9519V4.29664L11.1646 0.308891ZM11.1361 4.21912C10.4467 4.21912 9.88731 3.67181 9.88731 2.99737C9.88731 2.32292 10.4467 1.77561 11.1361 1.77561C11.8254 1.77561 12.3848 2.32292 12.3848 2.99737C12.3848 3.67181 11.8254 4.21912 11.1361 4.21912Z" fill="#171C8F"/>
<path d="M11.006 0.0422625C10.7335 0.201959 10.4593 0.360104 10.1867 0.5198C9.55127 0.890357 8.9158 1.26091 8.27874 1.62992C7.5577 2.05009 6.83665 2.46871 6.1156 2.88888C5.58155 3.20052 5.0475 3.51061 4.51186 3.82225C4.39935 3.88737 4.28683 3.95094 4.17432 4.01916C4.16798 4.02226 4.16323 4.02536 4.15689 4.02846C4.02694 4.11064 4 4.23157 4 4.36801C4 4.55716 4 4.74632 4 4.93702C4 4.98199 4 5.02695 4 5.07346C4 5.24091 4.14579 5.38355 4.31694 5.38355C4.43897 5.38355 4.55941 5.38355 4.68143 5.38355C5.01264 5.38355 5.34226 5.38355 5.67346 5.38355C6.16156 5.38355 6.65124 5.38355 7.13933 5.38355C7.73519 5.38355 8.33262 5.38355 8.92848 5.38355C9.58138 5.38355 10.2359 5.38355 10.8888 5.38355C11.548 5.38355 12.2073 5.38355 12.8681 5.38355C13.483 5.38355 14.0978 5.38355 14.7143 5.38355C15.2341 5.38355 15.7539 5.38355 16.2737 5.38355C16.6477 5.38355 17.0216 5.38355 17.3956 5.38355C17.5731 5.38355 17.7506 5.38665 17.9281 5.38355C17.936 5.38355 17.944 5.38355 17.9519 5.38355C18.123 5.38355 18.2688 5.24091 18.2688 5.07346C18.2688 4.92617 18.2688 4.77888 18.2688 4.63159C18.2688 4.54476 18.2688 4.45639 18.2688 4.36956C18.2688 4.23467 18.2419 4.11374 18.1119 4.03001C18.0375 3.98195 17.9582 3.94009 17.8806 3.89512C17.3909 3.60829 16.9012 3.31991 16.4115 3.03308C15.7047 2.61756 14.998 2.20204 14.2912 1.78807C13.6367 1.40356 12.9838 1.01904 12.3293 0.636084C11.9997 0.442278 11.6732 0.24072 11.3388 0.0546662C11.3341 0.0515653 11.3293 0.0484644 11.3246 0.0469139C11.182 -0.0368102 10.9696 0.0112536 10.8904 0.158546C10.8095 0.308939 10.8523 0.493443 11.0045 0.583369C11.2295 0.715157 11.4545 0.848495 11.6796 0.980283C12.2199 1.29812 12.7619 1.61597 13.3023 1.93381C13.9536 2.31677 14.6065 2.69973 15.2579 3.08269C15.8236 3.41449 16.3893 3.74783 16.9551 4.07963C17.2292 4.24087 17.4986 4.41297 17.7791 4.56337C17.7823 4.56492 17.7871 4.56802 17.7902 4.56957C17.7379 4.47964 17.6856 4.39127 17.6333 4.30134C17.6333 4.56027 17.6333 4.81764 17.6333 5.07656C17.7395 4.97268 17.8441 4.87035 17.9503 4.76647C17.8283 4.76647 17.7078 4.76647 17.5858 4.76647C17.2546 4.76647 16.925 4.76647 16.5938 4.76647C16.1057 4.76647 15.616 4.76647 15.1279 4.76647C14.532 4.76647 13.9346 4.76647 13.3388 4.76647C12.6859 4.76647 12.0314 4.76647 11.3785 4.76647C10.7192 4.76647 10.06 4.76647 9.39914 4.76647C8.78427 4.76647 8.1694 4.76647 7.55294 4.76647C7.03315 4.76647 6.51337 4.76647 5.99358 4.76647C5.61958 4.76647 5.24559 4.76647 4.8716 4.76647C4.69411 4.76647 4.51662 4.76182 4.33913 4.76647C4.33121 4.76647 4.32328 4.76647 4.31536 4.76647C4.42154 4.87035 4.52613 4.97268 4.6323 5.07656C4.6323 4.81764 4.6323 4.56027 4.6323 4.30134C4.58001 4.39127 4.52771 4.47964 4.47542 4.56957C4.70203 4.43778 4.93023 4.30444 5.15685 4.17265C5.70199 3.85481 6.24872 3.53697 6.79386 3.21913C7.45152 2.83617 8.10918 2.45321 8.76684 2.07025C9.33734 1.73845 9.90784 1.40511 10.4783 1.07331C10.7557 0.912063 11.0362 0.757019 11.3103 0.58957C11.3135 0.58802 11.3182 0.584919 11.3214 0.583369C11.464 0.499645 11.529 0.301187 11.4355 0.158546C11.3468 0.0128041 11.1582 -0.0476634 11.006 0.0422625Z" fill="#171C8F"/>
<path d="M11.1362 3.90906C11.1061 3.90906 11.0775 3.90751 11.0474 3.90596C11.0332 3.90441 11.0189 3.90286 11.0046 3.90286C10.9412 3.89821 11.0252 3.90441 11.0252 3.90596C11.0173 3.91991 10.8573 3.86875 10.8382 3.86255C10.8271 3.85945 10.7606 3.84394 10.759 3.83464C10.7606 3.83774 10.8208 3.86255 10.7764 3.84239C10.7638 3.83619 10.7511 3.83154 10.7384 3.82534C10.6829 3.79743 10.6291 3.76642 10.5783 3.73231C10.5783 3.73231 10.5451 3.71215 10.5451 3.70905C10.5466 3.71835 10.5942 3.74936 10.5609 3.7199C10.5403 3.7013 10.5197 3.68424 10.4991 3.66564C10.4785 3.64703 10.4595 3.62843 10.4421 3.60827C10.431 3.59587 10.4199 3.58347 10.4072 3.57106C10.366 3.5261 10.3993 3.57726 10.4119 3.57881C10.3866 3.57571 10.3343 3.46563 10.3216 3.44393C10.3074 3.42067 10.2947 3.39586 10.2836 3.37105C10.2836 3.37105 10.2646 3.33694 10.2662 3.33384C10.2836 3.37416 10.2868 3.38191 10.2788 3.3602C10.2757 3.3509 10.2709 3.3416 10.2677 3.33074C10.2487 3.27803 10.2329 3.22531 10.2218 3.17105C10.2186 3.15709 10.217 3.14314 10.2139 3.12918C10.2028 3.07492 10.2154 3.14004 10.2154 3.14934C10.2154 3.11368 10.2075 3.07802 10.2075 3.04236C10.2059 2.98499 10.2091 2.92763 10.2139 2.87026C10.2186 2.81444 10.2139 2.88266 10.2107 2.88887C10.2154 2.87801 10.2154 2.85941 10.2186 2.847C10.225 2.81289 10.2329 2.77878 10.244 2.74622C10.2519 2.71987 10.2598 2.69351 10.2693 2.66715C10.2693 2.6687 10.282 2.62994 10.2836 2.62839C10.2804 2.62994 10.2551 2.68886 10.2757 2.64545C10.3026 2.59118 10.3311 2.53691 10.366 2.48575C10.3723 2.47645 10.4024 2.42063 10.4135 2.41908C10.4135 2.41908 10.3628 2.478 10.4024 2.43458C10.4119 2.42528 10.4199 2.41443 10.4294 2.40358C10.4706 2.35861 10.5165 2.3183 10.5625 2.27799C10.5958 2.24853 10.5482 2.27954 10.5466 2.28884C10.5482 2.28419 10.5799 2.26559 10.5799 2.26559C10.6021 2.25008 10.6259 2.23458 10.6497 2.22062C10.6734 2.20667 10.6972 2.19271 10.7226 2.18031C10.7352 2.17411 10.7479 2.16791 10.7606 2.16171C10.7701 2.15705 10.7796 2.1524 10.7891 2.1493C10.8113 2.14 10.8018 2.1431 10.7622 2.16016C10.7669 2.14 10.9016 2.11519 10.9222 2.10899C10.9492 2.10279 10.9777 2.09814 11.0062 2.09194C11.0617 2.08108 10.9951 2.09349 10.9856 2.09349C11.0062 2.09349 11.03 2.08883 11.0506 2.08728C11.1092 2.08263 11.1679 2.08263 11.2265 2.08728C11.2408 2.08883 11.255 2.09038 11.2693 2.09038C11.32 2.09504 11.2503 2.08573 11.2503 2.08728C11.255 2.07953 11.3422 2.10434 11.3549 2.10744C11.3739 2.11209 11.5117 2.14 11.5149 2.1586C11.5149 2.1586 11.442 2.12449 11.4975 2.15085C11.5102 2.15705 11.5228 2.16171 11.5355 2.16791C11.5672 2.18341 11.5973 2.19892 11.6258 2.21752C11.6496 2.23148 11.6718 2.24698 11.6956 2.26248C11.7003 2.26559 11.7288 2.28264 11.7288 2.28574C11.7288 2.28574 11.6686 2.23613 11.713 2.27489C11.7574 2.31365 11.8002 2.35086 11.8398 2.39427C11.8509 2.40668 11.862 2.41908 11.8731 2.43303C11.9032 2.46559 11.8715 2.41908 11.862 2.41753C11.8746 2.42063 11.9016 2.47179 11.9095 2.4842C11.9412 2.53226 11.9697 2.58343 11.9951 2.63459C12.0014 2.647 12.0093 2.68731 11.9998 2.64389C11.9887 2.59428 12.0046 2.6563 12.0062 2.66405C12.0157 2.69041 12.0236 2.71677 12.0315 2.74312C12.0395 2.76948 12.0458 2.79739 12.0521 2.82375C12.0553 2.8377 12.0569 2.85165 12.0601 2.86561C12.0711 2.92298 12.0553 2.81599 12.0601 2.85631C12.0648 2.91677 12.0696 2.97724 12.068 3.03926C12.0664 3.06717 12.0648 3.09663 12.0616 3.12453C12.0569 3.17415 12.0664 3.10593 12.0648 3.10438C12.068 3.10748 12.0569 3.15244 12.0553 3.15554C12.0426 3.22066 12.022 3.28268 11.9998 3.3447C11.9792 3.40206 12.0078 3.32764 12.0078 3.32764C12.0093 3.33229 11.984 3.37881 11.9808 3.38346C11.9666 3.41137 11.9523 3.43772 11.9364 3.46408C11.9206 3.49044 11.9032 3.51525 11.8857 3.54005C11.8857 3.54005 11.8651 3.57261 11.862 3.57261C11.8889 3.54005 11.8937 3.5323 11.8794 3.54936C11.8731 3.55711 11.8667 3.56486 11.8588 3.57261C11.816 3.62068 11.7685 3.66564 11.7193 3.7075C11.7082 3.7168 11.6845 3.74781 11.7114 3.71525C11.7399 3.68114 11.7051 3.71835 11.694 3.72766C11.6655 3.74781 11.6369 3.76487 11.6068 3.78192C11.5767 3.79898 11.5466 3.81448 11.5149 3.82999C11.5086 3.83309 11.48 3.84859 11.4769 3.84704C11.4864 3.85169 11.545 3.82223 11.4848 3.84239C11.4214 3.8641 11.3564 3.8827 11.2915 3.89511C11.2946 3.89511 11.2503 3.90441 11.2487 3.90286C11.2931 3.89666 11.3041 3.89666 11.2788 3.89821C11.2677 3.89976 11.2566 3.90131 11.2455 3.90131C11.2091 3.90751 11.1726 3.90751 11.1362 3.90906C10.9698 3.91061 10.8113 4.05015 10.8192 4.21915C10.8271 4.3866 10.9587 4.53079 11.1362 4.52924C11.8033 4.52304 12.3833 4.11217 12.6147 3.50284C12.835 2.92142 12.6353 2.21752 12.144 1.82681C11.6322 1.41749 10.9 1.34462 10.328 1.68572C9.75746 2.02527 9.47855 2.678 9.60374 3.31369C9.7432 4.01914 10.4135 4.52304 11.1362 4.52924C11.3026 4.53079 11.461 4.38505 11.4531 4.21915C11.4452 4.0486 11.3137 3.90906 11.1362 3.90906Z" fill="#171C8F"/>
<path d="M6.94726 12.2179H5.24487L5.34255 6.14018H6.84959L6.94726 12.2179Z" fill="#171C8F"/>
<path d="M6.94735 11.9094C6.45121 11.9094 5.95507 11.9094 5.45738 11.9094C5.38605 11.9094 5.31473 11.9094 5.24496 11.9094C5.34884 12.0133 5.45117 12.1156 5.55505 12.2195C5.55815 12.0179 5.56126 11.8164 5.56436 11.6148C5.57211 11.1311 5.57986 10.6473 5.58761 10.1636C5.59692 9.57752 5.60622 8.993 5.61552 8.40693C5.62327 7.90149 5.63258 7.39449 5.64033 6.88905C5.64498 6.64408 5.65893 6.39756 5.65273 6.15258C5.65273 6.14948 5.65273 6.14483 5.65273 6.14173C5.54885 6.24561 5.44652 6.34794 5.34264 6.45182C5.78142 6.45182 6.2202 6.45182 6.65742 6.45182C6.72099 6.45182 6.78456 6.45182 6.84813 6.45182C6.74425 6.34794 6.64192 6.24561 6.53804 6.14173C6.54114 6.34329 6.54424 6.54485 6.54734 6.74641C6.55509 7.23015 6.56284 7.71389 6.5706 8.19762C6.5799 8.78369 6.5892 9.36821 6.5985 9.95428C6.60626 10.4597 6.61556 10.9667 6.62331 11.4722C6.62796 11.7171 6.62486 11.9637 6.63572 12.2086C6.63572 12.2117 6.63572 12.2164 6.63572 12.2195C6.63882 12.3823 6.77681 12.5373 6.9458 12.5296C7.1117 12.5218 7.25899 12.3931 7.25589 12.2195C7.25279 12.0179 7.24969 11.8164 7.24659 11.6148C7.23884 11.1311 7.23109 10.6473 7.22333 10.1636C7.21403 9.57752 7.20473 8.993 7.19543 8.40693C7.18767 7.90149 7.17837 7.39449 7.17062 6.88905C7.16597 6.64408 7.16907 6.39756 7.15822 6.15258C7.15822 6.14948 7.15822 6.14483 7.15822 6.14173C7.15511 5.97428 7.01868 5.83164 6.84813 5.83164C6.40935 5.83164 5.97057 5.83164 5.53335 5.83164C5.46978 5.83164 5.40621 5.83164 5.34264 5.83164C5.17364 5.83164 5.03565 5.97428 5.03255 6.14173C5.02945 6.34329 5.02635 6.54485 5.02325 6.74641C5.0155 7.23015 5.00775 7.71389 4.99999 8.19762C4.99069 8.78369 4.98139 9.36821 4.97209 9.95428C4.96433 10.4597 4.95503 10.9667 4.94728 11.4722C4.94263 11.7171 4.93177 11.9637 4.93487 12.2086C4.93487 12.2117 4.93487 12.2164 4.93487 12.2195C4.93177 12.3869 5.07907 12.5296 5.24496 12.5296C5.74111 12.5296 6.23725 12.5296 6.73494 12.5296C6.80626 12.5296 6.87758 12.5296 6.94735 12.5296C7.11015 12.5296 7.2652 12.3869 7.25744 12.2195C7.24969 12.0505 7.121 11.9094 6.94735 11.9094Z" fill="#171C8F"/>
<path d="M10.3862 12.2179H8.68384L8.78152 6.14018H10.2886L10.3862 12.2179Z" fill="#171C8F"/>
<path d="M10.3863 11.9094C9.89018 11.9094 9.39403 11.9094 8.89634 11.9094C8.82502 11.9094 8.7537 11.9094 8.68393 11.9094C8.78781 12.0133 8.89014 12.1156 8.99402 12.2195C8.99712 12.0179 9.00022 11.8164 9.00332 11.6148C9.01107 11.1311 9.01883 10.6473 9.02658 10.1636C9.03588 9.57752 9.04518 8.993 9.05449 8.40693C9.06224 7.90149 9.07154 7.39449 9.07929 6.88905C9.08394 6.64408 9.0979 6.39756 9.0917 6.15258C9.0917 6.14948 9.0917 6.14483 9.0917 6.14173C8.98782 6.24561 8.88549 6.34794 8.78161 6.45182C9.22038 6.45182 9.65916 6.45182 10.0964 6.45182C10.16 6.45182 10.2235 6.45182 10.2871 6.45182C10.1832 6.34794 10.0809 6.24561 9.977 6.14173C9.9801 6.34329 9.9832 6.54485 9.9863 6.74641C9.99406 7.23015 10.0018 7.71389 10.0096 8.19762C10.0189 8.78369 10.0282 9.36821 10.0375 9.95428C10.0452 10.4597 10.0545 10.9667 10.0623 11.4722C10.0669 11.7171 10.0638 11.9637 10.0747 12.2086C10.0747 12.2117 10.0747 12.2164 10.0747 12.2195C10.0778 12.3823 10.2158 12.5373 10.3848 12.5296C10.5507 12.5218 10.698 12.3931 10.6949 12.2195C10.6918 12.0179 10.6887 11.8164 10.6856 11.6148C10.6778 11.1311 10.6701 10.6473 10.6623 10.1636C10.653 9.57752 10.6437 8.993 10.6344 8.40693C10.6266 7.90149 10.6173 7.39449 10.6096 6.88905C10.6049 6.64408 10.608 6.39756 10.5972 6.15258C10.5972 6.14948 10.5972 6.14483 10.5972 6.14173C10.5941 5.97428 10.4576 5.83164 10.2871 5.83164C9.84831 5.83164 9.40954 5.83164 8.97231 5.83164C8.90874 5.83164 8.84518 5.83164 8.78161 5.83164C8.61261 5.83164 8.47462 5.97428 8.47152 6.14173C8.46842 6.34329 8.46532 6.54485 8.46221 6.74641C8.45446 7.23015 8.44671 7.71389 8.43896 8.19762C8.42966 8.78369 8.42035 9.36821 8.41105 9.95428C8.4033 10.4597 8.394 10.9667 8.38624 11.4722C8.38159 11.7171 8.37074 11.9637 8.37384 12.2086C8.37384 12.2117 8.37384 12.2164 8.37384 12.2195C8.37074 12.3869 8.51803 12.5296 8.68393 12.5296C9.18007 12.5296 9.67622 12.5296 10.1739 12.5296C10.2452 12.5296 10.3165 12.5296 10.3863 12.5296C10.5491 12.5296 10.7042 12.3869 10.6964 12.2195C10.6887 12.0505 10.56 11.9094 10.3863 11.9094Z" fill="#171C8F"/>
<path d="M17.2639 12.2179H15.5615L15.6608 6.14018H17.1662L17.2639 12.2179Z" fill="#171C8F"/>
<path d="M17.264 11.9094C16.7679 11.9094 16.2717 11.9094 15.774 11.9094C15.7027 11.9094 15.6314 11.9094 15.5616 11.9094C15.6655 12.0133 15.7678 12.1156 15.8717 12.2195C15.8748 12.0179 15.8779 11.8164 15.881 11.6148C15.8888 11.1311 15.8965 10.6473 15.9043 10.1636C15.9136 9.57752 15.9229 8.993 15.9322 8.40693C15.9399 7.90149 15.9492 7.39449 15.957 6.88905C15.9616 6.64408 15.9756 6.39756 15.9694 6.15258C15.9694 6.14948 15.9694 6.14483 15.9694 6.14173C15.8655 6.24561 15.7632 6.34794 15.6593 6.45182C16.0981 6.45182 16.5368 6.45182 16.9741 6.45182C17.0376 6.45182 17.1012 6.45182 17.1648 6.45182C17.0609 6.34794 16.9586 6.24561 16.8547 6.14173C16.8578 6.34329 16.8609 6.54485 16.864 6.74641C16.8717 7.23015 16.8795 7.71389 16.8872 8.19762C16.8965 8.78369 16.9059 9.36821 16.9152 9.95428C16.9229 10.4597 16.9322 10.9667 16.94 11.4722C16.9446 11.7171 16.9415 11.9637 16.9524 12.2086C16.9524 12.2117 16.9524 12.2164 16.9524 12.2195C16.9555 12.3823 17.0935 12.5373 17.2625 12.5296C17.4284 12.5218 17.5756 12.3931 17.5725 12.2195C17.5694 12.0179 17.5663 11.8164 17.5632 11.6148C17.5555 11.1311 17.5477 10.6473 17.54 10.1636C17.5307 9.57752 17.5214 8.993 17.5121 8.40693C17.5043 7.90149 17.495 7.39449 17.4873 6.88905C17.4826 6.64408 17.4857 6.39756 17.4749 6.15258C17.4749 6.14948 17.4749 6.14483 17.4749 6.14173C17.4718 5.97428 17.3353 5.83164 17.1648 5.83164C16.726 5.83164 16.2872 5.83164 15.85 5.83164C15.7864 5.83164 15.7229 5.83164 15.6593 5.83164C15.4903 5.83164 15.3523 5.97428 15.3492 6.14173C15.3461 6.34329 15.343 6.54485 15.3399 6.74641C15.3321 7.23015 15.3244 7.71389 15.3166 8.19762C15.3073 8.78369 15.298 9.36821 15.2887 9.95428C15.281 10.4597 15.2717 10.9667 15.2639 11.4722C15.2593 11.7171 15.2484 11.9637 15.2515 12.2086C15.2515 12.2117 15.2515 12.2164 15.2515 12.2195C15.2484 12.3869 15.3957 12.5296 15.5616 12.5296C16.0578 12.5296 16.5539 12.5296 17.0516 12.5296C17.1229 12.5296 17.1942 12.5296 17.264 12.5296C17.4268 12.5296 17.5818 12.3869 17.5741 12.2195C17.5679 12.0505 17.4392 11.9094 17.264 11.9094Z" fill="#171C8F"/>
<path d="M13.8249 12.2179H12.1226L12.2218 6.15569H13.7273L13.8249 12.2179Z" fill="#171C8F"/>
<path d="M13.825 11.9094C13.3289 11.9094 12.8328 11.9094 12.3351 11.9094C12.2637 11.9094 12.1924 11.9094 12.1226 11.9094C12.2265 12.0133 12.3289 12.1156 12.4327 12.2195C12.4358 12.0195 12.4389 11.8179 12.442 11.6179C12.4498 11.1357 12.4575 10.6535 12.4653 10.1713C12.4746 9.58838 12.4839 9.00386 12.4932 8.42089C12.501 7.91545 12.5103 7.41155 12.518 6.90611C12.5227 6.66114 12.5366 6.41306 12.5304 6.16654C12.5304 6.16344 12.5304 6.16034 12.5304 6.15569C12.4265 6.25957 12.3242 6.3619 12.2203 6.46578C12.6591 6.46578 13.0979 6.46578 13.5351 6.46578C13.5987 6.46578 13.6622 6.46578 13.7258 6.46578C13.6219 6.3619 13.5196 6.25957 13.4157 6.15569C13.4188 6.3557 13.4219 6.55726 13.425 6.75726C13.4328 7.23945 13.4405 7.72164 13.4483 8.20383C13.4576 8.7868 13.4669 9.37132 13.4762 9.95429C13.4839 10.4597 13.4932 10.9636 13.501 11.4691C13.5056 11.7156 13.5025 11.9621 13.5134 12.2086C13.5134 12.2117 13.5134 12.2148 13.5134 12.2195C13.5165 12.3823 13.6545 12.5373 13.8235 12.5296C13.9894 12.5218 14.1367 12.3931 14.1336 12.2195C14.1305 12.0195 14.1274 11.8179 14.1243 11.6179C14.1165 11.1357 14.1088 10.6535 14.101 10.1713C14.0917 9.58838 14.0824 9.00386 14.0731 8.42089C14.0654 7.91545 14.0561 7.41155 14.0483 6.90611C14.0437 6.65958 14.0468 6.41306 14.0359 6.16654C14.0359 6.16344 14.0359 6.16034 14.0359 6.15569C14.0328 5.98824 13.8964 5.8456 13.7258 5.8456C13.287 5.8456 12.8483 5.8456 12.411 5.8456C12.3475 5.8456 12.2839 5.8456 12.2203 5.8456C12.0513 5.8456 11.9133 5.98824 11.9102 6.15569C11.9071 6.3557 11.904 6.55726 11.9009 6.75726C11.8932 7.23945 11.8854 7.72164 11.8777 8.20383C11.8684 8.7868 11.8591 9.37132 11.8498 9.95429C11.842 10.4597 11.8327 10.9636 11.825 11.4691C11.8203 11.7156 11.8095 11.9621 11.8126 12.2086C11.8126 12.2117 11.8126 12.2148 11.8126 12.2195C11.8095 12.3869 11.9568 12.5296 12.1226 12.5296C12.6188 12.5296 13.1149 12.5296 13.6126 12.5296C13.6839 12.5296 13.7553 12.5296 13.825 12.5296C13.9878 12.5296 14.1429 12.3869 14.1351 12.2195C14.1274 12.0505 13.9987 11.9094 13.825 11.9094Z" fill="#171C8F"/>
</g>
<defs>
<filter id="filter0_d_4154_4311" x="0" y="0" width="22.5791" height="21.9574" filterUnits="userSpaceOnUse" color-interpolation-filters="sRGB">
<feFlood flood-opacity="0" result="BackgroundImageFix"/>
<feColorMatrix in="SourceAlpha" type="matrix" values="0 0 0 0 0 0 0 0 0 0 0 0 0 0 0 0 0 0 127 0" result="hardAlpha"/>
<feOffset dy="4"/>
<feGaussianBlur stdDeviation="2"/>
<feComposite in2="hardAlpha" operator="out"/>
<feColorMatrix type="matrix" values="0 0 0 0 0 0 0 0 0 0 0 0 0 0 0 0 0 0 0.25 0"/>
<feBlend mode="normal" in2="BackgroundImageFix" result="effect1_dropShadow_4154_4311"/>
<feBlend mode="normal" in="SourceGraphic" in2="effect1_dropShadow_4154_4311" result="shape"/>
</filter>
</defs>
</svg>
