<svg width="15" height="14" viewBox="0 0 15 14" fill="none" xmlns="http://www.w3.org/2000/svg">
<path d="M14.2641 12.2179H0.310059V13.6443H14.2641V12.2179Z" fill="#7C7C7C"/>
<path d="M14.2688 13.3358C14.1447 13.3358 14.0191 13.3358 13.8951 13.3358C13.5556 13.3358 13.2176 13.3358 12.878 13.3358C12.3772 13.3358 11.8749 13.3358 11.3741 13.3358C10.7648 13.3358 10.1554 13.3358 9.5461 13.3358C8.87631 13.3358 8.20652 13.3358 7.53672 13.3358C6.86073 13.3358 6.18473 13.3358 5.50874 13.3358C4.88081 13.3358 4.25288 13.3358 3.62495 13.3358C3.09159 13.3358 2.55979 13.3358 2.02643 13.3358C1.64347 13.3358 1.26051 13.3358 0.877553 13.3358C0.696151 13.3358 0.514748 13.3312 0.333346 13.3358C0.325594 13.3358 0.317842 13.3358 0.310089 13.3358C0.413969 13.4397 0.516299 13.542 0.620179 13.6459C0.620179 13.2304 0.620179 12.8133 0.620179 12.3978C0.620179 12.3389 0.620179 12.2784 0.620179 12.2195C0.516299 12.3234 0.413969 12.4257 0.310089 12.5296C0.434125 12.5296 0.559711 12.5296 0.683747 12.5296C1.0233 12.5296 1.36129 12.5296 1.70084 12.5296C2.20163 12.5296 2.70398 12.5296 3.20477 12.5296C3.8141 12.5296 4.42343 12.5296 5.03275 12.5296C5.70254 12.5296 6.37234 12.5296 7.04213 12.5296C7.71813 12.5296 8.39412 12.5296 9.07012 12.5296C9.69805 12.5296 10.326 12.5296 10.9539 12.5296C11.4873 12.5296 12.0191 12.5296 12.5524 12.5296C12.9354 12.5296 13.3183 12.5296 13.7013 12.5296C13.8827 12.5296 14.0641 12.5342 14.2455 12.5296C14.2533 12.5296 14.261 12.5296 14.2688 12.5296C14.1649 12.4257 14.0626 12.3234 13.9587 12.2195C13.9587 12.635 13.9587 13.0521 13.9587 13.4676C13.9587 13.5265 13.9587 13.587 13.9587 13.6459C13.9587 13.8087 14.1013 13.9638 14.2688 13.956C14.4362 13.9483 14.5789 13.8196 14.5789 13.6459C14.5789 13.2304 14.5789 12.8133 14.5789 12.3978C14.5789 12.3389 14.5789 12.2784 14.5789 12.2195C14.5789 12.0521 14.4362 11.9094 14.2688 11.9094C14.1447 11.9094 14.0191 11.9094 13.8951 11.9094C13.5556 11.9094 13.2176 11.9094 12.878 11.9094C12.3772 11.9094 11.8749 11.9094 11.3741 11.9094C10.7648 11.9094 10.1554 11.9094 9.5461 11.9094C8.87631 11.9094 8.20652 11.9094 7.53672 11.9094C6.86073 11.9094 6.18473 11.9094 5.50874 11.9094C4.88081 11.9094 4.25288 11.9094 3.62495 11.9094C3.09159 11.9094 2.55979 11.9094 2.02643 11.9094C1.64347 11.9094 1.26051 11.9094 0.877553 11.9094C0.696151 11.9094 0.514748 11.9063 0.333346 11.9094C0.325594 11.9094 0.317842 11.9094 0.310089 11.9094C0.142641 11.9094 0 12.0521 0 12.2195C0 12.635 0 13.0521 0 13.4676C0 13.5265 0 13.587 0 13.6459C0 13.8134 0.142641 13.956 0.310089 13.956C0.434125 13.956 0.559711 13.956 0.683747 13.956C1.0233 13.956 1.36129 13.956 1.70084 13.956C2.20163 13.956 2.70398 13.956 3.20477 13.956C3.8141 13.956 4.42343 13.956 5.03275 13.956C5.70254 13.956 6.37234 13.956 7.04213 13.956C7.71813 13.956 8.39412 13.956 9.07012 13.956C9.69805 13.956 10.326 13.956 10.9539 13.956C11.4873 13.956 12.0191 13.956 12.5524 13.956C12.9354 13.956 13.3183 13.956 13.7013 13.956C13.8827 13.956 14.0641 13.9591 14.2455 13.956C14.2533 13.956 14.261 13.956 14.2688 13.956C14.4316 13.956 14.5866 13.8134 14.5789 13.6459C14.5727 13.4769 14.444 13.3358 14.2688 13.3358Z" fill="#7C7C7C"/>
<path d="M7.16459 0.308891L0.318604 4.29664V5.07186H13.9519V4.29664L7.16459 0.308891ZM7.13607 4.21912C6.44672 4.21912 5.88731 3.67181 5.88731 2.99737C5.88731 2.32292 6.44672 1.77561 7.13607 1.77561C7.82542 1.77561 8.38483 2.32292 8.38483 2.99737C8.38483 3.67181 7.82542 4.21912 7.13607 4.21912Z" fill="#7C7C7C"/>
<path d="M7.00605 0.0422625C6.73348 0.201959 6.45932 0.360104 6.18675 0.5198C5.55127 0.890357 4.9158 1.26091 4.27874 1.62992C3.5577 2.05009 2.83665 2.46871 2.1156 2.88888C1.58155 3.20052 1.0475 3.51061 0.511865 3.82225C0.399349 3.88737 0.286834 3.95094 0.174319 4.01916C0.16798 4.02226 0.163226 4.02536 0.156887 4.02846C0.0269403 4.11064 0 4.23157 0 4.36801C0 4.55716 0 4.74632 0 4.93702C0 4.98199 0 5.02695 0 5.07346C0 5.24091 0.145794 5.38355 0.316944 5.38355C0.438967 5.38355 0.559406 5.38355 0.68143 5.38355C1.01264 5.38355 1.34226 5.38355 1.67346 5.38355C2.16156 5.38355 2.65124 5.38355 3.13933 5.38355C3.73519 5.38355 4.33262 5.38355 4.92848 5.38355C5.58138 5.38355 6.23587 5.38355 6.88878 5.38355C7.54802 5.38355 8.20726 5.38355 8.86809 5.38355C9.48296 5.38355 10.0978 5.38355 10.7143 5.38355C11.2341 5.38355 11.7539 5.38355 12.2737 5.38355C12.6477 5.38355 13.0216 5.38355 13.3956 5.38355C13.5731 5.38355 13.7506 5.38665 13.9281 5.38355C13.936 5.38355 13.944 5.38355 13.9519 5.38355C14.123 5.38355 14.2688 5.24091 14.2688 5.07346C14.2688 4.92617 14.2688 4.77888 14.2688 4.63159C14.2688 4.54476 14.2688 4.45639 14.2688 4.36956C14.2688 4.23467 14.2419 4.11374 14.1119 4.03001C14.0375 3.98195 13.9582 3.94009 13.8806 3.89512C13.3909 3.60829 12.9012 3.31991 12.4115 3.03308C11.7047 2.61756 10.998 2.20204 10.2912 1.78807C9.63668 1.40356 8.98378 1.01904 8.32929 0.636084C7.99967 0.442278 7.67321 0.24072 7.33884 0.0546662C7.33408 0.0515653 7.32933 0.0484644 7.32458 0.0469139C7.18195 -0.0368102 6.9696 0.0112536 6.89036 0.158546C6.80954 0.308939 6.85233 0.493443 7.00446 0.583369C7.22949 0.715157 7.45452 0.848495 7.67955 0.980283C8.21994 1.29812 8.76192 1.61597 9.30231 1.93381C9.95363 2.31677 10.6065 2.69973 11.2579 3.08269C11.8236 3.41449 12.3893 3.74783 12.9551 4.07963C13.2292 4.24087 13.4986 4.41297 13.7791 4.56337C13.7823 4.56492 13.7871 4.56802 13.7902 4.56957C13.7379 4.47964 13.6856 4.39127 13.6333 4.30134C13.6333 4.56027 13.6333 4.81764 13.6333 5.07656C13.7395 4.97268 13.8441 4.87035 13.9503 4.76647C13.8283 4.76647 13.7078 4.76647 13.5858 4.76647C13.2546 4.76647 12.925 4.76647 12.5938 4.76647C12.1057 4.76647 11.616 4.76647 11.1279 4.76647C10.532 4.76647 9.93461 4.76647 9.33876 4.76647C8.68585 4.76647 8.03136 4.76647 7.37846 4.76647C6.71921 4.76647 6.05997 4.76647 5.39914 4.76647C4.78427 4.76647 4.1694 4.76647 3.55294 4.76647C3.03315 4.76647 2.51337 4.76647 1.99358 4.76647C1.61958 4.76647 1.24559 4.76647 0.871596 4.76647C0.694107 4.76647 0.516619 4.76182 0.33913 4.76647C0.331207 4.76647 0.323283 4.76647 0.315359 4.76647C0.421536 4.87035 0.526127 4.97268 0.632303 5.07656C0.632303 4.81764 0.632303 4.56027 0.632303 4.30134C0.580008 4.39127 0.527712 4.47964 0.475416 4.56957C0.702031 4.43778 0.930231 4.30444 1.15685 4.17265C1.70199 3.85481 2.24872 3.53697 2.79386 3.21913C3.45152 2.83617 4.10918 2.45321 4.76684 2.07025C5.33734 1.73845 5.90784 1.40511 6.47834 1.07331C6.75566 0.912063 7.03616 0.757019 7.31031 0.58957C7.31348 0.58802 7.31824 0.584919 7.32141 0.583369C7.46403 0.499645 7.529 0.301187 7.43551 0.158546C7.34676 0.0128041 7.15818 -0.0476634 7.00605 0.0422625Z" fill="#7C7C7C"/>
<path d="M7.13616 3.90906C7.10605 3.90906 7.07753 3.90751 7.04742 3.90596C7.03316 3.90441 7.0189 3.90286 7.00463 3.90286C6.94124 3.89821 7.02523 3.90441 7.02523 3.90596C7.01731 3.91991 6.85725 3.86875 6.83824 3.86255C6.82714 3.85945 6.76059 3.84394 6.759 3.83464C6.76059 3.83774 6.82081 3.86255 6.77643 3.84239C6.76376 3.83619 6.75108 3.83154 6.7384 3.82534C6.68293 3.79743 6.62905 3.76642 6.57834 3.73231C6.57834 3.73231 6.54506 3.71215 6.54506 3.70905C6.54665 3.71835 6.59419 3.74936 6.56091 3.7199C6.54031 3.7013 6.51971 3.68424 6.49911 3.66564C6.47851 3.64703 6.45949 3.62843 6.44206 3.60827C6.43096 3.59587 6.41987 3.58347 6.40719 3.57106C6.36599 3.5261 6.39927 3.57726 6.41195 3.57881C6.38659 3.57571 6.3343 3.46563 6.32162 3.44393C6.30736 3.42067 6.29468 3.39586 6.28358 3.37105C6.28358 3.37105 6.26457 3.33694 6.26615 3.33384C6.28358 3.37416 6.28675 3.38191 6.27883 3.3602C6.27566 3.3509 6.27091 3.3416 6.26774 3.33074C6.24872 3.27803 6.23287 3.22531 6.22178 3.17105C6.21861 3.15709 6.21703 3.14314 6.21386 3.12918C6.20276 3.07492 6.21544 3.14004 6.21544 3.14934C6.21544 3.11368 6.20752 3.07802 6.20752 3.04236C6.20593 2.98499 6.2091 2.92763 6.21386 2.87026C6.21861 2.81444 6.21386 2.88266 6.21069 2.88887C6.21544 2.87801 6.21544 2.85941 6.21861 2.847C6.22495 2.81289 6.23287 2.77878 6.24397 2.74622C6.25189 2.71987 6.25981 2.69351 6.26932 2.66715C6.26932 2.6687 6.282 2.62994 6.28358 2.62839C6.28042 2.62994 6.25506 2.68886 6.27566 2.64545C6.3026 2.59118 6.33113 2.53691 6.36599 2.48575C6.37233 2.47645 6.40244 2.42063 6.41353 2.41908C6.41353 2.41908 6.36282 2.478 6.40244 2.43458C6.41195 2.42528 6.41987 2.41443 6.42938 2.40358C6.47058 2.35861 6.51654 2.3183 6.5625 2.27799C6.59577 2.24853 6.54823 2.27954 6.54665 2.28884C6.54823 2.28419 6.57993 2.26559 6.57993 2.26559C6.60211 2.25008 6.62588 2.23458 6.64966 2.22062C6.67343 2.20667 6.6972 2.19271 6.72255 2.18031C6.73523 2.17411 6.74791 2.16791 6.76059 2.16171C6.77009 2.15705 6.7796 2.1524 6.78911 2.1493C6.8113 2.14 6.80179 2.1431 6.76217 2.16016C6.76692 2.14 6.90163 2.11519 6.92223 2.10899C6.94917 2.10279 6.97769 2.09814 7.00622 2.09194C7.06168 2.08108 6.99512 2.09349 6.98562 2.09349C7.00622 2.09349 7.02999 2.08883 7.05059 2.08728C7.10922 2.08263 7.16786 2.08263 7.22649 2.08728C7.24076 2.08883 7.25502 2.09038 7.26928 2.09038C7.31999 2.09504 7.25026 2.08573 7.25026 2.08728C7.25502 2.07953 7.34218 2.10434 7.35486 2.10744C7.37387 2.11209 7.51174 2.14 7.51491 2.1586C7.51491 2.1586 7.44202 2.12449 7.49748 2.15085C7.51016 2.15705 7.52284 2.16171 7.53551 2.16791C7.56721 2.18341 7.59732 2.19892 7.62584 2.21752C7.64961 2.23148 7.6718 2.24698 7.69557 2.26248C7.70032 2.26559 7.72885 2.28264 7.72885 2.28574C7.72885 2.28574 7.66863 2.23613 7.713 2.27489C7.75737 2.31365 7.80016 2.35086 7.83978 2.39427C7.85087 2.40668 7.86197 2.41908 7.87306 2.43303C7.90317 2.46559 7.87147 2.41908 7.86197 2.41753C7.87464 2.42063 7.90158 2.47179 7.90951 2.4842C7.9412 2.53226 7.96973 2.58343 7.99508 2.63459C8.00142 2.647 8.00935 2.68731 7.99984 2.64389C7.98874 2.59428 8.00459 2.6563 8.00618 2.66405C8.01568 2.69041 8.02361 2.71677 8.03153 2.74312C8.03946 2.76948 8.04579 2.79739 8.05213 2.82375C8.0553 2.8377 8.05689 2.85165 8.06006 2.86561C8.07115 2.92298 8.0553 2.81599 8.06006 2.85631C8.06481 2.91677 8.06956 2.97724 8.06798 3.03926C8.0664 3.06717 8.06481 3.09663 8.06164 3.12453C8.05689 3.17415 8.0664 3.10593 8.06481 3.10438C8.06798 3.10748 8.05689 3.15244 8.0553 3.15554C8.04262 3.22066 8.02202 3.28268 7.99984 3.3447C7.97924 3.40206 8.00776 3.32764 8.00776 3.32764C8.00935 3.33229 7.98399 3.37881 7.98082 3.38346C7.96656 3.41137 7.9523 3.43772 7.93645 3.46408C7.9206 3.49044 7.90317 3.51525 7.88574 3.54005C7.88574 3.54005 7.86514 3.57261 7.86197 3.57261C7.88891 3.54005 7.89366 3.5323 7.8794 3.54936C7.87306 3.55711 7.86672 3.56486 7.8588 3.57261C7.81601 3.62068 7.76847 3.66564 7.71934 3.7075C7.70825 3.7168 7.68448 3.74781 7.71142 3.71525C7.73994 3.68114 7.70508 3.71835 7.69399 3.72766C7.66546 3.74781 7.63694 3.76487 7.60683 3.78192C7.57672 3.79898 7.54661 3.81448 7.51491 3.82999C7.50857 3.83309 7.48005 3.84859 7.47688 3.84704C7.48639 3.85169 7.54502 3.82223 7.4848 3.84239C7.42141 3.8641 7.35644 3.8827 7.29147 3.89511C7.29464 3.89511 7.25026 3.90441 7.24868 3.90286C7.29305 3.89666 7.30415 3.89666 7.27879 3.89821C7.2677 3.89976 7.2566 3.90131 7.24551 3.90131C7.20906 3.90751 7.17261 3.90751 7.13616 3.90906C6.96977 3.91061 6.8113 4.05015 6.81922 4.21915C6.82714 4.3866 6.95868 4.53079 7.13616 4.52924C7.80333 4.52304 8.38334 4.11217 8.61471 3.50284C8.83498 2.92142 8.63531 2.21752 8.14405 1.82681C7.63218 1.41749 6.90004 1.34462 6.32796 1.68572C5.75746 2.02527 5.47855 2.678 5.60374 3.31369C5.7432 4.01914 6.41353 4.52304 7.13616 4.52924C7.30256 4.53079 7.46103 4.38505 7.45311 4.21915C7.44519 4.0486 7.31365 3.90906 7.13616 3.90906Z" fill="#7C7C7C"/>
<path d="M2.94726 12.2179H1.24487L1.34255 6.14018H2.84959L2.94726 12.2179Z" fill="#7C7C7C"/>
<path d="M2.94735 11.9094C2.45121 11.9094 1.95507 11.9094 1.45738 11.9094C1.38605 11.9094 1.31473 11.9094 1.24496 11.9094C1.34884 12.0133 1.45117 12.1156 1.55505 12.2195C1.55815 12.0179 1.56126 11.8164 1.56436 11.6148C1.57211 11.1311 1.57986 10.6473 1.58761 10.1636C1.59692 9.57752 1.60622 8.993 1.61552 8.40693C1.62327 7.90149 1.63258 7.39449 1.64033 6.88905C1.64498 6.64408 1.65893 6.39756 1.65273 6.15258C1.65273 6.14948 1.65273 6.14483 1.65273 6.14173C1.54885 6.24561 1.44652 6.34794 1.34264 6.45182C1.78142 6.45182 2.2202 6.45182 2.65742 6.45182C2.72099 6.45182 2.78456 6.45182 2.84813 6.45182C2.74425 6.34794 2.64192 6.24561 2.53804 6.14173C2.54114 6.34329 2.54424 6.54485 2.54734 6.74641C2.55509 7.23015 2.56284 7.71389 2.5706 8.19762C2.5799 8.78369 2.5892 9.36821 2.5985 9.95428C2.60626 10.4597 2.61556 10.9667 2.62331 11.4722C2.62796 11.7171 2.62486 11.9637 2.63572 12.2086C2.63572 12.2117 2.63572 12.2164 2.63572 12.2195C2.63882 12.3823 2.77681 12.5373 2.9458 12.5296C3.1117 12.5218 3.25899 12.3931 3.25589 12.2195C3.25279 12.0179 3.24969 11.8164 3.24659 11.6148C3.23884 11.1311 3.23109 10.6473 3.22333 10.1636C3.21403 9.57752 3.20473 8.993 3.19543 8.40693C3.18767 7.90149 3.17837 7.39449 3.17062 6.88905C3.16597 6.64408 3.16907 6.39756 3.15822 6.15258C3.15822 6.14948 3.15822 6.14483 3.15822 6.14173C3.15511 5.97428 3.01868 5.83164 2.84813 5.83164C2.40935 5.83164 1.97057 5.83164 1.53335 5.83164C1.46978 5.83164 1.40621 5.83164 1.34264 5.83164C1.17364 5.83164 1.03565 5.97428 1.03255 6.14173C1.02945 6.34329 1.02635 6.54485 1.02325 6.74641C1.0155 7.23015 1.00775 7.71389 0.999993 8.19762C0.990691 8.78369 0.981388 9.36821 0.972085 9.95428C0.964333 10.4597 0.95503 10.9667 0.947278 11.4722C0.942627 11.7171 0.931774 11.9637 0.934875 12.2086C0.934875 12.2117 0.934875 12.2164 0.934875 12.2195C0.931774 12.3869 1.07907 12.5296 1.24496 12.5296C1.74111 12.5296 2.23725 12.5296 2.73494 12.5296C2.80626 12.5296 2.87758 12.5296 2.94735 12.5296C3.11015 12.5296 3.2652 12.3869 3.25744 12.2195C3.24969 12.0505 3.121 11.9094 2.94735 11.9094Z" fill="#7C7C7C"/>
<path d="M6.38623 12.2179H4.68384L4.78152 6.14018H6.28855L6.38623 12.2179Z" fill="#7C7C7C"/>
<path d="M6.38632 11.9094C5.89018 11.9094 5.39403 11.9094 4.89634 11.9094C4.82502 11.9094 4.7537 11.9094 4.68393 11.9094C4.78781 12.0133 4.89014 12.1156 4.99402 12.2195C4.99712 12.0179 5.00022 11.8164 5.00332 11.6148C5.01107 11.1311 5.01883 10.6473 5.02658 10.1636C5.03588 9.57752 5.04518 8.993 5.05449 8.40693C5.06224 7.90149 5.07154 7.39449 5.07929 6.88905C5.08394 6.64408 5.0979 6.39756 5.0917 6.15258C5.0917 6.14948 5.0917 6.14483 5.0917 6.14173C4.98782 6.24561 4.88549 6.34794 4.78161 6.45182C5.22038 6.45182 5.65916 6.45182 6.09639 6.45182C6.15995 6.45182 6.22352 6.45182 6.28709 6.45182C6.18321 6.34794 6.08088 6.24561 5.977 6.14173C5.9801 6.34329 5.9832 6.54485 5.9863 6.74641C5.99406 7.23015 6.00181 7.71389 6.00956 8.19762C6.01886 8.78369 6.02817 9.36821 6.03747 9.95428C6.04522 10.4597 6.05452 10.9667 6.06228 11.4722C6.06693 11.7171 6.06383 11.9637 6.07468 12.2086C6.07468 12.2117 6.07468 12.2164 6.07468 12.2195C6.07778 12.3823 6.21577 12.5373 6.38477 12.5296C6.55067 12.5218 6.69796 12.3931 6.69486 12.2195C6.69176 12.0179 6.68866 11.8164 6.68556 11.6148C6.6778 11.1311 6.67005 10.6473 6.6623 10.1636C6.653 9.57752 6.64369 8.993 6.63439 8.40693C6.62664 7.90149 6.61734 7.39449 6.60958 6.88905C6.60493 6.64408 6.60803 6.39756 6.59718 6.15258C6.59718 6.14948 6.59718 6.14483 6.59718 6.14173C6.59408 5.97428 6.45764 5.83164 6.28709 5.83164C5.84831 5.83164 5.40954 5.83164 4.97231 5.83164C4.90874 5.83164 4.84518 5.83164 4.78161 5.83164C4.61261 5.83164 4.47462 5.97428 4.47152 6.14173C4.46842 6.34329 4.46532 6.54485 4.46221 6.74641C4.45446 7.23015 4.44671 7.71389 4.43896 8.19762C4.42966 8.78369 4.42035 9.36821 4.41105 9.95428C4.4033 10.4597 4.394 10.9667 4.38624 11.4722C4.38159 11.7171 4.37074 11.9637 4.37384 12.2086C4.37384 12.2117 4.37384 12.2164 4.37384 12.2195C4.37074 12.3869 4.51803 12.5296 4.68393 12.5296C5.18007 12.5296 5.67622 12.5296 6.17391 12.5296C6.24523 12.5296 6.31655 12.5296 6.38632 12.5296C6.54912 12.5296 6.70416 12.3869 6.69641 12.2195C6.68866 12.0505 6.55997 11.9094 6.38632 11.9094Z" fill="#7C7C7C"/>
<path d="M13.2639 12.2179H11.5615L11.6608 6.14018H13.1662L13.2639 12.2179Z" fill="#7C7C7C"/>
<path d="M13.264 11.9094C12.7679 11.9094 12.2717 11.9094 11.774 11.9094C11.7027 11.9094 11.6314 11.9094 11.5616 11.9094C11.6655 12.0133 11.7678 12.1156 11.8717 12.2195C11.8748 12.0179 11.8779 11.8164 11.881 11.6148C11.8888 11.1311 11.8965 10.6473 11.9043 10.1636C11.9136 9.57752 11.9229 8.993 11.9322 8.40693C11.9399 7.90149 11.9492 7.39449 11.957 6.88905C11.9616 6.64408 11.9756 6.39756 11.9694 6.15258C11.9694 6.14948 11.9694 6.14483 11.9694 6.14173C11.8655 6.24561 11.7632 6.34794 11.6593 6.45182C12.0981 6.45182 12.5368 6.45182 12.9741 6.45182C13.0376 6.45182 13.1012 6.45182 13.1648 6.45182C13.0609 6.34794 12.9586 6.24561 12.8547 6.14173C12.8578 6.34329 12.8609 6.54485 12.864 6.74641C12.8717 7.23015 12.8795 7.71389 12.8872 8.19762C12.8965 8.78369 12.9059 9.36821 12.9152 9.95428C12.9229 10.4597 12.9322 10.9667 12.94 11.4722C12.9446 11.7171 12.9415 11.9637 12.9524 12.2086C12.9524 12.2117 12.9524 12.2164 12.9524 12.2195C12.9555 12.3823 13.0935 12.5373 13.2625 12.5296C13.4284 12.5218 13.5756 12.3931 13.5725 12.2195C13.5694 12.0179 13.5663 11.8164 13.5632 11.6148C13.5555 11.1311 13.5477 10.6473 13.54 10.1636C13.5307 9.57752 13.5214 8.993 13.5121 8.40693C13.5043 7.90149 13.495 7.39449 13.4873 6.88905C13.4826 6.64408 13.4857 6.39756 13.4749 6.15258C13.4749 6.14948 13.4749 6.14483 13.4749 6.14173C13.4718 5.97428 13.3353 5.83164 13.1648 5.83164C12.726 5.83164 12.2872 5.83164 11.85 5.83164C11.7864 5.83164 11.7229 5.83164 11.6593 5.83164C11.4903 5.83164 11.3523 5.97428 11.3492 6.14173C11.3461 6.34329 11.343 6.54485 11.3399 6.74641C11.3321 7.23015 11.3244 7.71389 11.3166 8.19762C11.3073 8.78369 11.298 9.36821 11.2887 9.95428C11.281 10.4597 11.2717 10.9667 11.2639 11.4722C11.2593 11.7171 11.2484 11.9637 11.2515 12.2086C11.2515 12.2117 11.2515 12.2164 11.2515 12.2195C11.2484 12.3869 11.3957 12.5296 11.5616 12.5296C12.0578 12.5296 12.5539 12.5296 13.0516 12.5296C13.1229 12.5296 13.1942 12.5296 13.264 12.5296C13.4268 12.5296 13.5818 12.3869 13.5741 12.2195C13.5679 12.0505 13.4392 11.9094 13.264 11.9094Z" fill="#7C7C7C"/>
<path d="M9.82495 12.2179H8.12256L8.22179 6.15569H9.72727L9.82495 12.2179Z" fill="#7C7C7C"/>
<path d="M9.82504 11.9094C9.3289 11.9094 8.83275 11.9094 8.33506 11.9094C8.26374 11.9094 8.19242 11.9094 8.12265 11.9094C8.22653 12.0133 8.32886 12.1156 8.43274 12.2195C8.43584 12.0195 8.43894 11.8179 8.44204 11.6179C8.44979 11.1357 8.45755 10.6535 8.4653 10.1713C8.4746 9.58838 8.4839 9.00386 8.49321 8.42089C8.50096 7.91545 8.51026 7.41155 8.51801 6.90611C8.52266 6.66114 8.53662 6.41306 8.53042 6.16654C8.53042 6.16344 8.53042 6.16034 8.53042 6.15569C8.42654 6.25957 8.32421 6.3619 8.22033 6.46578C8.6591 6.46578 9.09788 6.46578 9.53511 6.46578C9.59867 6.46578 9.66224 6.46578 9.72581 6.46578C9.62193 6.3619 9.5196 6.25957 9.41572 6.15569C9.41882 6.3557 9.42192 6.55726 9.42503 6.75726C9.43278 7.23945 9.44053 7.72164 9.44828 8.20383C9.45758 8.7868 9.46689 9.37132 9.47619 9.95429C9.48394 10.4597 9.49324 10.9636 9.501 11.4691C9.50565 11.7156 9.50255 11.9621 9.5134 12.2086C9.5134 12.2117 9.5134 12.2148 9.5134 12.2195C9.5165 12.3823 9.65449 12.5373 9.82349 12.5296C9.98939 12.5218 10.1367 12.3931 10.1336 12.2195C10.1305 12.0195 10.1274 11.8179 10.1243 11.6179C10.1165 11.1357 10.1088 10.6535 10.101 10.1713C10.0917 9.58838 10.0824 9.00386 10.0731 8.42089C10.0654 7.91545 10.0561 7.41155 10.0483 6.90611C10.0437 6.65958 10.0468 6.41306 10.0359 6.16654C10.0359 6.16344 10.0359 6.16034 10.0359 6.15569C10.0328 5.98824 9.89636 5.8456 9.72581 5.8456C9.28703 5.8456 8.84826 5.8456 8.41103 5.8456C8.34746 5.8456 8.2839 5.8456 8.22033 5.8456C8.05133 5.8456 7.91334 5.98824 7.91024 6.15569C7.90714 6.3557 7.90404 6.55726 7.90093 6.75726C7.89318 7.23945 7.88543 7.72164 7.87768 8.20383C7.86838 8.7868 7.85907 9.37132 7.84977 9.95429C7.84202 10.4597 7.83272 10.9636 7.82496 11.4691C7.82031 11.7156 7.80946 11.9621 7.81256 12.2086C7.81256 12.2117 7.81256 12.2148 7.81256 12.2195C7.80946 12.3869 7.95675 12.5296 8.12265 12.5296C8.61879 12.5296 9.11494 12.5296 9.61263 12.5296C9.68395 12.5296 9.75527 12.5296 9.82504 12.5296C9.98784 12.5296 10.1429 12.3869 10.1351 12.2195C10.1274 12.0505 9.99869 11.9094 9.82504 11.9094Z" fill="#7C7C7C"/>
</svg>
