<svg width="12" height="15" viewBox="0 0 12 15" fill="none" xmlns="http://www.w3.org/2000/svg">
<path d="M9.92974 1.29086L8.8722 0.303223L7.70527 1.29086L6.6295 0.303223L5.62667 1.29086L4.61168 0.303223L3.4964 1.33948L2.42975 0.303223L1.26282 1.29086L0.311646 0.303223V14.197L1.31144 13.1668L2.42671 14.197L3.54199 13.1668L4.60864 14.197L5.6996 13.2671L6.84222 14.197L7.80555 13.2155L8.92082 14.197L9.93581 13.2155L11.0876 14.197V0.303223L9.92974 1.29086ZM9.05453 10.6962C8.94817 10.8026 8.80231 10.8664 8.64124 10.8664H2.75795C2.43583 10.8664 2.17449 10.6051 2.17449 10.2829C2.17449 10.1219 2.24134 9.97601 2.34466 9.86965C2.45103 9.76329 2.59689 9.69947 2.75795 9.69947H8.64429C8.96641 9.69947 9.22775 9.96082 9.22775 10.2829C9.22775 10.444 9.1609 10.5899 9.05453 10.6962ZM9.05453 8.75134C8.94817 8.8577 8.80231 8.92152 8.64124 8.92152H2.75795C2.43583 8.92152 2.17449 8.66017 2.17449 8.33805C2.17449 8.17699 2.24134 8.03112 2.34466 7.92476C2.45103 7.8184 2.59689 7.75458 2.75795 7.75458H8.64429C8.96641 7.75458 9.22775 8.01593 9.22775 8.33805C9.22775 8.49911 9.1609 8.64498 9.05453 8.75134ZM9.05453 6.75783C8.94817 6.86419 8.80231 6.92801 8.64124 6.92801H2.75795C2.43583 6.92801 2.17449 6.66666 2.17449 6.34454C2.17449 6.18348 2.24134 6.03761 2.34466 5.93125C2.45103 5.82489 2.59689 5.76107 2.75795 5.76107H8.64429C8.96641 5.76107 9.22775 6.02242 9.22775 6.34454C9.22775 6.5056 9.1609 6.65147 9.05453 6.75783ZM9.05453 4.82509C8.94817 4.93145 8.80231 4.99527 8.64124 4.99527H2.75795C2.43583 4.99527 2.17449 4.73393 2.17449 4.4118C2.17449 4.25074 2.24134 4.10488 2.34466 3.99851C2.45103 3.89215 2.59689 3.82834 2.75795 3.82834H8.64429C8.96641 3.82834 9.22775 4.08968 9.22775 4.4118C9.22775 4.57286 9.1609 4.71873 9.05453 4.82509Z" fill="#7C7C7C"/>
<path d="M8.84184 4.60935C8.74764 4.69747 8.64432 4.6914 8.5258 4.6914C8.37385 4.6914 8.22495 4.6914 8.073 4.6914C7.54728 4.6914 7.02155 4.6914 6.49582 4.6914C5.38359 4.6914 4.27135 4.6914 3.15912 4.6914C2.93424 4.6914 2.52095 4.76129 2.47841 4.45436C2.42371 4.05627 2.9464 4.13224 3.18343 4.13224C4.30782 4.13224 5.42917 4.13224 6.55356 4.13224C7.07017 4.13224 7.58374 4.13224 8.10035 4.13224C8.24622 4.13224 8.39209 4.13224 8.53795 4.13224C8.65039 4.13224 8.75675 4.1292 8.8388 4.21429C8.9482 4.32673 8.9482 4.49691 8.84184 4.60935C8.57746 4.895 9.00594 5.32652 9.27033 5.03783C9.67146 4.60631 9.58637 3.87697 9.03329 3.61563C8.86312 3.53662 8.69294 3.52446 8.5106 3.52446C8.08212 3.52446 7.65364 3.52446 7.22515 3.52446C5.97313 3.52446 4.71807 3.52446 3.46605 3.52446C3.28371 3.52446 3.10442 3.52446 2.92208 3.52446C2.77622 3.52446 2.63339 3.52142 2.4936 3.56397C1.90406 3.74934 1.68829 4.48475 2.06816 4.9649C2.25353 5.19889 2.52399 5.29917 2.81572 5.29917C3.84287 5.30221 4.87001 5.29917 5.89716 5.29917C6.80883 5.29917 7.72657 5.32652 8.64128 5.29917C8.88439 5.2931 9.09407 5.20497 9.27337 5.03783C9.55902 4.77345 9.1275 4.34496 8.84184 4.60935Z" fill="#7C7C7C"/>
<path d="M8.84184 6.54158C8.74764 6.62971 8.64432 6.62363 8.5258 6.62363C8.37385 6.62363 8.22495 6.62363 8.073 6.62363C7.54728 6.62363 7.02155 6.62363 6.49582 6.62363C5.38359 6.62363 4.27135 6.62363 3.15912 6.62363C2.93424 6.62363 2.52095 6.69353 2.47841 6.3866C2.42371 5.98851 2.9464 6.06448 3.18343 6.06448C4.30782 6.06448 5.42917 6.06448 6.55356 6.06448C7.07017 6.06448 7.58374 6.06448 8.10035 6.06448C8.24622 6.06448 8.39209 6.06448 8.53795 6.06448C8.65039 6.06448 8.75372 6.06144 8.8388 6.14653C8.95124 6.25593 8.9482 6.42611 8.84184 6.54158C8.57746 6.82724 9.00594 7.25876 9.27033 6.97007C9.67146 6.53854 9.58941 5.80921 9.03329 5.54483C8.86312 5.46582 8.69294 5.45366 8.5106 5.45366C8.08212 5.45366 7.65364 5.45366 7.22515 5.45366C5.97313 5.45366 4.71807 5.45366 3.46605 5.45366C3.28371 5.45366 3.10442 5.45366 2.92208 5.45366C2.77622 5.45366 2.63339 5.45062 2.4936 5.49317C1.90406 5.67854 1.68829 6.41395 2.06816 6.89409C2.25353 7.12809 2.52399 7.22837 2.81572 7.22837C3.84287 7.23141 4.87001 7.22837 5.89716 7.22837C6.80883 7.22837 7.72657 7.25572 8.64128 7.22837C8.88439 7.2223 9.09407 7.13417 9.27337 6.97007C9.55902 6.70568 9.1275 6.2772 8.84184 6.54158Z" fill="#7C7C7C"/>
<path d="M8.84184 8.53513C8.74764 8.62326 8.64432 8.61718 8.5258 8.61718C8.37385 8.61718 8.22495 8.61718 8.073 8.61718C7.54728 8.61718 7.02155 8.61718 6.49582 8.61718C5.38359 8.61718 4.27135 8.61718 3.15912 8.61718C2.93424 8.61718 2.52095 8.68707 2.47841 8.38014C2.42371 7.98205 2.9464 8.05802 3.18343 8.05802C4.30782 8.05802 5.42917 8.05802 6.55356 8.05802C7.07017 8.05802 7.58374 8.05802 8.10035 8.05802C8.24622 8.05802 8.39209 8.05802 8.53795 8.05802C8.65039 8.05802 8.75675 8.05498 8.8388 8.14007C8.9482 8.25251 8.9482 8.42269 8.84184 8.53513C8.57746 8.82078 9.00594 9.2523 9.27033 8.96361C9.67146 8.53209 9.58941 7.80275 9.03329 7.54141C8.86312 7.4624 8.69294 7.45024 8.5106 7.45024C8.08212 7.45024 7.65364 7.45024 7.22515 7.45024C5.97313 7.45024 4.71807 7.45024 3.46605 7.45024C3.28371 7.45024 3.10442 7.45024 2.92208 7.45024C2.77622 7.45024 2.63339 7.4472 2.4936 7.48975C1.90406 7.67512 1.68829 8.41053 2.06816 8.89068C2.25353 9.12467 2.52399 9.22192 2.81572 9.22495C3.84287 9.22799 4.87001 9.22495 5.89716 9.22495C6.80883 9.22495 7.72657 9.2523 8.64128 9.22495C8.88439 9.21888 9.09407 9.13075 9.27337 8.96665C9.55902 8.69923 9.1275 8.27074 8.84184 8.53513Z" fill="#7C7C7C"/>
<path d="M8.84184 10.4804C8.74764 10.5686 8.64432 10.5625 8.5258 10.5625C8.37385 10.5625 8.22495 10.5625 8.073 10.5625C7.54728 10.5625 7.02155 10.5625 6.49582 10.5625C5.38359 10.5625 4.27135 10.5625 3.15912 10.5625C2.93424 10.5625 2.52095 10.6324 2.47841 10.3255C2.42371 9.92736 2.9464 10.0033 3.18343 10.0033C4.30782 10.0033 5.42917 10.0033 6.55356 10.0033C7.07017 10.0033 7.58374 10.0033 8.10035 10.0033C8.24622 10.0033 8.39209 10.0033 8.53795 10.0033C8.65039 10.0033 8.75675 10.0003 8.8388 10.0854C8.9482 10.1978 8.9482 10.368 8.84184 10.4804C8.57746 10.7661 9.00594 11.1976 9.27033 10.9089C9.67146 10.4774 9.58941 9.74807 9.03329 9.48672C8.86312 9.40771 8.69294 9.39556 8.5106 9.39556C8.08212 9.39556 7.65364 9.39556 7.22515 9.39556C5.97313 9.39556 4.71807 9.39556 3.46605 9.39556C3.28371 9.39556 3.10442 9.39556 2.92208 9.39556C2.77622 9.39556 2.63339 9.39252 2.4936 9.43506C1.90406 9.62043 1.68829 10.3558 2.06816 10.836C2.25353 11.07 2.52399 11.1672 2.81572 11.1703C3.84287 11.1733 4.87001 11.1703 5.89716 11.1703C6.80883 11.1703 7.72657 11.1976 8.64128 11.1703C8.88439 11.1642 9.09407 11.0761 9.27337 10.912C9.55902 10.6445 9.1275 10.2161 8.84184 10.4804Z" fill="#7C7C7C"/>
<path d="M10.1455 1.07509C9.79299 0.746885 9.44048 0.418685 9.08797 0.0874459C8.96034 -0.0310709 8.78712 -0.0219542 8.65949 0.0874459C8.27051 0.415646 7.88153 0.743846 7.49255 1.07509C7.63538 1.07509 7.77821 1.07509 7.92104 1.07509C7.56245 0.746885 7.20386 0.418685 6.84527 0.0874459C6.72372 -0.0249931 6.53834 -0.0310709 6.41679 0.0874459C6.08251 0.415646 5.74823 0.743846 5.41395 1.07509C5.55678 1.07509 5.69961 1.07509 5.84244 1.07509C5.50512 0.746885 5.16476 0.418685 4.82745 0.0874459C4.70589 -0.0310709 4.52052 -0.0249931 4.39896 0.0874459C4.02822 0.433879 3.65444 0.780313 3.28369 1.12371C3.42652 1.12371 3.56935 1.12371 3.71217 1.12371C3.35662 0.777274 3.00107 0.430841 2.64552 0.0874459C2.52093 -0.0341097 2.34163 -0.0189153 2.21704 0.0874459C1.82806 0.415646 1.43908 0.743846 1.05011 1.07509C1.19293 1.07509 1.33576 1.07509 1.47859 1.07509C1.16254 0.746885 0.8465 0.418685 0.530455 0.0874459C0.348122 -0.104004 0.0108049 0.0418625 0.0108049 0.303207C0.0108049 0.765119 0.0108049 1.22399 0.0108049 1.6859C0.0108049 2.79206 0.0108049 3.90125 0.0108049 5.00741C0.0108049 6.34756 0.0108049 7.68467 0.0108049 9.02482C0.0108049 10.1766 0.0108049 11.3313 0.0108049 12.4831C0.0108049 13.0453 -0.0135062 13.6105 0.0108049 14.1727C0.0108049 14.1818 0.0108049 14.1879 0.0108049 14.197C0.0108049 14.4584 0.345083 14.6012 0.530455 14.4128C0.864733 14.0694 1.19597 13.726 1.53025 13.3826C1.38742 13.3826 1.24459 13.3826 1.10177 13.3826C1.47251 13.726 1.84629 14.0694 2.21704 14.4128C2.34163 14.5283 2.52093 14.5283 2.64552 14.4128C3.01627 14.0694 3.39005 13.726 3.7608 13.3826C3.61797 13.3826 3.47514 13.3826 3.33231 13.3826C3.68786 13.726 4.04341 14.0694 4.39896 14.4128C4.52356 14.5343 4.70285 14.5222 4.82745 14.4128C5.19211 14.1028 5.55374 13.7928 5.91841 13.4829C5.77558 13.4829 5.63275 13.4829 5.48993 13.4829C5.86979 13.7928 6.25269 14.1028 6.63255 14.4128C6.76018 14.5161 6.93644 14.5404 7.06103 14.4128C7.38315 14.0846 7.70528 13.7594 8.02436 13.4312C7.88153 13.4312 7.7387 13.4312 7.59588 13.4312C7.96662 13.7594 8.3404 14.0846 8.71115 14.4128C8.83574 14.5222 9.01504 14.5343 9.13963 14.4128C9.47695 14.0846 9.81731 13.7594 10.1546 13.4312C10.0118 13.4312 9.86897 13.4312 9.72614 13.4312C10.109 13.7594 10.495 14.0846 10.8779 14.4128C11.0724 14.5769 11.3975 14.4766 11.3975 14.197C11.3975 13.7351 11.3975 13.2762 11.3975 12.8143C11.3975 11.7082 11.3975 10.599 11.3975 9.49281C11.3975 8.15266 11.3975 6.81555 11.3975 5.4754C11.3975 4.32366 11.3975 3.16888 11.3975 2.01714C11.3975 1.45495 11.4218 0.889713 11.3975 0.327518C11.3975 0.318402 11.3975 0.312324 11.3975 0.303207C11.3975 0.0236292 11.0724 -0.0766542 10.8779 0.0874459C10.4919 0.415646 10.106 0.743846 9.71702 1.07509C9.59243 1.18145 9.60762 1.39417 9.71702 1.50357C9.84162 1.62816 10.0209 1.60993 10.1455 1.50357C10.5314 1.17537 10.9174 0.847169 11.3064 0.515929C11.1331 0.442996 10.9599 0.373102 10.7867 0.300168C10.7867 0.76208 10.7867 1.22095 10.7867 1.68286C10.7867 2.78902 10.7867 3.89822 10.7867 5.00437C10.7867 6.34452 10.7867 7.68163 10.7867 9.02178C10.7867 10.1735 10.7867 11.3283 10.7867 12.48C10.7867 12.8629 10.7867 13.2428 10.7867 13.6257C10.7867 13.805 10.7715 13.9904 10.7867 14.1697C10.7867 14.1788 10.7867 14.1849 10.7867 14.194C10.9599 14.121 11.1331 14.0511 11.3064 13.9782C10.9235 13.65 10.5375 13.3249 10.1546 12.9967C10.027 12.8903 9.85073 12.8751 9.72614 12.9967C9.38882 13.3249 9.04847 13.65 8.71115 13.9782C8.85398 13.9782 8.99681 13.9782 9.13963 13.9782C8.76889 13.65 8.3951 13.3249 8.02436 12.9967C7.9028 12.8903 7.71439 12.8721 7.59588 12.9967C7.27375 13.3249 6.95163 13.65 6.63255 13.9782C6.77538 13.9782 6.9182 13.9782 7.06103 13.9782C6.68117 13.6682 6.29827 13.3583 5.91841 13.0483C5.78166 12.9389 5.62364 12.9328 5.48993 13.0483C5.12222 13.3613 4.75755 13.6713 4.39289 13.9813C4.53571 13.9813 4.67854 13.9813 4.82137 13.9813C4.46582 13.6379 4.11027 13.2945 3.75472 12.9511C3.63316 12.8326 3.44779 12.8386 3.32623 12.9511C2.95549 13.2945 2.58171 13.6379 2.21096 13.9813C2.35379 13.9813 2.49662 13.9813 2.63945 13.9813C2.2687 13.6379 1.89492 13.2945 1.52417 12.9511C1.40566 12.8417 1.21117 12.8295 1.09569 12.9511C0.761411 13.2945 0.430172 13.6379 0.0958939 13.9813C0.269111 14.0542 0.442327 14.1241 0.615544 14.197C0.615544 13.7351 0.615544 13.2762 0.615544 12.8143C0.615544 11.7082 0.615544 10.599 0.615544 9.49281C0.615544 8.15266 0.615544 6.81555 0.615544 5.4754C0.615544 4.32366 0.615544 3.16888 0.615544 2.01714C0.615544 1.63424 0.615544 1.25438 0.615544 0.87148C0.615544 0.692185 0.630739 0.506813 0.615544 0.327518C0.615544 0.318402 0.615544 0.312324 0.615544 0.303207C0.442327 0.376141 0.269111 0.446035 0.0958939 0.518968C0.411938 0.847169 0.727983 1.17841 1.04403 1.50661C1.16558 1.6312 1.35096 1.60993 1.47251 1.50661C1.86149 1.17841 2.25047 0.850207 2.63945 0.518968C2.49662 0.518968 2.35379 0.518968 2.21096 0.518968C2.56651 0.865402 2.92206 1.21184 3.27761 1.55523C3.39917 1.67375 3.58454 1.66767 3.7061 1.55523C4.07684 1.2088 4.45062 0.862363 4.82137 0.518968C4.67854 0.518968 4.53571 0.518968 4.39289 0.518968C4.7302 0.847169 5.07056 1.17537 5.40788 1.50661C5.52639 1.62209 5.71784 1.62209 5.83636 1.50661C6.17064 1.17841 6.50491 0.850207 6.83919 0.518968C6.69636 0.518968 6.55354 0.518968 6.41071 0.518968C6.7693 0.847169 7.12789 1.17537 7.48648 1.50661C7.61411 1.62512 7.78733 1.61601 7.91496 1.50661C8.30394 1.17841 8.69291 0.850207 9.08189 0.518968C8.93907 0.518968 8.79624 0.518968 8.65341 0.518968C9.00592 0.847169 9.35843 1.17537 9.71094 1.50661C9.99964 1.77403 10.4312 1.34555 10.1455 1.07509Z" fill="#7C7C7C"/>
</svg>
