<svg width="588" height="547" viewBox="0 0 588 547" fill="none" xmlns="http://www.w3.org/2000/svg">
<g clip-path="url(#clip0_470_2633)">
<path opacity="0.6" d="M0.00813589 544.051C0.00813589 545.676 1.33426 547 3.44954 547H487.931C490.038 547 491.746 545.676 491.746 544.051C491.746 542.426 490.038 541.102 487.931 541.102H3.4414C1.33426 541.102 0 542.426 0 544.051H0.00813589Z" fill="#A1A3B2"/>
<path d="M4.77547 508.674C4.66342 508.675 4.55153 508.664 4.44191 508.641C4.23238 508.598 4.0335 508.513 3.85666 508.393C3.67983 508.273 3.52851 508.119 3.41137 507.94C3.29423 507.761 3.21358 507.561 3.17403 507.351C3.13447 507.141 3.1368 506.925 3.18087 506.716C3.18087 506.716 3.44935 505.424 3.99444 503.109C4.0937 502.689 4.35603 502.325 4.72374 502.098C5.09144 501.871 5.53439 501.8 5.95515 501.899C6.37591 501.998 6.74 502.26 6.96734 502.627C7.19467 502.994 7.26662 503.436 7.16737 503.856C6.63855 506.115 6.37007 507.382 6.37007 507.39C6.29243 507.755 6.09175 508.082 5.80155 508.318C5.51134 508.553 5.14916 508.681 4.77547 508.682V508.674Z" fill="#A7A9AC"/>
<path d="M8.4448 493.727C8.30183 493.727 8.15947 493.708 8.02174 493.67C7.60477 493.558 7.24914 493.286 7.03264 492.913C6.81613 492.54 6.75639 492.096 6.86647 491.679C7.46851 489.429 8.1031 487.138 8.75395 484.856C8.87689 484.445 9.15699 484.099 9.53358 483.893C9.91018 483.687 10.3529 483.637 10.766 483.754C11.179 483.872 11.529 484.147 11.7402 484.521C11.9514 484.894 12.0068 485.335 11.8943 485.749C11.2435 488.016 10.617 490.29 10.0231 492.524C9.93164 492.871 9.72808 493.177 9.44411 493.396C9.16014 493.615 8.81168 493.734 8.45293 493.735L8.4448 493.727ZM13.7167 475.668C13.5513 475.668 13.3868 475.643 13.2286 475.595C12.8174 475.464 12.4745 475.177 12.2748 474.795C12.0752 474.413 12.0349 473.968 12.1628 473.556C12.8788 471.306 13.611 469.039 14.3595 466.822C14.4278 466.619 14.5355 466.432 14.6764 466.271C14.8172 466.109 14.9885 465.978 15.1804 465.883C15.5679 465.691 16.016 465.66 16.4259 465.798C16.6289 465.866 16.8165 465.974 16.9778 466.115C17.1392 466.255 17.2713 466.426 17.3665 466.618C17.4616 466.809 17.5181 467.018 17.5326 467.231C17.5471 467.445 17.5194 467.659 17.451 467.861C16.7107 470.063 15.9785 472.313 15.2707 474.539C15.1656 474.868 14.9585 475.156 14.6792 475.36C14.4 475.565 14.063 475.675 13.7167 475.676V475.668ZM19.8266 457.886C19.6319 457.886 19.4388 457.851 19.2571 457.78C18.8522 457.629 18.5238 457.323 18.3439 456.93C18.164 456.537 18.1472 456.09 18.2971 455.684C19.1351 453.442 19.9894 451.225 20.8436 449.072C20.9227 448.874 21.0401 448.693 21.1892 448.539C21.3383 448.386 21.5161 448.264 21.7125 448.18C21.909 448.095 22.1201 448.05 22.334 448.047C22.5478 448.044 22.7602 448.083 22.9589 448.162C23.1576 448.241 23.3388 448.358 23.4922 448.507C23.6455 448.656 23.768 448.834 23.8526 449.03C23.9372 449.226 23.9823 449.437 23.9853 449.65C23.9883 449.864 23.9492 450.076 23.8701 450.274C23.024 452.403 22.1779 454.604 21.348 456.822C21.233 457.134 21.0246 457.404 20.751 457.594C20.4775 457.784 20.1519 457.886 19.8185 457.886H19.8266ZM26.921 440.477C26.6918 440.475 26.4653 440.428 26.2539 440.339C25.8594 440.162 25.5514 439.836 25.3973 439.432C25.2433 439.029 25.2558 438.581 25.4321 438.187C26.4166 435.985 27.4254 433.824 28.4261 431.745C28.621 431.369 28.955 431.084 29.357 430.951C29.7591 430.817 30.1974 430.845 30.5789 431.029C30.9604 431.213 31.2549 431.539 31.3998 431.936C31.5447 432.334 31.5286 432.772 31.3549 433.158C30.3705 435.205 29.3698 437.342 28.4017 439.511C28.2734 439.798 28.0646 440.042 27.8004 440.214C27.5362 440.385 27.228 440.477 26.9128 440.477H26.921ZM137.453 429.202C137.145 429.202 136.843 429.115 136.583 428.951C136.322 428.787 136.113 428.553 135.98 428.276C134.971 426.18 133.897 424.092 132.791 422.086C132.583 421.708 132.533 421.263 132.654 420.848C132.775 420.434 133.055 420.084 133.434 419.876C133.812 419.668 134.258 419.619 134.673 419.74C135.088 419.86 135.438 420.14 135.647 420.518C136.777 422.581 137.884 424.718 138.917 426.871C139.01 427.063 139.063 427.272 139.075 427.485C139.087 427.698 139.056 427.912 138.985 428.113C138.914 428.315 138.804 428.5 138.661 428.659C138.518 428.818 138.345 428.947 138.152 429.04C137.931 429.145 137.69 429.2 137.445 429.202H137.453ZM35.3008 423.654C35.0174 423.654 34.739 423.58 34.493 423.44C34.247 423.3 34.0419 423.097 33.8981 422.854C33.7543 422.61 33.6767 422.333 33.673 422.05C33.6693 421.767 33.7396 421.488 33.877 421.241C35.0648 419.113 36.277 417.049 37.4811 415.1C37.7088 414.732 38.0732 414.47 38.4943 414.371C38.9154 414.272 39.3587 414.344 39.7266 414.572C40.0945 414.799 40.3569 415.163 40.456 415.583C40.5552 416.004 40.483 416.446 40.2554 416.814C39.0757 418.723 37.8879 420.746 36.7245 422.833C36.5836 423.087 36.3773 423.298 36.1269 423.445C35.8765 423.593 35.5913 423.67 35.3008 423.67V423.654ZM128.048 412.947C127.784 412.947 127.525 412.883 127.291 412.762C127.057 412.64 126.856 412.464 126.705 412.248C125.363 410.315 123.956 408.455 122.54 406.708C122.405 406.542 122.304 406.351 122.242 406.147C122.181 405.942 122.161 405.727 122.183 405.514C122.227 405.084 122.44 404.69 122.776 404.417C123.111 404.145 123.542 404.017 123.972 404.061C124.402 404.105 124.797 404.318 125.07 404.653C126.535 406.456 127.983 408.382 129.382 410.38C129.552 410.624 129.652 410.91 129.671 411.206C129.69 411.503 129.627 411.799 129.49 412.062C129.352 412.326 129.145 412.547 128.891 412.701C128.637 412.856 128.345 412.938 128.048 412.939V412.947ZM45.4704 407.854C45.1681 407.854 44.8718 407.77 44.6148 407.611C44.3578 407.452 44.1504 407.225 44.0159 406.955C43.8814 406.684 43.8252 406.382 43.8537 406.081C43.8821 405.781 43.994 405.494 44.1768 405.254C45.6575 403.288 47.1789 401.412 48.6921 399.69C48.9796 399.374 49.3796 399.183 49.8062 399.159C50.2328 399.134 50.652 399.278 50.9738 399.559C51.2955 399.84 51.4941 400.235 51.5268 400.661C51.5596 401.086 51.424 401.507 51.1491 401.834C49.6928 403.499 48.2203 405.311 46.7802 407.212C46.6287 407.414 46.4321 407.577 46.2062 407.69C45.9803 407.803 45.7311 407.862 45.4785 407.862L45.4704 407.854ZM115.763 398.772C115.359 398.773 114.97 398.622 114.673 398.349C112.976 396.81 111.197 395.365 109.344 394.019C108.993 393.766 108.758 393.384 108.689 392.958C108.62 392.531 108.724 392.095 108.978 391.745C109.231 391.395 109.614 391.16 110.041 391.091C110.468 391.022 110.905 391.126 111.256 391.379C113.211 392.792 115.086 394.313 116.869 395.937C117.115 396.156 117.288 396.445 117.366 396.766C117.443 397.086 117.421 397.422 117.303 397.729C117.185 398.037 116.976 398.301 116.704 398.487C116.431 398.673 116.109 398.773 115.779 398.772H115.763ZM58.3167 394.198C58.0747 394.199 57.8356 394.146 57.6172 394.042C57.3989 393.938 57.2069 393.786 57.0556 393.597C56.92 393.431 56.8185 393.24 56.757 393.036C56.6954 392.831 56.675 392.615 56.6969 392.403C56.7188 392.19 56.7826 391.983 56.8847 391.795C56.9868 391.607 57.125 391.441 57.2916 391.306C59.1694 389.773 61.1541 388.375 63.2306 387.123C63.4139 387.012 63.6171 386.939 63.8287 386.907C64.0403 386.875 64.2561 386.885 64.4639 386.936C64.6716 386.987 64.8672 387.079 65.0395 387.206C65.2118 387.333 65.3574 387.492 65.468 387.675C65.5785 387.858 65.6519 388.061 65.684 388.272C65.716 388.483 65.7061 388.699 65.6547 388.906C65.6033 389.114 65.5115 389.309 65.3846 389.481C65.2576 389.653 65.098 389.799 64.9147 389.909C62.9711 391.087 61.1117 392.398 59.3499 393.833C59.0602 394.068 58.6983 394.197 58.3248 394.198H58.3167ZM100.094 388.544C99.8753 388.545 99.6592 388.501 99.4589 388.414C97.3727 387.525 95.2213 386.798 93.0236 386.237C92.605 386.129 92.2464 385.86 92.0267 385.488C91.807 385.117 91.7442 384.673 91.852 384.255C91.9599 383.837 92.2297 383.479 92.602 383.26C92.9743 383.04 93.4186 382.977 93.8372 383.085C96.1918 383.69 98.4979 384.469 100.736 385.417C101.082 385.564 101.366 385.825 101.541 386.157C101.716 386.489 101.771 386.871 101.696 387.239C101.622 387.607 101.422 387.937 101.132 388.175C100.841 388.413 100.477 388.543 100.102 388.544H100.094ZM74.8484 385.685C74.448 385.686 74.0612 385.539 73.7621 385.274C73.4629 385.008 73.2725 384.641 73.2272 384.244C73.1818 383.847 73.2848 383.447 73.5164 383.12C73.748 382.794 74.0919 382.565 74.4823 382.476C76.8816 381.923 79.3342 381.635 81.7963 381.615H81.8045C82.236 381.614 82.6503 381.784 82.9562 382.088C83.2621 382.392 83.4346 382.805 83.4357 383.236C83.4367 383.666 83.2663 384.08 82.962 384.386C82.6576 384.691 82.2441 384.863 81.8126 384.864C79.5891 384.883 77.3741 385.142 75.2064 385.636C75.0867 385.666 74.9636 385.679 74.8403 385.677L74.8484 385.685Z" fill="#A7A9AC"/>
<path d="M143.229 443.418H143.221C142.873 443.418 142.535 443.305 142.256 443.097C141.978 442.89 141.774 442.597 141.675 442.265C141.675 442.248 141.285 440.997 140.512 438.893C140.38 438.542 140.375 438.156 140.496 437.801C140.618 437.446 140.858 437.144 141.177 436.946C141.496 436.748 141.874 436.666 142.247 436.714C142.619 436.763 142.963 436.939 143.221 437.212C143.476 436.938 143.817 436.76 144.188 436.709C144.559 436.657 144.936 436.735 145.256 436.928C145.576 437.122 145.82 437.42 145.945 437.772C146.071 438.124 146.072 438.509 145.946 438.861C145.182 441.038 144.791 442.273 144.791 442.281C144.686 442.61 144.479 442.898 144.2 443.102C143.921 443.307 143.584 443.417 143.237 443.418H143.229Z" fill="#A7A9AC"/>
<path d="M148.607 428.674C148.404 428.672 148.202 428.633 148.013 428.56C147.611 428.401 147.289 428.089 147.117 427.693C146.945 427.298 146.936 426.85 147.093 426.448C147.98 424.198 148.908 421.94 149.835 419.714C150.002 419.316 150.321 419.001 150.721 418.838C151.12 418.675 151.569 418.678 151.967 418.845C152.365 419.012 152.68 419.33 152.844 419.729C153.007 420.128 153.005 420.575 152.837 420.973C151.91 423.174 150.999 425.416 150.12 427.634C150.001 427.938 149.793 428.199 149.523 428.383C149.253 428.567 148.934 428.666 148.607 428.666V428.674ZM156.222 410.957C155.985 410.957 155.752 410.904 155.538 410.802C155.344 410.712 155.17 410.585 155.025 410.428C154.88 410.27 154.768 410.086 154.695 409.885C154.622 409.685 154.589 409.472 154.598 409.258C154.607 409.045 154.659 408.835 154.749 408.642C155.774 406.44 156.84 404.231 157.898 402.086C158.089 401.699 158.426 401.404 158.835 401.265C159.243 401.127 159.691 401.156 160.078 401.347C160.465 401.537 160.761 401.874 160.9 402.282C161.039 402.69 161.009 403.137 160.818 403.524C159.769 405.644 158.719 407.821 157.702 410.006C157.572 410.288 157.363 410.527 157.1 410.694C156.838 410.861 156.533 410.949 156.222 410.949V410.957ZM164.96 393.768C164.676 393.768 164.398 393.694 164.152 393.554C163.906 393.413 163.701 393.211 163.557 392.968C163.413 392.724 163.335 392.447 163.332 392.164C163.328 391.881 163.398 391.602 163.536 391.355C164.74 389.186 165.96 387.066 167.172 385.043C167.282 384.859 167.428 384.699 167.6 384.572C167.772 384.444 167.967 384.352 168.175 384.3C168.383 384.248 168.599 384.237 168.81 384.269C169.022 384.3 169.226 384.373 169.41 384.482C169.594 384.592 169.754 384.737 169.881 384.909C170.009 385.081 170.102 385.276 170.154 385.483C170.206 385.691 170.217 385.906 170.185 386.118C170.154 386.33 170.081 386.533 169.971 386.716C168.775 388.707 167.571 390.802 166.383 392.939C166.242 393.193 166.036 393.404 165.786 393.551C165.535 393.698 165.25 393.776 164.96 393.776V393.768ZM280.779 393.67C280.473 393.671 280.173 393.586 279.914 393.423C279.654 393.261 279.447 393.028 279.315 392.752C278.257 390.591 277.159 388.447 276.036 386.383C275.831 386.004 275.786 385.559 275.909 385.146C276.033 384.733 276.316 384.387 276.695 384.182C277.075 383.977 277.521 383.932 277.934 384.055C278.348 384.178 278.695 384.461 278.9 384.84C280.039 386.944 281.162 389.129 282.236 391.331C282.425 391.718 282.453 392.165 282.312 392.574C282.172 392.982 281.875 393.318 281.487 393.508C281.265 393.617 281.019 393.672 280.771 393.67H280.779ZM175.08 377.35C174.752 377.352 174.431 377.253 174.161 377.066C173.805 376.82 173.562 376.443 173.484 376.018C173.406 375.593 173.5 375.155 173.746 374.799C175.162 372.752 176.602 370.762 178.034 368.885C178.296 368.542 178.684 368.316 179.113 368.258C179.541 368.2 179.976 368.315 180.32 368.577C180.664 368.839 180.89 369.226 180.948 369.654C181.006 370.082 180.891 370.516 180.629 370.859C179.23 372.695 177.814 374.645 176.431 376.651C176.281 376.869 176.081 377.047 175.847 377.17C175.613 377.293 175.353 377.357 175.088 377.358L175.08 377.35ZM271.342 376.863C271.068 376.864 270.799 376.796 270.559 376.665C270.318 376.534 270.115 376.345 269.967 376.115C268.649 374.076 267.29 372.094 265.932 370.226C265.806 370.053 265.715 369.857 265.665 369.649C265.614 369.441 265.606 369.226 265.639 369.015C265.672 368.803 265.747 368.601 265.858 368.418C265.97 368.236 266.117 368.077 266.29 367.951C266.463 367.825 266.659 367.735 266.867 367.685C267.075 367.634 267.291 367.626 267.503 367.659C267.714 367.692 267.917 367.767 268.1 367.878C268.283 367.99 268.442 368.136 268.568 368.309C269.967 370.226 271.358 372.257 272.709 374.344C272.825 374.524 272.905 374.725 272.943 374.935C272.982 375.146 272.978 375.362 272.933 375.571C272.887 375.78 272.801 375.978 272.679 376.154C272.557 376.329 272.401 376.479 272.221 376.595C271.959 376.765 271.654 376.855 271.342 376.855V376.863ZM187.08 362.281C186.763 362.281 186.452 362.189 186.186 362.015C185.92 361.842 185.711 361.594 185.584 361.304C185.457 361.013 185.418 360.691 185.471 360.379C185.525 360.066 185.668 359.776 185.885 359.543C187.609 357.699 189.367 355.961 191.108 354.369C191.427 354.078 191.849 353.926 192.281 353.946C192.713 353.965 193.119 354.156 193.41 354.474C193.701 354.793 193.854 355.215 193.834 355.646C193.814 356.077 193.624 356.483 193.304 356.773C191.628 358.309 189.928 359.99 188.26 361.769C188.108 361.933 187.925 362.063 187.72 362.153C187.516 362.242 187.295 362.288 187.072 362.289L187.08 362.281ZM259.651 361.566C259.425 361.566 259.201 361.519 258.994 361.428C258.786 361.337 258.6 361.204 258.447 361.038C256.803 359.251 255.111 357.569 253.427 356.042C253.108 355.751 252.917 355.346 252.897 354.915C252.878 354.484 253.03 354.062 253.321 353.743C253.613 353.424 254.019 353.234 254.451 353.214C254.882 353.195 255.304 353.347 255.624 353.638C257.381 355.23 259.138 356.985 260.847 358.845C261.061 359.077 261.202 359.367 261.254 359.678C261.306 359.99 261.266 360.309 261.139 360.598C261.012 360.888 260.804 361.134 260.54 361.307C260.276 361.48 259.967 361.573 259.651 361.574V361.566ZM201.741 349.844C201.466 349.843 201.195 349.774 200.953 349.642C200.712 349.51 200.507 349.32 200.358 349.089C200.244 348.908 200.166 348.707 200.129 348.497C200.093 348.287 200.098 348.071 200.145 347.863C200.192 347.655 200.279 347.458 200.402 347.284C200.525 347.109 200.682 346.961 200.862 346.847C202.961 345.514 205.152 344.333 207.42 343.313C207.815 343.136 208.264 343.123 208.668 343.277C209.072 343.431 209.399 343.739 209.576 344.133C209.753 344.528 209.765 344.976 209.611 345.38C209.457 345.783 209.149 346.109 208.754 346.286C206.627 347.241 204.571 348.349 202.603 349.6C202.343 349.766 202.041 349.853 201.733 349.852L201.741 349.844ZM244.917 349.227C244.621 349.228 244.331 349.147 244.079 348.991C242.088 347.788 240.011 346.735 237.864 345.839C237.464 345.676 237.147 345.36 236.98 344.963C236.814 344.565 236.813 344.118 236.977 343.719C237.141 343.32 237.457 343.003 237.855 342.837C238.253 342.671 238.701 342.67 239.1 342.834C241.403 343.789 243.63 344.916 245.763 346.205C246.071 346.387 246.31 346.666 246.443 346.997C246.577 347.329 246.597 347.695 246.5 348.04C246.404 348.384 246.197 348.687 245.91 348.901C245.624 349.116 245.275 349.23 244.917 349.227ZM219.623 343.191C219.203 343.198 218.797 343.042 218.489 342.757C218.182 342.472 217.996 342.079 217.972 341.66C217.948 341.241 218.087 340.83 218.36 340.511C218.633 340.192 219.018 339.991 219.436 339.95C220.616 339.812 221.82 339.739 223 339.714C224.325 339.691 225.65 339.737 226.97 339.852C227.395 339.898 227.786 340.108 228.058 340.438C228.33 340.768 228.461 341.191 228.424 341.616C228.387 342.042 228.184 342.436 227.859 342.714C227.533 342.992 227.112 343.131 226.685 343.102C225.476 342.996 224.262 342.955 223.048 342.98C221.966 342.996 220.876 343.069 219.802 343.191C219.737 343.191 219.672 343.199 219.615 343.199L219.623 343.191Z" fill="#A7A9AC"/>
<path d="M286.979 408.04C286.641 408.042 286.311 407.938 286.035 407.742C285.76 407.547 285.552 407.271 285.441 406.952C285.441 406.936 284.994 405.701 284.156 403.605C283.996 403.204 284.002 402.757 284.171 402.36C284.34 401.963 284.659 401.648 285.059 401.485C285.618 401.78 286.243 401.928 286.875 401.915C287.507 401.903 288.125 401.729 288.671 401.412C288.874 401.481 289.061 401.59 289.222 401.732C289.382 401.874 289.513 402.046 289.607 402.238C289.701 402.431 289.755 402.64 289.768 402.853C289.78 403.067 289.751 403.281 289.68 403.483C288.923 405.668 288.533 406.903 288.525 406.911C288.421 407.236 288.217 407.52 287.942 407.722C287.668 407.925 287.337 408.036 286.995 408.04H286.971H286.979Z" fill="#A7A9AC"/>
<path d="M292.487 392.728C292.287 392.728 292.088 392.693 291.901 392.622C291.498 392.467 291.173 392.158 290.997 391.763C290.822 391.369 290.81 390.921 290.965 390.518C291.876 388.154 292.82 385.774 293.78 383.443C293.943 383.043 294.258 382.724 294.657 382.557C294.854 382.474 295.065 382.43 295.279 382.429C295.493 382.428 295.705 382.469 295.904 382.549C296.102 382.63 296.282 382.748 296.434 382.899C296.587 383.049 296.708 383.227 296.791 383.424C296.874 383.621 296.917 383.832 296.919 384.046C296.92 384.26 296.879 384.471 296.799 384.669C295.855 386.985 294.919 389.34 294.008 391.688C293.89 391.995 293.681 392.258 293.409 392.444C293.137 392.629 292.816 392.728 292.487 392.728ZM300.256 374.06C299.984 374.058 299.717 373.989 299.478 373.859C299.24 373.728 299.038 373.54 298.89 373.312C298.742 373.084 298.654 372.823 298.632 372.552C298.611 372.281 298.657 372.01 298.767 371.761C299.817 369.422 300.891 367.098 301.957 364.848C302.142 364.458 302.475 364.158 302.883 364.013C303.29 363.868 303.738 363.891 304.129 364.076C304.519 364.262 304.82 364.594 304.965 365.001C305.11 365.408 305.087 365.855 304.902 366.245C303.844 368.479 302.778 370.778 301.745 373.102C301.617 373.389 301.408 373.633 301.144 373.805C300.88 373.976 300.571 374.068 300.256 374.068V374.06ZM309.084 355.88C308.82 355.881 308.56 355.817 308.327 355.693C307.945 355.49 307.659 355.145 307.531 354.733C307.403 354.321 307.443 353.874 307.643 353.492C308.856 351.193 310.084 348.942 311.305 346.798C311.517 346.422 311.87 346.146 312.287 346.03C312.704 345.914 313.149 345.968 313.526 346.18C313.902 346.393 314.179 346.746 314.295 347.161C314.411 347.577 314.356 348.022 314.144 348.398C312.948 350.518 311.728 352.744 310.532 355.011C310.394 355.273 310.187 355.492 309.933 355.646C309.679 355.799 309.388 355.88 309.092 355.88H309.084ZM418.46 342.046C418.191 342.046 417.927 341.981 417.69 341.855C417.452 341.729 417.25 341.546 417.101 341.323C415.694 339.235 414.238 337.172 412.765 335.198C412.507 334.852 412.397 334.418 412.46 333.991C412.522 333.565 412.752 333.18 413.099 332.923C413.445 332.666 413.879 332.556 414.307 332.618C414.734 332.681 415.119 332.91 415.376 333.256C416.882 335.271 418.37 337.375 419.802 339.511C419.966 339.756 420.061 340.041 420.076 340.335C420.091 340.629 420.025 340.922 419.887 341.182C419.748 341.442 419.541 341.66 419.289 341.812C419.036 341.964 418.747 342.045 418.452 342.046H418.46ZM319.253 338.414C318.96 338.415 318.672 338.336 318.42 338.187C318.168 338.038 317.961 337.823 317.821 337.566C317.681 337.309 317.613 337.019 317.625 336.726C317.636 336.434 317.727 336.15 317.886 335.904C319.31 333.711 320.758 331.583 322.19 329.576C322.314 329.402 322.471 329.254 322.652 329.141C322.833 329.028 323.035 328.951 323.246 328.916C323.457 328.88 323.672 328.887 323.881 328.935C324.089 328.982 324.286 329.071 324.46 329.194C324.634 329.318 324.782 329.475 324.896 329.656C325.009 329.837 325.086 330.038 325.121 330.249C325.157 330.459 325.15 330.674 325.103 330.882C325.055 331.09 324.966 331.287 324.842 331.461C323.435 333.427 322.019 335.514 320.62 337.667C320.472 337.894 320.269 338.081 320.031 338.21C319.792 338.339 319.525 338.407 319.253 338.406V338.414ZM406.086 326.083C405.857 326.084 405.631 326.036 405.422 325.944C405.213 325.852 405.026 325.716 404.873 325.547C403.157 323.654 401.416 321.843 399.683 320.177C399.529 320.029 399.406 319.852 399.32 319.656C399.235 319.46 399.189 319.25 399.186 319.036C399.182 318.823 399.22 318.611 399.298 318.412C399.377 318.213 399.494 318.032 399.642 317.878C399.791 317.725 399.968 317.602 400.164 317.517C400.36 317.432 400.571 317.386 400.785 317.382C400.999 317.378 401.211 317.417 401.41 317.495C401.609 317.573 401.791 317.69 401.944 317.838C403.726 319.552 405.532 321.412 407.29 323.37C407.433 323.529 407.544 323.714 407.615 323.916C407.687 324.117 407.718 324.331 407.707 324.545C407.695 324.758 407.642 324.967 407.549 325.16C407.457 325.353 407.327 325.526 407.168 325.669C406.871 325.942 406.481 326.093 406.077 326.091L406.086 326.083ZM331.335 322.233C330.939 322.235 330.556 322.09 330.261 321.826C329.937 321.541 329.739 321.138 329.712 320.707C329.684 320.276 329.829 319.852 330.114 319.527C331.88 317.521 333.67 315.644 335.435 313.939C335.746 313.639 336.163 313.475 336.595 313.483C337.026 313.49 337.438 313.669 337.737 313.979C338.037 314.289 338.202 314.706 338.194 315.137C338.186 315.568 338.008 315.979 337.697 316.278C335.996 317.919 334.272 319.731 332.563 321.672C332.409 321.846 332.22 321.985 332.009 322.081C331.797 322.176 331.567 322.225 331.335 322.224V322.233ZM391.108 312.549C390.772 312.55 390.445 312.445 390.172 312.249C388.163 310.829 386.071 309.529 383.908 308.358C383.719 308.257 383.552 308.12 383.417 307.955C383.281 307.79 383.179 307.599 383.117 307.395C383.055 307.191 383.034 306.976 383.056 306.763C383.077 306.551 383.139 306.345 383.24 306.156C383.341 305.968 383.479 305.801 383.644 305.666C383.809 305.531 384 305.429 384.205 305.367C384.409 305.305 384.624 305.284 384.837 305.306C385.05 305.327 385.257 305.389 385.445 305.49C387.723 306.725 389.926 308.092 392.043 309.584C392.328 309.783 392.542 310.067 392.653 310.396C392.765 310.724 392.768 311.08 392.662 311.41C392.557 311.74 392.348 312.028 392.067 312.232C391.786 312.436 391.447 312.544 391.1 312.541L391.108 312.549ZM346.41 308.878C346.058 308.878 345.715 308.763 345.433 308.552C345.151 308.341 344.945 308.044 344.847 307.705C344.749 307.367 344.763 307.007 344.888 306.677C345.013 306.348 345.242 306.068 345.54 305.88C347.753 304.47 350.089 303.263 352.52 302.273C352.72 302.188 352.935 302.143 353.152 302.141C353.369 302.14 353.585 302.182 353.786 302.264C353.987 302.347 354.169 302.469 354.322 302.623C354.475 302.777 354.596 302.96 354.677 303.161C354.758 303.363 354.798 303.578 354.795 303.795C354.792 304.012 354.745 304.226 354.658 304.425C354.571 304.624 354.445 304.803 354.287 304.953C354.13 305.102 353.944 305.218 353.74 305.295C351.494 306.212 349.334 307.33 347.289 308.634C347.029 308.799 346.727 308.887 346.418 308.886L346.41 308.878ZM372.924 304.06C372.801 304.059 372.679 304.045 372.558 304.02C370.2 303.478 367.793 303.174 365.374 303.11C365.161 303.105 364.95 303.057 364.755 302.971C364.559 302.884 364.383 302.76 364.236 302.605C364.088 302.451 363.973 302.269 363.896 302.07C363.819 301.87 363.783 301.658 363.788 301.445C363.793 301.231 363.841 301.021 363.927 300.826C364.014 300.631 364.138 300.455 364.293 300.308C364.448 300.161 364.631 300.045 364.83 299.969C365.03 299.892 365.242 299.855 365.456 299.861C368.088 299.931 370.707 300.263 373.274 300.852C373.665 300.94 374.009 301.17 374.242 301.496C374.474 301.822 374.578 302.222 374.533 302.62C374.489 303.017 374.3 303.385 374.002 303.652C373.703 303.919 373.317 304.068 372.916 304.069L372.924 304.06Z" fill="#A7A9AC"/>
<path d="M426.791 355.977C426.489 355.976 426.192 355.891 425.935 355.732C425.678 355.573 425.47 355.346 425.335 355.076C425.335 355.067 424.733 353.881 423.634 351.916C423.423 351.54 423.37 351.095 423.486 350.68C423.603 350.265 423.88 349.913 424.257 349.702C424.633 349.491 425.078 349.438 425.494 349.554C425.91 349.671 426.262 349.947 426.474 350.323C426.474 350.34 426.49 350.348 426.498 350.364V350.34C426.65 349.935 426.955 349.606 427.348 349.423C427.74 349.241 428.189 349.22 428.597 349.365C429.004 349.512 429.335 349.815 429.518 350.207C429.701 350.598 429.721 351.046 429.573 351.453L428.321 354.897C428.212 355.196 428.018 355.457 427.761 355.646C427.505 355.835 427.199 355.945 426.88 355.961H426.783L426.791 355.977Z" fill="#A7A9AC"/>
<path d="M430.834 344.856C430.572 344.857 430.314 344.794 430.081 344.673C429.849 344.552 429.649 344.377 429.499 344.162C429.348 343.948 429.252 343.7 429.219 343.44C429.185 343.181 429.215 342.917 429.305 342.671L430.981 338.065C431.051 337.86 431.161 337.671 431.305 337.509C431.45 337.347 431.625 337.215 431.82 337.122C432.016 337.028 432.229 336.974 432.445 336.964C432.662 336.953 432.879 336.986 433.083 337.06C433.287 337.134 433.474 337.248 433.634 337.395C433.793 337.542 433.921 337.719 434.011 337.916C434.101 338.114 434.151 338.327 434.157 338.544C434.163 338.76 434.126 338.976 434.048 339.178L432.372 343.784C432.258 344.097 432.05 344.368 431.776 344.56C431.503 344.752 431.177 344.855 430.843 344.856H430.834Z" fill="#A7A9AC"/>
<path d="M435.309 332.574C435.047 332.574 434.788 332.511 434.556 332.39C434.323 332.269 434.123 332.094 433.973 331.88C433.823 331.665 433.727 331.417 433.693 331.158C433.659 330.898 433.689 330.634 433.78 330.388L435.033 326.944C435.103 326.739 435.213 326.55 435.357 326.388C435.501 326.226 435.676 326.094 435.872 326.001C436.068 325.907 436.28 325.853 436.497 325.843C436.714 325.832 436.931 325.865 437.135 325.939C437.339 326.013 437.526 326.127 437.685 326.274C437.844 326.421 437.973 326.598 438.063 326.795C438.153 326.993 438.202 327.206 438.208 327.422C438.215 327.639 438.178 327.855 438.1 328.057L436.847 331.501C436.732 331.815 436.524 332.086 436.251 332.277C435.977 332.469 435.651 332.572 435.317 332.574H435.309Z" fill="#A7A9AC"/>
<path d="M417.777 256.969C417.988 246.928 429.215 236.352 439.702 233.143C450.189 229.934 472.221 226.083 479.714 232.915C487.207 239.747 486.67 242.631 486.67 242.631C486.67 242.631 519.896 128.212 520.107 123.728C520.319 119.244 523.842 100.763 513.892 103.858C503.942 106.953 489.721 119.252 486.19 123.842C482.659 128.432 471.009 153.541 471.009 153.541L460.644 176.725L449.099 202.363L435.626 223.947L424.399 240.08L417.777 256.961V256.969Z" fill="#891815"/>
<path d="M499.841 75.7754C498.442 79.699 499.443 81.8436 500.346 84.3944C501.249 86.9451 500.85 89.634 499.988 90.5357C499.988 90.5357 505.52 89.0085 505.398 85.288C505.276 81.5674 503.706 76.3522 502.429 75.6779C502.021 75.4871 501.573 75.3964 501.123 75.4134C500.673 75.4303 500.234 75.5545 499.841 75.7754Z" fill="#A0481C"/>
<path d="M455.193 272.818L442.883 272.842C442.883 272.842 438.661 282.225 439.605 282.923C440.548 283.622 441.655 286.603 441.655 286.603C439.125 292.314 438.905 292.241 438.173 295.255C437.229 299.146 437.896 308.431 440.849 311.128C442.59 312.72 446.967 313.142 447.439 310.835C448.993 303.232 450.539 298.276 452.386 294.605C454.322 290.738 464.085 281.843 464.085 281.843L455.193 272.818Z" fill="#723216"/>
<g opacity="0.2">
<path d="M455.128 290.868C458.691 286.757 464.077 281.851 464.077 281.851L455.185 272.826H450.059C450.222 272.95 450.416 273.027 450.62 273.045C452.443 273.094 452.866 275.929 453.354 277.635C453.842 279.341 455.095 290.478 455.095 290.478C455.097 290.609 455.108 290.739 455.128 290.868Z" fill="#0B2025"/>
</g>
<path d="M452.475 272.338L462.718 286.863L493.268 262.249L493.382 232.94C493.382 232.94 476.451 243.882 471.993 247.814C465.509 253.524 452.467 272.33 452.467 272.33L452.475 272.338Z" fill="#314444"/>
<path d="M441.801 307.878C439.214 301.079 440.76 293.882 442.867 289.186C444.356 285.888 444.502 277.529 446.308 272.834H442.883C442.883 272.834 438.661 282.225 439.605 282.923C440.548 283.622 441.655 286.603 441.655 286.603C439.125 292.314 438.905 292.241 438.173 295.255C437.229 299.146 437.896 308.431 440.849 311.128C441.555 311.684 442.376 312.077 443.253 312.276C444.13 312.476 445.04 312.478 445.918 312.281C444.141 311.254 442.71 309.721 441.809 307.878H441.801Z" fill="#351E11"/>
<path d="M460.505 292.411L448.481 295.019C448.481 295.019 446.333 305.076 447.399 305.563C448.465 306.051 450.173 308.731 450.173 308.731C448.904 314.848 448.668 314.824 448.587 317.919C448.481 321.916 451.092 330.851 454.55 332.874C456.584 334.06 460.961 333.557 460.928 331.209C460.847 323.451 461.319 318.285 462.344 314.304C463.426 310.12 471.098 299.373 471.098 299.373L460.505 292.411Z" fill="#723216"/>
<g opacity="0.2">
<path d="M471.098 299.373L460.506 292.411L457.479 293.069C457.985 293.479 458.366 294.022 458.577 294.637C459.35 296.424 462.938 305.986 463.532 307.537C463.801 308.246 464.131 308.931 464.516 309.584C467.144 304.913 471.098 299.373 471.098 299.373Z" fill="#0B2025"/>
</g>
<path d="M457.747 292.509L470.431 305.872L495.505 274.077L489.444 245.401C489.444 245.401 479.494 257.627 475.963 262.403C470.83 269.349 457.747 292.501 457.747 292.501V292.509Z" fill="#4E6566"/>
<path d="M454.802 329.503C450.84 323.402 450.832 316.034 451.906 311.006C452.662 307.464 451.043 299.268 451.824 294.296L448.473 295.019C448.473 295.019 446.325 305.076 447.39 305.563C448.456 306.051 450.165 308.731 450.165 308.731C448.896 314.848 448.66 314.824 448.578 317.919C448.473 321.916 451.084 330.851 454.542 332.874C455.349 333.27 456.235 333.481 457.134 333.492C458.033 333.503 458.923 333.314 459.74 332.939C457.786 332.307 456.064 331.108 454.794 329.495L454.802 329.503Z" fill="#351E11"/>
<g opacity="0.2">
<path d="M487.288 284.499L494.138 275.815C491.69 273.297 488.598 270.299 488.598 270.299L477.468 260.413C476.891 261.161 476.378 261.843 475.955 262.412C474.474 264.418 472.327 267.781 470.024 271.542L487.28 284.507L487.288 284.499Z" fill="#0B2025"/>
</g>
<path d="M563.894 22.5101L575.268 1.51908L586.829 0L588 8.03408L584.201 10.2355L584.502 13.1925L575.105 17.4816L573.315 24.3947L563.894 22.5101Z" fill="#FFA969"/>
<path d="M538.445 115.28L554.88 72.6398L575.56 22.4369L565.578 15.8C565.578 15.8 555.107 31.3239 550.673 39.0168C548.151 43.3873 539.609 58.0338 537.339 61.2669C535.069 64.5001 528.829 72.1036 528.829 72.1036L520.148 91.1125L522.931 114.549L538.454 115.28H538.445Z" fill="#333A70"/>
<g opacity="0.5">
<path d="M553.269 64.4595L533.784 100.438C533.784 100.438 536.591 106.117 539.78 111.795L554.871 72.6398L575.552 22.4369L572.461 20.3817L571.94 20.3086L553.261 64.4595H553.269Z" fill="#0B2025"/>
</g>
<path d="M529.415 180.422C529.415 180.422 542.237 164.012 545.361 141.445C546.874 130.527 543.27 102.753 543.27 102.753L533.157 105.556L492.983 113.809C492.983 113.809 477.46 144.402 473.962 153.127C469.072 165.32 471.79 173.939 473.832 176.587C475.874 179.236 479.396 181.445 484.131 179.877C488.63 178.391 501.135 173.598 501.135 173.598L529.415 180.414V180.422Z" fill="#333A70"/>
<path d="M464.402 255.767L492.121 286.741C492.121 286.741 522.288 232.314 526.364 216.425C529.146 205.58 543.66 150.194 543.66 150.194L502.974 144.443L485.986 184.313L478.445 235.247L464.41 255.758L464.402 255.767Z" fill="#333A70"/>
<g opacity="0.4">
<path d="M477.387 160.885C477.387 160.885 482.968 157.278 486.873 156.173C491.681 154.808 496.88 154.467 499.841 151.234C502.193 148.675 511.72 135.263 514.893 135.881C517.35 136.36 524.346 145.873 524.346 145.873C524.346 145.873 517.488 143.362 514.925 142.306C513.509 141.722 508.815 149.073 506.635 154.825C506.13 156.144 505.256 157.291 504.116 158.128C502.977 158.965 501.62 159.457 500.208 159.544C500.208 159.544 499.231 158.594 493.65 158.22C485.612 157.676 477.387 160.885 477.387 160.885Z" fill="#0B2025"/>
</g>
<path d="M507.392 104.216L510.89 83.3628L522.849 91.6568L536.412 109.926L507.392 104.216Z" fill="white"/>
<g opacity="0.4">
<path d="M536.973 113.533C528.65 112.924 536.924 113.054 536.9 112.81C536.688 112.055 536.322 110.56 535.753 107.749C535.603 107.151 535.337 106.587 534.968 106.092C534.599 105.597 534.136 105.18 533.605 104.865L525.803 107.026L492.975 113.809C492.975 113.809 477.452 144.402 473.954 153.127C469.064 165.32 471.782 173.947 473.824 176.587C475.866 179.227 479.388 181.445 484.123 179.877C488.622 178.391 501.127 173.598 501.127 173.598L502.974 174.045C503.386 173.551 503.731 173.005 503.999 172.42C504.357 171.096 501.713 168.293 501.713 168.293C501.713 168.293 484.628 174.63 479.527 175.231C474.426 175.832 472.546 166.417 473.1 161.933C473.653 157.449 477.672 151.437 480.479 144.622C483.285 137.806 485.572 137.774 488.175 130.999C490.778 124.224 492.584 120.739 499.158 116.092C505.732 111.445 518.936 111.722 525.233 113.996L536.957 113.509L536.973 113.533Z" fill="#0B2025"/>
</g>
<path d="M492.796 118.643C500.379 111.714 509.417 111.535 514.38 111.827C520.816 112.13 527.063 114.098 532.508 117.537C537.953 120.976 542.41 125.769 545.442 131.445C545.442 131.445 545.328 124.053 545.044 120.357C544.759 116.661 528.707 92.4366 528.707 92.4366L522.475 95.353L528.138 104.329L508.571 93.8258C508.571 93.8258 498.361 91.803 484.522 112.095C473.702 127.96 460.684 164.548 452.386 181.868C444.25 198.862 425.595 228.748 419.062 239.853C412.529 250.957 413.676 257.196 414.343 260.503C415.634 266.316 418.371 271.71 422.3 276.189C422.3 276.189 440.963 234.012 458.488 191.973C473.449 156.084 485.409 125.41 492.804 118.659L492.796 118.643Z" fill="#E33B0F"/>
<g opacity="0.4">
<path d="M519.229 99.5365L508.571 93.8176C508.571 93.8176 498.361 91.7949 484.522 112.087C480.112 118.553 475.329 128.472 470.659 139.114C470.838 138.748 471.025 138.358 471.22 137.952C483.367 112.193 498.768 100.568 500.452 101.689C502.136 102.81 506.147 107.213 507.286 108.489C508.425 109.764 512.289 104.532 517.301 103.525C517.301 103.525 518.139 101.827 519.229 99.5365Z" fill="#891815"/>
</g>
<path d="M495.701 165.694C495.367 162.461 500.533 157.197 501.298 156.344C504.601 152.696 506.489 152.355 507.587 152.688C508.685 153.021 516.259 154.898 516.829 156.068C517.398 157.237 515.999 158.48 515.999 158.48C515.999 158.48 516.967 160.779 516.617 161.47C516.291 161.938 515.795 162.262 515.234 162.371C515.295 162.614 515.303 162.866 515.257 163.112C515.21 163.357 515.111 163.59 514.966 163.793C513.949 165.182 512.005 164.646 512.005 164.646C512.086 165.086 512.025 165.54 511.831 165.944C511.636 166.347 511.318 166.677 510.922 166.888C509.874 167.331 508.742 167.545 507.603 167.513L505.016 168.992L499.655 171.023C499.655 171.023 496.189 170.349 495.701 165.694Z" fill="#FFA969"/>
<path d="M576.553 11.6002L578.538 4.52472L584.461 3.92358L584.762 6.88864L581.451 9.22007L582.313 10.6742L576.553 11.6002Z" fill="#FF8A54"/>
<path d="M507.603 167.513C506.993 167.538 505.968 166.62 506.749 165.824C507.317 165.303 508.004 164.93 508.75 164.735C508.638 164.683 508.54 164.604 508.466 164.505C508.392 164.405 508.344 164.289 508.327 164.167C508.286 164.044 508.273 163.915 508.289 163.787C508.304 163.659 508.348 163.536 508.416 163.427C508.416 163.427 505.886 163.679 505.919 163.923C506.049 164.922 504.194 167.952 503.079 168.57C501.965 169.187 498.8 170.519 498.8 170.519L499.646 171.015L505.008 168.984C505.902 168.548 506.766 168.054 507.595 167.505L507.603 167.513Z" fill="#FF8A54"/>
<g opacity="0.4">
<path d="M488.565 178.041C488.565 178.041 486.45 180.6 485.148 186.555C484.131 191.177 478.445 235.255 478.445 235.255C478.445 235.255 492.438 193.98 495.757 185.125C498.054 179.335 501.172 173.905 505.016 169L499.654 171.031L488.565 178.05V178.041Z" fill="#0B2025"/>
</g>
<path d="M508.107 95.8728L511.988 80.1215L533.035 86.937C533.035 86.937 529.48 88.976 529.008 90.4301C528.748 91.2506 529.724 93.3627 529.317 94.11C527.283 97.8793 528.064 98.9354 532.962 106.011C535.761 110.056 508.107 95.8647 508.107 95.8647V95.8728Z" fill="#FF8A54"/>
<path d="M511.663 81.4456L511.337 82.7698C512.452 85.8973 515.592 93.6227 528.121 96.8152C528.425 95.8772 528.826 94.9733 529.317 94.1182C529.724 93.3627 528.748 91.2506 529.008 90.4383C529.472 88.9842 533.035 86.9452 533.035 86.9452L512.501 80.2921C512.2 80.6605 511.92 81.0457 511.663 81.4456Z" fill="#C66340"/>
<path d="M508.734 93.054L504.324 98.5292L507.286 108.497L515.6 106.831L516.699 109.902L539.568 113.655L527.82 98.4398L532.759 106.255C532.759 106.255 522.955 103.233 519.164 101.389C516.316 99.9995 508.734 93.0621 508.734 93.0621V93.054Z" fill="white"/>
<path d="M525.534 50.0973C525.534 50.0973 531.351 56.7179 532.498 59.5205C533.043 60.8446 533.287 63.9721 534.142 65.1257C535.606 67.1159 541.716 68.9924 541.716 68.9924C541.478 70.2219 541.041 71.4045 540.422 72.4936C540.055 73.1038 539.609 73.6636 539.096 74.1589C539.276 74.6431 539.522 75.0997 539.828 75.5155C540.235 76.0192 540.878 76.4822 540.797 76.7909C540.455 78.1557 535.508 79.3904 535.508 79.3904C535.508 79.3904 538.722 79.3742 540.65 79.5204C541.496 79.5854 540.097 81.0476 540.593 83.2897C540.927 84.8088 542.53 85.7511 542.627 87.3027C542.684 88.245 541.26 90.4708 540.146 91.1207C535.663 93.7202 524.379 91.9411 519.733 89.6585C513.932 86.8071 513.518 84.5407 513.518 84.5407L506.789 68.0582L508.14 55.735L525.542 50.0973H525.534Z" fill="#FFA969"/>
<path d="M509.165 71.8518C510.134 72.6088 511.159 73.2905 512.232 73.8908C512.979 74.0896 513.741 74.2281 514.51 74.3051C514.51 74.3051 511.687 69.0736 512.159 67.059C512.621 66.1853 513.175 65.3629 513.81 64.6057C513.81 64.6057 510.206 57.4002 517.366 53.4603C522.955 50.3815 522.304 43.6472 511.752 47.4652C507.88 48.8706 500.915 51.0883 498.759 54.5976C495.107 60.5683 491.73 63.1028 491.73 63.1028C492.969 65.6115 494.037 68.2006 494.928 70.8526C496.4 74.9468 494.765 80.9094 499.02 82.5179C502.099 83.6594 504.859 85.5233 507.066 87.9524C508.257 89.3766 508.874 91.1921 508.799 93.0458C510.058 91.192 510.96 89.1204 511.459 86.937C512.688 81.1287 509.165 71.8599 509.165 71.8599V71.8518Z" fill="#A0481C"/>
<path d="M522.768 69.1792C522.264 67.912 523.403 66.1817 523.671 64.9794C524.249 62.3718 526.592 60.6984 528.349 59.5042C528.845 59.163 532.295 64.0859 531.31 64.7601C529.032 66.3198 527.739 69.0005 526.852 70.3084C526.551 70.7552 524.127 72.6073 522.768 69.1792Z" fill="#FF8A54"/>
<path d="M530.245 65.7105C529.179 65.613 528.048 67.7495 527.47 70.2596C527.373 70.6658 529.968 70.4221 531.904 68.5943C532.677 67.8632 532.181 67.059 531.53 66.3929C531.387 66.1839 531.195 66.0127 530.971 65.8938C530.748 65.775 530.498 65.7121 530.245 65.7105Z" fill="white"/>
<path d="M530.481 65.3043C530.75 65.1648 531.049 65.0906 531.353 65.0878C531.657 65.085 531.957 65.1536 532.23 65.2881C532.181 64.3945 530.131 64.0208 528.813 64.3051C525.876 64.9388 522.841 70.6577 523.11 71.8437C523.256 72.4936 525.884 72.3717 526.437 72.4611C526.519 70.8607 527.186 66.6366 530.481 65.3124V65.3043Z" fill="#FFA969"/>
<path d="M531.961 66.3929C532.523 67.1484 532.555 68.0825 532.026 68.4725C531.498 68.8624 530.619 68.57 530.049 67.8145C529.48 67.059 529.455 66.1248 529.984 65.7349C530.513 65.3449 531.4 65.6374 531.961 66.3929Z" fill="#58595B"/>
<path d="M531.416 66.7909C531.66 67.1159 531.677 67.5221 531.441 67.6926C531.205 67.8632 530.83 67.7333 530.578 67.4083C530.326 67.0834 530.318 66.6772 530.546 66.5066C530.773 66.336 531.164 66.466 531.408 66.7909H531.416Z" fill="#211F1F"/>
<path d="M530.928 65.4181C530.911 65.1939 530.856 64.9742 530.765 64.7682C527.714 65.2637 526.673 70.6983 526.665 70.747C526.663 70.8305 526.693 70.9117 526.749 70.9738C526.805 71.0358 526.883 71.0739 526.966 71.0801C527.051 71.0831 527.133 71.0537 527.197 70.9978C527.26 70.9419 527.3 70.8638 527.308 70.7795C527.316 70.5927 528.373 65.8892 530.928 65.4181Z" fill="#C96335"/>
<path d="M523.077 69.4879C523.053 69.7722 522.41 69.2929 522.386 69.0167C521.897 64.3295 527.845 58.4481 528.878 58.903C529.415 59.1386 529.651 59.9997 529.667 60.5846C529.7 61.7381 523.484 65.2962 523.077 69.4879Z" fill="#A0481C"/>
<path d="M507.164 80.4465C510.442 83.0216 514.494 83.3384 516.211 81.1532C517.927 78.968 512.476 78.7243 511.882 74.5976C510.792 67.0509 506.057 69.6504 504.341 71.8356C502.624 74.0208 503.893 77.8713 507.164 80.4465Z" fill="#FFA969"/>
<path d="M508.596 76.9777C509.417 78.448 510.882 79.1954 511.866 78.6511C512.851 78.1068 511.638 76.8477 510.809 75.3773C509.979 73.907 509.865 72.7778 508.88 73.3221C507.896 73.8664 507.766 75.5073 508.587 76.9777H508.596Z" fill="#FF8A54"/>
<path d="M513.25 37.5272L483.252 67.1167L500.342 84.3905L530.34 54.801L513.25 37.5272Z" fill="#0B2025"/>
<path d="M523 27.3617L473.444 76.2417L476.675 79.5069L526.23 30.6269L523 27.3617Z" fill="#4E6566"/>
<path d="M486.125 72.9241C485.798 72.5959 485.615 72.1516 485.616 71.6889C485.618 71.2262 485.803 70.7828 486.131 70.4562C486.459 70.1295 486.904 69.9463 487.367 69.9467C487.831 69.947 488.275 70.131 488.602 70.4582C488.93 70.7854 489.114 71.229 489.115 71.6918C489.115 72.1545 488.932 72.5984 488.605 72.9262C488.277 73.2539 487.833 73.4386 487.37 73.4397C486.907 73.4409 486.462 73.2583 486.133 72.9322L486.125 72.9241Z" fill="#FBC41C"/>
<path d="M484.131 92.6072V82.6966C484.132 82.1115 484.248 81.5322 484.473 80.9918C484.697 80.4514 485.026 79.9605 485.441 79.5472C485.856 79.1338 486.348 78.806 486.89 78.5826C487.431 78.3592 488.012 78.2445 488.598 78.245C489.184 78.2455 489.764 78.3613 490.305 78.5857C490.846 78.8101 491.338 79.1388 491.752 79.5529C492.166 79.967 492.494 80.4585 492.718 80.9993C492.942 81.5401 493.057 82.1196 493.056 82.7048V92.6154H484.131V92.6072Z" fill="#FBC41C"/>
<path d="M487.418 80.1946H489.68L489.168 59.2443L486.979 60.5765L487.418 80.1946Z" fill="#FBC41C"/>
<path d="M496.334 51.3859L486.992 60.6001L488.124 61.7444L497.466 52.5301L496.334 51.3859Z" fill="#FBC41C"/>
<path d="M514.616 164.175C513.347 165.044 512.436 163.086 512.135 162.087C511.834 161.088 511.842 160.032 511.223 159.983C510.605 159.934 508.555 160.007 508.555 160.007C509.439 160.145 510.314 160.337 511.175 160.584C511.736 160.812 511.899 164.012 512.004 164.662C512.448 164.777 512.912 164.794 513.363 164.711C513.814 164.628 514.242 164.448 514.616 164.183V164.175Z" fill="#FF8A54"/>
<path d="M515.242 162.371C515.251 162.42 515.259 162.445 515.267 162.486C515.251 162.412 515.242 162.371 515.242 162.371Z" fill="#FF8A54"/>
<path d="M516.455 161.689C515.999 162.144 515.389 160.901 515.007 159.951C514.527 158.74 514.657 157.676 512.688 157.367C511.402 157.172 510.107 157.05 508.807 157.002C508.807 157.002 513.176 157.587 513.705 158.391C514.407 159.639 514.923 160.982 515.234 162.379C515.727 162.273 516.174 162.014 516.512 161.64C516.495 161.656 516.471 161.665 516.455 161.689Z" fill="#FF8A54"/>
<path d="M516.894 157.115C516.863 157.151 516.836 157.189 516.813 157.229C516.568 157.733 515.975 157.229 515.812 156.912C515.658 156.559 515.412 156.253 515.098 156.028C514.784 155.804 514.415 155.668 514.03 155.637C512.867 155.556 509.922 155.247 509.922 155.247C509.922 155.247 512.704 155.938 513.949 156.076C515.194 156.214 515.568 157.384 516.015 158.488C516.415 158.11 516.719 157.642 516.902 157.124L516.894 157.115Z" fill="#FF8A54"/>
<path opacity="0.4" d="M518.187 42.5181C515.95 45.7918 509.051 55.9461 507.131 59.1143C504.829 62.9079 508.099 68.0907 512.004 72.3067C512.103 72.4071 512.212 72.4969 512.33 72.5748L530.342 54.8088L518.187 42.5181Z" fill="#4E6566"/>
<path d="M106.285 474.531H182.435V478.056H151.698C150.137 478.059 148.64 478.679 147.536 479.782C146.432 480.884 145.811 482.379 145.808 483.938V485.863C145.811 487.421 146.432 488.915 147.537 490.016C148.641 491.117 150.138 491.736 151.698 491.736H182.435V495.262H106.285C103.786 495.262 101.39 494.27 99.6234 492.506C97.8566 490.742 96.864 488.35 96.8638 485.855V483.93C96.8653 481.435 97.8583 479.043 99.6248 477.28C101.391 475.516 103.787 474.524 106.285 474.523V474.531Z" fill="#0891C1"/>
<path d="M151.69 491.744C150.13 491.742 148.634 491.123 147.53 490.022C146.426 488.922 145.804 487.429 145.8 485.871V483.946C145.802 482.387 146.424 480.892 147.528 479.79C148.632 478.687 150.129 478.067 151.69 478.064H178.269C178.269 478.064 175.78 479.519 175.78 484.49C175.78 490.298 178.269 491.744 178.269 491.744H151.69Z" fill="#C9E2DC"/>
<path d="M211.504 539.851C213.066 539.85 214.564 539.23 215.668 538.128C216.772 537.025 217.393 535.53 217.394 533.97V528.722C217.393 527.163 216.772 525.667 215.668 524.565C214.564 523.462 213.066 522.842 211.504 522.841H108.327C109.988 525.207 110.862 528.035 110.825 530.924C110.825 536.732 108.327 539.843 108.327 539.843H211.504V539.851Z" fill="#E2E0C5"/>
<path d="M189.212 522.849H176.537C176.537 522.849 177.781 525.465 177.781 531.167C177.781 536.87 176.537 539.851 176.537 539.851H189.212V522.849Z" fill="#353C4F"/>
<path d="M176.537 540.574C176.442 540.575 176.347 540.556 176.26 540.517C176.083 540.442 175.943 540.3 175.87 540.122C175.797 539.944 175.797 539.745 175.87 539.567C175.878 539.543 177.058 536.626 177.058 531.167C177.058 525.741 175.894 523.182 175.878 523.158C175.796 522.984 175.786 522.785 175.851 522.605C175.916 522.424 176.05 522.277 176.224 522.195C176.397 522.113 176.597 522.104 176.777 522.168C176.958 522.233 177.106 522.367 177.188 522.54C177.245 522.654 178.506 525.367 178.506 531.167C178.506 536.968 177.253 539.998 177.204 540.128C177.15 540.26 177.057 540.373 176.938 540.452C176.82 540.532 176.68 540.574 176.537 540.574Z" fill="#AF6127"/>
<path d="M202.823 519.323H105.024V522.849H175.674C177.236 522.851 178.733 523.472 179.837 524.574C180.941 525.677 181.562 527.171 181.565 528.73V533.978C181.564 535.538 180.943 537.033 179.838 538.136C178.734 539.238 177.236 539.858 175.674 539.86H105.024V543.385H202.823C205.321 543.385 207.716 542.396 209.483 540.633C211.249 538.871 212.243 536.48 212.244 533.986V528.739C212.243 526.244 211.25 523.852 209.483 522.088C207.717 520.325 205.321 519.333 202.823 519.332V519.323Z" fill="#4E6566"/>
<path d="M211.504 519.323H176.252C178.751 519.324 181.147 520.315 182.913 522.079C184.68 523.843 185.673 526.236 185.673 528.73V533.978C185.673 536.473 184.68 538.866 182.913 540.63C181.147 542.394 178.751 543.385 176.252 543.385H211.504C214.001 543.385 216.397 542.396 218.163 540.633C219.93 538.871 220.923 536.48 220.925 533.986V528.739C220.924 526.244 219.931 523.852 218.164 522.088C216.398 520.325 214.002 519.333 211.504 519.332V519.323Z" fill="#678484"/>
<path d="M190.457 495.27H114.307V498.796H190.457C192.017 498.8 193.512 499.421 194.614 500.523C195.717 501.625 196.337 503.119 196.339 504.677V509.917C196.337 511.474 195.717 512.968 194.614 514.07C193.512 515.173 192.017 515.794 190.457 515.798H114.307V519.323H190.457C191.694 519.323 192.918 519.08 194.061 518.607C195.203 518.134 196.241 517.441 197.115 516.567C197.989 515.694 198.683 514.657 199.155 513.516C199.628 512.374 199.871 511.151 199.87 509.917V504.677C199.871 503.442 199.628 502.219 199.155 501.078C198.683 499.937 197.989 498.9 197.115 498.026C196.241 497.153 195.203 496.46 194.061 495.987C192.918 495.514 191.694 495.27 190.457 495.27Z" fill="#E44B1A"/>
<path d="M190.457 515.798C193.695 515.798 194.891 513.166 194.891 509.917V504.677C194.891 501.436 193.695 498.796 190.457 498.796H118.464C120.127 501.161 121.001 503.989 120.962 506.878C120.962 512.687 118.464 515.798 118.464 515.798H190.457Z" fill="#E4F4F0"/>
<g opacity="0.3">
<path d="M166.994 507.065H150.657C150.465 507.065 150.281 506.989 150.145 506.853C150.009 506.718 149.933 506.534 149.933 506.342C149.933 506.15 150.009 505.966 150.145 505.831C150.281 505.695 150.465 505.619 150.657 505.619H166.994C167.186 505.619 167.37 505.695 167.506 505.831C167.641 505.966 167.718 506.15 167.718 506.342C167.718 506.534 167.641 506.718 167.506 506.853C167.37 506.989 167.186 507.065 166.994 507.065Z" fill="#353C4F"/>
</g>
<g opacity="0.3">
<path d="M168.312 519.397L165.545 506.342H152.097L154.863 519.397H168.312Z" fill="#0B2025"/>
</g>
<g opacity="0.3">
<path d="M166.034 529.185L160.005 527.203L153.968 529.185V519.34H166.034V529.185Z" fill="#0B2025"/>
</g>
<path d="M106.285 474.531H182.435V478.056H151.698C150.137 478.059 148.64 478.679 147.536 479.782C146.432 480.884 145.811 482.379 145.808 483.938V485.863C145.811 487.421 146.432 488.915 147.537 490.016C148.641 491.117 150.138 491.736 151.698 491.736H182.435V495.262H106.285C103.786 495.262 101.39 494.27 99.6234 492.506C97.8566 490.742 96.864 488.35 96.8638 485.855V483.93C96.8653 481.435 97.8583 479.043 99.6248 477.28C101.391 475.516 103.787 474.524 106.285 474.523V474.531Z" fill="#18AED6"/>
<path opacity="0.4" d="M151.69 491.744C150.13 491.742 148.634 491.123 147.53 490.022C146.426 488.922 145.804 487.429 145.8 485.871V483.946C145.802 482.387 146.424 480.892 147.528 479.79C148.632 478.687 150.129 478.067 151.69 478.064H182.427V474.539H150.226C147.727 474.539 145.331 475.53 143.564 477.294C141.798 479.058 140.805 481.451 140.805 483.946V485.871C140.805 488.366 141.798 490.758 143.564 492.523C145.331 494.287 147.727 495.278 150.226 495.278H182.427V491.752H151.69V491.744Z" fill="#353C4F"/>
<path d="M165.545 527.837L158.825 525.635L152.097 527.837V506.342H165.545V527.837Z" fill="#FBC41C"/>
<path opacity="0.3" d="M165.537 506.342H152.097V519.275H165.537V506.342Z" fill="white"/>
<path d="M191.246 498.86C191.246 498.86 192.344 501.2 192.344 507.065C192.344 512.93 191.246 515.741 191.246 515.741C192.655 515.549 193.948 514.855 194.884 513.785C195.82 512.716 196.337 511.345 196.339 509.925V504.685C196.337 503.265 195.82 501.893 194.884 500.824C193.948 499.755 192.655 499.06 191.246 498.869V498.86Z" fill="#353C4F"/>
<path d="M151.178 478.089C149.71 478.218 148.345 478.891 147.35 479.975C146.354 481.059 145.801 482.475 145.8 483.946V485.871C145.802 487.341 146.355 488.757 147.35 489.839C148.346 490.922 149.711 491.593 151.178 491.72C150.507 489.478 150.194 487.146 150.25 484.807C150.178 482.531 150.492 480.26 151.178 478.089Z" fill="#353C4F"/>
<path d="M190.595 499.161C190.595 499.161 191.629 501.484 191.629 507.065C191.629 512.646 190.587 515.449 190.579 515.481C190.539 515.582 190.522 515.69 190.53 515.798C191.06 515.803 191.587 515.712 192.084 515.53C192.818 512.77 193.153 509.92 193.077 507.065C193.077 502.41 192.442 500.087 192.109 499.08C191.605 498.898 191.074 498.805 190.538 498.804C190.525 498.926 190.544 499.049 190.595 499.161Z" fill="#8DCCDB"/>
<path d="M480.609 539.583C482.173 539.582 483.672 538.961 484.778 537.857C485.884 536.753 486.506 535.255 486.507 533.694V528.438C486.506 526.876 485.884 525.379 484.778 524.275C483.672 523.17 482.173 522.55 480.609 522.548H385.958C387.621 524.92 388.495 527.753 388.456 530.648C388.456 536.464 385.958 539.575 385.958 539.575H480.609V539.583Z" fill="#E2E0C5"/>
<path d="M466.965 522.557H454.273C454.273 522.557 455.526 525.172 455.526 530.891C455.526 536.61 454.273 539.583 454.273 539.583H466.965V522.557Z" fill="#353C4F"/>
<path d="M454.265 540.306C454.17 540.307 454.076 540.288 453.989 540.249C453.811 540.174 453.671 540.032 453.598 539.854C453.525 539.676 453.525 539.477 453.598 539.299C453.606 539.275 454.794 536.358 454.794 530.883C454.794 525.408 453.623 522.89 453.614 522.857C453.573 522.771 453.549 522.678 453.544 522.583C453.539 522.488 453.553 522.393 453.585 522.303C453.616 522.213 453.666 522.131 453.729 522.06C453.793 521.989 453.87 521.932 453.956 521.89C454.042 521.849 454.135 521.826 454.231 521.821C454.326 521.815 454.421 521.829 454.511 521.861C454.601 521.892 454.684 521.942 454.755 522.005C454.825 522.069 454.883 522.146 454.924 522.232C454.981 522.345 456.242 525.067 456.242 530.875C456.242 536.667 454.989 539.721 454.941 539.851C454.886 539.983 454.794 540.096 454.675 540.176C454.556 540.255 454.416 540.298 454.273 540.298L454.265 540.306Z" fill="#7F4632"/>
<path d="M471.936 519.023H382.655V522.557H453.403C454.967 522.558 456.467 523.179 457.572 524.283C458.678 525.387 459.3 526.884 459.301 528.446V533.702C459.3 535.264 458.678 536.761 457.572 537.865C456.467 538.97 454.967 539.59 453.403 539.591H382.655V543.125H471.936C474.438 543.125 476.837 542.133 478.606 540.368C480.376 538.603 481.371 536.208 481.373 533.71V528.454C481.373 527.217 481.129 525.992 480.654 524.85C480.18 523.707 479.484 522.669 478.608 521.795C477.732 520.92 476.691 520.227 475.547 519.754C474.402 519.281 473.175 519.038 471.936 519.039V519.023Z" fill="#C9320E"/>
<path d="M480.609 519.023H453.98C456.482 519.023 458.881 520.015 460.651 521.78C462.42 523.545 463.416 525.94 463.418 528.438V533.694C463.418 534.931 463.173 536.156 462.699 537.298C462.224 538.441 461.529 539.479 460.653 540.353C459.776 541.228 458.736 541.921 457.591 542.394C456.446 542.867 455.219 543.11 453.98 543.109H480.609C483.11 543.109 485.509 542.117 487.279 540.352C489.049 538.586 490.044 536.192 490.046 533.694V528.438C490.046 527.201 489.801 525.976 489.327 524.833C488.852 523.691 488.157 522.653 487.281 521.778C486.404 520.904 485.364 520.211 484.219 519.738C483.074 519.265 481.847 519.022 480.609 519.023Z" fill="#EF4511"/>
<path d="M470.935 428.284H393.532V424.702H470.935C472.522 424.699 474.042 424.067 475.163 422.947C476.284 421.826 476.914 420.307 476.915 418.723V413.394C476.914 411.81 476.284 410.291 475.163 409.17C474.042 408.049 472.522 407.418 470.935 407.415H393.532V403.833H470.935C472.192 403.833 473.437 404.08 474.598 404.561C475.76 405.042 476.815 405.746 477.703 406.634C478.592 407.522 479.296 408.576 479.777 409.736C480.257 410.896 480.504 412.139 480.503 413.394V418.723C480.503 421.257 479.496 423.688 477.702 425.481C475.907 427.274 473.474 428.282 470.935 428.284Z" fill="#EF4511"/>
<path d="M470.935 407.423C474.23 407.423 475.443 410.104 475.443 413.402V418.731C475.443 422.029 474.23 424.71 470.935 424.71H397.755C399.443 422.306 400.331 419.433 400.293 416.497C400.293 410.599 397.755 407.431 397.755 407.431H470.935V407.423Z" fill="#DAEAE5"/>
<path d="M471.741 424.637C471.741 424.637 472.855 422.256 472.855 416.294C472.855 410.331 471.741 407.472 471.741 407.472C473.172 407.669 474.485 408.376 475.436 409.462C476.386 410.549 476.912 411.943 476.915 413.386V418.715C476.912 420.158 476.386 421.551 475.436 422.638C474.485 423.725 473.172 424.432 471.741 424.628V424.637Z" fill="#353C4F"/>
<path d="M471.074 424.328C471.074 424.328 472.123 421.964 472.123 416.294C472.123 410.624 471.066 407.772 471.057 407.74C471.017 407.636 471.001 407.525 471.009 407.415C471.546 407.41 472.081 407.5 472.587 407.683C473.33 410.488 473.67 413.385 473.596 416.286C473.596 421.014 472.953 423.377 472.611 424.401C472.098 424.59 471.555 424.686 471.009 424.685C470.994 424.56 471.017 424.433 471.074 424.32V424.328Z" fill="#AF6127"/>
<path d="M427.637 379.625C429.197 379.623 430.693 379.004 431.797 377.903C432.901 376.802 433.523 375.309 433.527 373.751V371.826C433.525 370.267 432.904 368.772 431.8 367.67C430.695 366.568 429.199 365.947 427.637 365.945H401.058C401.058 365.945 403.547 367.399 403.547 372.37C403.547 378.179 401.058 379.633 401.058 379.633H427.637V379.625Z" fill="#E2E0C5"/>
<path d="M464.378 362.419H396.909V365.945H427.645C429.207 365.947 430.704 366.568 431.808 367.67C432.912 368.772 433.533 370.267 433.536 371.826V373.751C433.533 375.31 432.911 376.803 431.807 377.904C430.703 379.006 429.206 379.624 427.645 379.625H396.909V383.15H464.378C466.877 383.15 469.273 382.159 471.04 380.395C472.806 378.631 473.799 376.238 473.799 373.743V371.818C473.798 369.324 472.805 366.932 471.038 365.168C469.272 363.404 466.876 362.413 464.378 362.411V362.419Z" fill="#F45F14"/>
<path d="M427.637 379.625C429.197 379.623 430.693 379.004 431.797 377.903C432.901 376.802 433.523 375.309 433.527 373.751V371.826C433.525 370.267 432.904 368.772 431.799 367.67C430.695 366.568 429.199 365.947 427.637 365.945H396.9V362.419H429.102C431.6 362.419 433.996 363.411 435.763 365.175C437.53 366.939 438.522 369.331 438.523 371.826V373.751C438.522 376.246 437.53 378.639 435.763 380.403C433.996 382.167 431.6 383.158 429.102 383.158H396.9V379.633H427.637V379.625Z" fill="#D3380F"/>
<path d="M428.15 365.969C429.617 366.098 430.982 366.771 431.978 367.855C432.973 368.939 433.526 370.356 433.527 371.826V373.751C433.526 375.221 432.972 376.637 431.977 377.719C430.982 378.802 429.616 379.473 428.15 379.6C428.82 377.359 429.133 375.026 429.077 372.687C429.149 370.412 428.836 368.14 428.15 365.969Z" fill="#353C4F"/>
<path d="M467.331 448.861C468.896 448.86 470.397 448.239 471.504 447.135C472.611 446.031 473.235 444.534 473.238 442.971V437.715C473.237 436.154 472.615 434.656 471.509 433.552C470.403 432.448 468.903 431.827 467.339 431.826H399.854C401.515 434.198 402.388 437.031 402.351 439.925C402.351 445.749 399.854 448.861 399.854 448.861H467.339H467.331Z" fill="#E2E0C5"/>
<path d="M461.132 431.826H448.432C448.432 431.826 449.685 434.45 449.685 440.161C449.685 445.871 448.432 448.861 448.432 448.861H461.132V431.826Z" fill="#353C4F"/>
<path d="M448.424 449.584C448.329 449.584 448.235 449.565 448.147 449.527C447.97 449.451 447.83 449.309 447.757 449.132C447.684 448.954 447.684 448.754 447.757 448.576C447.765 448.552 448.953 445.628 448.953 440.152C448.953 434.71 447.781 432.151 447.773 432.126C447.732 432.04 447.709 431.946 447.704 431.851C447.7 431.756 447.714 431.66 447.747 431.57C447.779 431.481 447.829 431.398 447.894 431.328C447.958 431.257 448.036 431.2 448.123 431.16C448.297 431.078 448.496 431.069 448.677 431.132C448.858 431.196 449.007 431.329 449.091 431.501C449.148 431.615 450.409 434.336 450.409 440.152C450.409 445.969 449.156 449.007 449.099 449.129C449.045 449.261 448.952 449.374 448.834 449.453C448.715 449.533 448.575 449.575 448.432 449.576L448.424 449.584Z" fill="#353C4F"/>
<path d="M467.331 428.292H396.542V431.826H447.561C449.126 431.827 450.625 432.448 451.731 433.552C452.837 434.656 453.459 436.154 453.46 437.715V442.971C453.459 444.533 452.837 446.03 451.731 447.134C450.625 448.239 449.126 448.86 447.561 448.861H396.542V452.394H467.331C468.571 452.395 469.799 452.153 470.945 451.679C472.091 451.206 473.133 450.512 474.01 449.637C474.887 448.762 475.583 447.723 476.058 446.579C476.532 445.435 476.777 444.209 476.777 442.971V437.715C476.777 436.477 476.532 435.251 476.058 434.107C475.583 432.964 474.887 431.924 474.01 431.049C473.133 430.174 472.091 429.48 470.945 429.007C469.799 428.534 468.571 428.291 467.331 428.292Z" fill="#0B5384"/>
<path d="M476.012 428.292H448.139C449.379 428.291 450.607 428.534 451.753 429.007C452.899 429.48 453.94 430.174 454.818 431.049C455.695 431.924 456.391 432.964 456.866 434.107C457.34 435.251 457.585 436.477 457.585 437.715V442.971C457.585 444.209 457.34 445.435 456.866 446.579C456.391 447.723 455.695 448.762 454.818 449.637C453.94 450.512 452.899 451.206 451.753 451.679C450.607 452.153 449.379 452.395 448.139 452.394H476.012C477.252 452.395 478.48 452.153 479.626 451.679C480.772 451.206 481.813 450.512 482.691 449.637C483.568 448.762 484.264 447.723 484.738 446.579C485.213 445.435 485.458 444.209 485.458 442.971V437.715C485.458 436.477 485.213 435.251 484.738 434.107C484.264 432.964 483.568 431.924 482.691 431.049C481.813 430.174 480.772 429.48 479.626 429.007C478.48 428.534 477.252 428.291 476.012 428.292Z" fill="#117EC9"/>
<path opacity="0.3" d="M455.437 448.95C454.552 450.028 453.438 450.896 452.176 451.492C450.914 452.087 449.535 452.396 448.139 452.394H476.012C477.408 452.396 478.787 452.087 480.049 451.492C481.311 450.896 482.425 450.028 483.31 448.95H455.437Z" fill="#005AA6"/>
<path d="M476.012 428.292H448.139C449.947 428.293 451.716 428.812 453.237 429.789C454.757 430.765 455.964 432.158 456.714 433.8H484.587C483.837 432.158 482.63 430.765 481.109 429.789C479.589 428.812 477.82 428.293 476.012 428.292Z" fill="#18AED6"/>
<path d="M433.218 501.809C431.658 501.811 430.162 502.43 429.058 503.531C427.954 504.632 427.332 506.125 427.328 507.683V509.608C427.33 511.167 427.952 512.662 429.056 513.764C430.16 514.866 431.657 515.487 433.218 515.489H468.478C468.478 515.489 465.989 514.035 465.989 509.064C465.989 503.255 468.478 501.809 468.478 501.809H433.218Z" fill="#C9E2DC"/>
<path d="M405.158 519.023H472.628V515.497H433.218C431.657 515.495 430.16 514.875 429.056 513.772C427.952 512.67 427.33 511.175 427.328 509.616V507.691C427.331 506.132 427.952 504.639 429.057 503.538C430.161 502.437 431.658 501.818 433.218 501.817H472.628V498.292H405.158C402.66 498.292 400.263 499.283 398.497 501.047C396.73 502.811 395.737 505.204 395.737 507.699V509.624C395.739 512.118 396.732 514.51 398.498 516.274C400.265 518.038 402.66 519.029 405.158 519.031V519.023Z" fill="#0C8C8C"/>
<path d="M433.218 501.809C431.658 501.811 430.162 502.43 429.058 503.531C427.954 504.632 427.332 506.125 427.328 507.683V509.608C427.33 511.167 427.952 512.662 429.056 513.764C430.16 514.866 431.657 515.487 433.218 515.489H472.627V519.015H431.754C429.255 519.015 426.859 518.023 425.092 516.259C423.325 514.495 422.333 512.103 422.333 509.608V507.683C422.333 505.188 423.325 502.795 425.092 501.031C426.859 499.267 429.255 498.276 431.754 498.276H472.627V501.801H433.218V501.809Z" fill="#01A9B4"/>
<path d="M432.706 515.465C431.238 515.336 429.873 514.663 428.878 513.579C427.882 512.495 427.33 511.078 427.328 509.608V507.683C427.33 506.213 427.883 504.797 428.878 503.715C429.874 502.632 431.239 501.961 432.706 501.834C432.035 504.075 431.722 506.408 431.778 508.747C431.706 511.022 432.02 513.294 432.706 515.465Z" fill="#353C4F"/>
<path d="M396.209 455.53C394.789 455.531 393.428 456.095 392.425 457.097C391.421 458.099 390.857 459.458 390.855 460.875V465.644C390.857 467.061 391.421 468.42 392.425 469.422C393.428 470.424 394.789 470.988 396.209 470.989H480.706C479.197 468.839 478.403 466.27 478.436 463.645C478.436 458.365 480.706 455.546 480.706 455.546H396.209V455.53Z" fill="#DAEAE5"/>
<path d="M425.139 470.981H436.66C436.66 470.981 435.529 468.609 435.529 463.418C435.529 458.227 436.66 455.53 436.66 455.53H425.139V470.981Z" fill="#353C4F"/>
<path d="M436.66 454.88C436.746 454.881 436.831 454.897 436.912 454.929C436.992 454.962 437.065 455.01 437.126 455.072C437.187 455.133 437.236 455.206 437.268 455.286C437.301 455.366 437.317 455.452 437.316 455.539C437.315 455.625 437.296 455.711 437.262 455.79C436.456 458.253 436.09 460.837 436.18 463.426C436.18 468.357 437.237 470.68 437.253 470.705C437.329 470.863 437.338 471.045 437.28 471.21C437.221 471.375 437.099 471.511 436.94 471.586C436.782 471.662 436.6 471.671 436.434 471.612C436.268 471.554 436.133 471.432 436.057 471.273C436.009 471.168 434.862 468.706 434.862 463.434C434.862 458.162 436.001 455.408 436.049 455.295C436.1 455.174 436.184 455.072 436.293 454.999C436.401 454.927 436.529 454.888 436.66 454.888V454.88Z" fill="#8DCCDB"/>
<path d="M404.882 474.19H483.7V470.989H437.432C436.013 470.988 434.652 470.424 433.648 469.422C432.645 468.42 432.08 467.061 432.079 465.644V460.875C432.08 459.458 432.645 458.099 433.648 457.097C434.652 456.095 436.013 455.531 437.432 455.53H483.7V452.329H404.882C402.612 452.329 400.435 453.23 398.83 454.832C397.224 456.435 396.323 458.609 396.323 460.875V465.644C396.323 467.91 397.224 470.084 398.83 471.687C400.435 473.289 402.612 474.19 404.882 474.19Z" fill="#AF6127"/>
<path d="M396.209 474.19H436.92C434.65 474.19 432.473 473.289 430.868 471.687C429.263 470.084 428.361 467.91 428.361 465.644V460.875C428.361 458.609 429.263 456.435 430.868 454.832C432.473 453.23 434.65 452.329 436.92 452.329H396.209C393.939 452.329 391.762 453.23 390.157 454.832C388.552 456.435 387.65 458.609 387.65 460.875V465.644C387.65 467.91 388.552 470.084 390.157 471.687C391.762 473.289 393.939 474.19 396.209 474.19Z" fill="#894229"/>
<path d="M456.413 494.06C458.242 494.057 459.996 493.331 461.289 492.039C462.582 490.748 463.31 488.997 463.312 487.171V484.913C463.31 483.086 462.582 481.336 461.289 480.044C459.996 478.753 458.242 478.026 456.413 478.024H407.322C407.322 478.024 410.243 479.722 410.243 485.554C410.243 492.362 407.322 494.06 407.322 494.06H456.413Z" fill="#E2E0C5"/>
<path d="M474.133 473.889H402.457V478.024H456.413C458.242 478.026 459.995 478.753 461.289 480.044C462.582 481.336 463.31 483.086 463.312 484.913V487.171C463.308 488.997 462.58 490.746 461.287 492.037C459.994 493.328 458.241 494.055 456.413 494.06H402.457V498.194H474.133C475.582 498.195 477.018 497.909 478.358 497.355C479.697 496.802 480.914 495.99 481.939 494.966C482.965 493.942 483.778 492.727 484.333 491.39C484.887 490.052 485.173 488.619 485.173 487.171V484.913C485.171 481.989 484.008 479.186 481.938 477.119C479.868 475.052 477.06 473.89 474.133 473.889Z" fill="#FBC41C"/>
<path d="M456.413 494.06C458.242 494.057 459.995 493.331 461.289 492.039C462.582 490.748 463.31 488.997 463.312 487.171V484.913C463.31 483.086 462.582 481.336 461.289 480.044C459.995 478.753 458.242 478.026 456.413 478.024H402.457V473.889H458.13C459.58 473.889 461.015 474.174 462.355 474.728C463.694 475.282 464.911 476.094 465.936 477.118C466.962 478.141 467.775 479.356 468.33 480.694C468.884 482.031 469.17 483.465 469.17 484.913V487.171C469.169 490.094 468.005 492.897 465.935 494.964C463.865 497.031 461.057 498.193 458.13 498.194H402.457V494.06H456.413Z" fill="#ED9D11"/>
<path d="M457.015 478.056C458.734 478.206 460.335 478.993 461.502 480.261C462.669 481.53 463.317 483.19 463.32 484.913V487.171C463.317 488.894 462.669 490.553 461.502 491.822C460.335 493.091 458.734 493.878 457.015 494.027C457.798 491.401 458.163 488.668 458.097 485.928C458.182 483.262 457.816 480.601 457.015 478.056Z" fill="#353C4F"/>
<path d="M399.666 386.221C398.294 386.222 396.979 386.766 396.008 387.735C395.038 388.704 394.493 390.017 394.492 391.387V396.002C394.493 397.372 395.038 398.685 396.008 399.654C396.979 400.623 398.294 401.167 399.666 401.168H460.88C459.422 399.086 458.656 396.6 458.691 394.06C458.691 388.95 460.88 386.221 460.88 386.221H399.666Z" fill="#E4F4F0"/>
<path d="M409.283 401.168H420.429C420.429 401.168 419.331 398.869 419.331 393.857C419.331 388.845 420.429 386.229 420.429 386.229H409.283V401.176V401.168Z" fill="#353C4F"/>
<path d="M420.429 385.587C420.513 385.588 420.596 385.604 420.673 385.636C420.75 385.668 420.82 385.715 420.879 385.773C420.938 385.832 420.985 385.902 421.016 385.979C421.048 386.056 421.064 386.139 421.064 386.222C421.064 386.305 421.047 386.388 421.015 386.465C420.233 388.845 419.878 391.345 419.965 393.849C419.965 398.625 420.99 400.867 420.998 400.892C421.038 400.967 421.061 401.05 421.068 401.135C421.074 401.22 421.064 401.305 421.036 401.386C421.009 401.467 420.966 401.541 420.909 401.605C420.853 401.668 420.784 401.72 420.707 401.757C420.63 401.793 420.546 401.814 420.461 401.817C420.376 401.821 420.291 401.807 420.211 401.778C420.131 401.748 420.058 401.702 419.996 401.643C419.935 401.585 419.885 401.514 419.851 401.436C419.802 401.339 418.696 398.95 418.696 393.849C418.696 388.747 419.794 386.083 419.843 385.969C419.892 385.854 419.974 385.756 420.078 385.687C420.182 385.618 420.304 385.58 420.429 385.579V385.587Z" fill="#8DCCDB"/>
<path d="M389.684 404.271H462.474V401.168H421.185C419.813 401.167 418.498 400.623 417.527 399.654C416.557 398.685 416.012 397.372 416.011 396.002V391.387C416.012 390.017 416.557 388.704 417.527 387.735C418.498 386.766 419.813 386.222 421.185 386.221H462.474V383.126H389.684C388.596 383.125 387.519 383.339 386.514 383.754C385.509 384.17 384.596 384.779 383.827 385.547C383.058 386.315 382.447 387.227 382.031 388.23C381.615 389.234 381.401 390.309 381.402 391.396V396.01C381.403 398.203 382.275 400.306 383.828 401.856C385.381 403.407 387.488 404.279 389.684 404.279V404.271Z" fill="#01A9B4"/>
<path opacity="0.4" d="M389.684 404.271H420.681C418.485 404.27 416.378 403.399 414.825 401.848C413.272 400.298 412.4 398.195 412.399 396.001V391.387C412.4 389.194 413.272 387.091 414.825 385.541C416.378 383.99 418.485 383.118 420.681 383.118H389.684C388.596 383.117 387.519 383.331 386.514 383.746C385.509 384.162 384.596 384.771 383.827 385.539C383.058 386.307 382.447 387.219 382.031 388.222C381.615 389.226 381.401 390.301 381.402 391.387V396.001C381.403 398.195 382.275 400.298 383.828 401.848C385.381 403.399 387.488 404.27 389.684 404.271Z" fill="#353C4F"/>
<path opacity="0.2" d="M436.757 379.227C435.888 380.443 434.741 381.434 433.411 382.118C432.08 382.802 430.606 383.158 429.11 383.158H464.378C465.875 383.158 467.351 382.802 468.682 382.118C470.014 381.434 471.163 380.443 472.034 379.227H436.765H436.757Z" fill="#353C4F"/>
<path d="M480.609 519.023H453.98C455.746 519.024 457.477 519.52 458.974 520.455C460.471 521.39 461.676 522.726 462.45 524.311H489.078C488.304 522.726 487.099 521.39 485.602 520.455C484.105 519.52 482.375 519.024 480.609 519.023Z" fill="#F96921"/>
<path d="M388.708 456.749H429.419C430.158 455.411 431.243 454.295 432.561 453.518C433.879 452.74 435.381 452.33 436.912 452.329H396.201C394.67 452.329 393.167 452.739 391.849 453.516C390.531 454.294 389.446 455.41 388.708 456.749Z" fill="#9E5B2E"/>
<path d="M292.56 445.758C294.12 445.756 295.616 445.136 296.72 444.036C297.824 442.935 298.446 441.442 298.45 439.884V437.959C298.448 436.4 297.826 434.905 296.722 433.803C295.618 432.7 294.121 432.08 292.56 432.078H265.98C265.98 432.078 268.47 433.532 268.47 438.503C268.47 444.312 265.98 445.758 265.98 445.758H292.56Z" fill="#E2E0C5"/>
<path d="M320.62 428.552H261.823V432.078H292.56C294.121 432.08 295.618 432.7 296.722 433.803C297.826 434.905 298.448 436.4 298.45 437.959V439.884C298.448 441.443 297.826 442.936 296.722 444.037C295.617 445.139 294.121 445.757 292.56 445.758H261.823V449.283H320.62C323.119 449.283 325.515 448.292 327.282 446.528C329.048 444.764 330.041 442.371 330.041 439.876V437.951C330.04 435.457 329.047 433.065 327.28 431.301C325.514 429.537 323.118 428.546 320.62 428.544V428.552Z" fill="#FBC41C"/>
<path d="M296.4 444.336C295.333 445.258 293.97 445.765 292.56 445.766H264.752V449.291H320.62C322.323 449.292 323.993 448.831 325.455 447.958C326.916 447.086 328.113 445.834 328.918 444.336H296.392H296.4Z" fill="#ED9D11"/>
<path d="M292.56 445.766C294.12 445.764 295.616 445.145 296.72 444.044C297.824 442.943 298.446 441.45 298.45 439.892V437.967C298.448 436.408 297.826 434.913 296.722 433.811C295.618 432.709 294.121 432.088 292.56 432.086H261.823V428.56H294.024C296.523 428.56 298.919 429.552 300.686 431.316C302.453 433.08 303.445 435.472 303.446 437.967V439.892C303.445 442.387 302.453 444.78 300.686 446.544C298.919 448.308 296.523 449.299 294.024 449.299H261.823V445.774H292.56V445.766Z" fill="#EA8913"/>
<path d="M293.073 432.102C294.54 432.231 295.905 432.904 296.901 433.988C297.896 435.072 298.449 436.489 298.45 437.959V439.884C298.449 441.354 297.896 442.77 296.9 443.852C295.905 444.935 294.539 445.606 293.073 445.733C293.743 443.492 294.056 441.159 294 438.82C294.072 436.545 293.759 434.273 293.073 432.102Z" fill="#353C4F"/>
<path d="M312.744 539.242C314.573 539.24 316.327 538.513 317.62 537.222C318.914 535.931 319.641 534.18 319.644 532.353V530.095C319.641 528.269 318.914 526.518 317.62 525.227C316.327 523.935 314.573 523.209 312.744 523.206H254.981C254.981 523.206 257.902 524.904 257.902 530.737C257.902 537.544 254.981 539.242 254.981 539.242H312.744Z" fill="#E2E0C5"/>
<path d="M330.464 519.08H250.108V523.215H312.737C314.566 523.217 316.319 523.944 317.612 525.235C318.906 526.526 319.633 528.277 319.636 530.103V532.362C319.631 534.187 318.903 535.937 317.61 537.228C316.317 538.519 314.565 539.246 312.737 539.25H250.108V543.385H330.464C331.914 543.385 333.35 543.1 334.689 542.546C336.029 541.992 337.246 541.18 338.271 540.157C339.296 539.133 340.109 537.918 340.664 536.58C341.219 535.243 341.505 533.809 341.504 532.362V530.103C341.503 527.18 340.34 524.377 338.269 522.31C336.199 520.243 333.392 519.081 330.464 519.08Z" fill="#18AED6"/>
<path opacity="0.4" d="M312.745 539.242C314.574 539.24 316.327 538.513 317.621 537.222C318.914 535.93 319.642 534.18 319.644 532.353V530.095C319.642 528.269 318.914 526.518 317.621 525.227C316.327 523.935 314.574 523.209 312.745 523.206H250.116V519.072H314.462C315.911 519.071 317.347 519.357 318.687 519.911C320.026 520.464 321.243 521.276 322.268 522.3C323.294 523.324 324.107 524.539 324.661 525.876C325.216 527.214 325.502 528.647 325.502 530.095V532.353C325.5 535.277 324.337 538.08 322.267 540.147C320.196 542.214 317.389 543.376 314.462 543.377H250.116V539.242H312.745Z" fill="#353C4F"/>
<path d="M313.339 523.239C315.058 523.388 316.658 524.175 317.825 525.444C318.992 526.713 319.641 528.372 319.644 530.095V532.353C319.641 534.076 318.992 535.736 317.825 537.005C316.658 538.274 315.058 539.06 313.339 539.21C314.121 536.583 314.486 533.85 314.421 531.111C314.505 528.445 314.139 525.784 313.339 523.239Z" fill="#353C4F"/>
<path d="M252.459 473.532H341.545V477.658H279.006C277.179 477.66 275.427 478.386 274.135 479.676C272.844 480.966 272.117 482.715 272.115 484.539V486.797C272.117 488.62 272.844 490.368 274.136 491.657C275.428 492.945 277.18 493.669 279.006 493.67H341.545V497.796H252.459C249.535 497.795 246.732 496.635 244.665 494.571C242.598 492.507 241.436 489.708 241.435 486.789V484.531C241.436 481.612 242.598 478.812 244.665 476.748C246.732 474.684 249.535 473.524 252.459 473.523V473.532Z" fill="#894229"/>
<path d="M279.006 493.67C277.18 493.668 275.43 492.944 274.138 491.655C272.846 490.367 272.119 488.62 272.115 486.797V484.539C272.117 482.715 272.844 480.966 274.135 479.676C275.427 478.386 277.179 477.66 279.006 477.658H336.68C336.68 477.658 333.767 479.356 333.767 485.173C333.767 491.972 336.68 493.662 336.68 493.662H279.006V493.67Z" fill="#E4F4F0"/>
<path d="M279.006 493.67C277.18 493.668 275.43 492.944 274.138 491.655C272.846 490.367 272.119 488.62 272.115 486.797V484.539C272.117 482.715 272.844 480.966 274.136 479.676C275.427 478.386 277.179 477.66 279.006 477.658H341.545V473.532H277.297C275.85 473.531 274.416 473.816 273.078 474.369C271.741 474.922 270.525 475.733 269.502 476.755C268.478 477.777 267.666 478.991 267.112 480.326C266.558 481.662 266.273 483.093 266.273 484.539V486.797C266.274 489.716 267.436 492.516 269.503 494.58C271.57 496.644 274.374 497.804 277.297 497.804H341.545V493.678H279.006V493.67Z" fill="#AF6127"/>
<path d="M278.412 477.691C276.697 477.842 275.1 478.629 273.936 479.896C272.772 481.163 272.126 482.819 272.123 484.539V486.797C272.127 488.516 272.774 490.172 273.938 491.439C275.101 492.706 276.697 493.493 278.412 493.645C277.63 491.021 277.265 488.291 277.33 485.554C277.245 482.894 277.611 480.238 278.412 477.699V477.691Z" fill="#353C4F"/>
<path d="M257.902 449.113H335.305V452.695H257.902C256.316 452.698 254.795 453.329 253.674 454.45C252.553 455.571 251.923 457.09 251.922 458.674V464.003C251.923 465.587 252.553 467.106 253.674 468.227C254.795 469.348 256.316 469.979 257.902 469.982H335.305V473.564H257.902C256.645 473.564 255.4 473.316 254.239 472.836C253.078 472.355 252.023 471.651 251.134 470.763C250.246 469.875 249.541 468.821 249.061 467.661C248.58 466.501 248.334 465.258 248.334 464.003V458.674C248.334 456.139 249.342 453.708 251.136 451.915C252.93 450.122 255.364 449.114 257.902 449.113Z" fill="#93B224"/>
<path d="M257.902 469.982C254.607 469.982 253.395 467.301 253.395 464.003V458.674C253.395 455.376 254.607 452.695 257.902 452.695H331.082C329.394 455.099 328.506 457.972 328.544 460.908C328.544 466.805 331.082 469.974 331.082 469.974H257.902V469.982Z" fill="#E4F4F0"/>
<g opacity="0.3">
<path d="M281.748 461.103C281.651 461.103 281.555 461.084 281.466 461.047C281.376 461.01 281.295 460.956 281.227 460.887C281.159 460.819 281.104 460.738 281.067 460.649C281.03 460.56 281.011 460.464 281.011 460.368C281.011 460.271 281.03 460.175 281.067 460.086C281.104 459.997 281.159 459.916 281.227 459.848C281.295 459.779 281.376 459.725 281.466 459.688C281.555 459.651 281.651 459.632 281.748 459.632H298.361C298.457 459.632 298.552 459.651 298.641 459.688C298.73 459.725 298.81 459.779 298.878 459.847C298.946 459.914 299 459.995 299.037 460.084C299.074 460.172 299.093 460.268 299.093 460.364C299.093 460.46 299.074 460.555 299.037 460.643C299 460.732 298.946 460.813 298.878 460.88C298.81 460.948 298.73 461.002 298.641 461.039C298.552 461.076 298.457 461.095 298.361 461.095H281.748V461.103Z" fill="#353C4F"/>
</g>
<g opacity="0.3">
<path d="M280.414 473.637L283.22 460.372H296.888L294.073 473.637H280.414Z" fill="#0B2025"/>
</g>
<path d="M283.22 482.224L290.054 479.973L296.888 482.224V460.372H283.22V482.224Z" fill="#D3380F"/>
<path d="M296.888 460.372H283.22V473.515H296.888V460.372Z" fill="#F45F14"/>
<path d="M257.097 452.76C257.097 452.76 255.982 455.14 255.982 461.103C255.982 467.065 257.097 469.925 257.097 469.925C255.665 469.728 254.353 469.021 253.402 467.934C252.451 466.847 251.926 465.454 251.922 464.011V458.682C251.926 457.239 252.451 455.846 253.402 454.759C254.353 453.672 255.665 452.965 257.097 452.768V452.76Z" fill="#353C4F"/>
<path d="M257.763 453.069C257.763 453.069 256.714 455.433 256.714 461.103C256.714 466.773 257.772 469.624 257.78 469.657C257.82 469.76 257.836 469.871 257.829 469.982C257.291 469.987 256.756 469.896 256.25 469.714C255.507 466.908 255.167 464.012 255.241 461.111C255.241 456.383 255.884 454.019 256.226 452.996C256.739 452.807 257.282 452.71 257.829 452.711C257.843 452.837 257.82 452.964 257.763 453.077V453.069Z" fill="#AF6127"/>
<path d="M340.463 515.936C341.835 515.935 343.151 515.391 344.121 514.422C345.091 513.453 345.636 512.14 345.637 510.769V506.155C345.636 504.785 345.091 503.472 344.121 502.503C343.151 501.534 341.835 500.989 340.463 500.989H249.758C251.215 503.071 251.981 505.557 251.946 508.097C251.946 513.206 249.758 515.936 249.758 515.936H340.463Z" fill="#E2E0C5"/>
<path d="M320.864 500.989H309.718C309.718 500.989 310.817 503.288 310.817 508.3C310.817 513.312 309.718 515.936 309.718 515.936H320.864V500.989Z" fill="#353C4F"/>
<path d="M309.718 516.57C309.634 516.569 309.551 516.553 309.474 516.521C309.397 516.489 309.327 516.442 309.268 516.383C309.209 516.324 309.163 516.254 309.131 516.177C309.099 516.1 309.083 516.018 309.083 515.935C309.083 515.851 309.1 515.769 309.132 515.692C309.914 513.312 310.269 510.812 310.182 508.308C310.182 503.507 309.157 501.289 309.149 501.265C309.083 501.114 309.079 500.944 309.137 500.79C309.194 500.636 309.31 500.51 309.459 500.439C309.608 500.369 309.778 500.359 309.934 500.411C310.09 500.464 310.22 500.575 310.296 500.721C310.345 500.818 311.451 503.207 311.451 508.308C311.451 513.41 310.353 516.074 310.304 516.188C310.255 516.303 310.173 516.401 310.069 516.47C309.965 516.539 309.843 516.577 309.718 516.578V516.57Z" fill="#9E5B2E"/>
<path d="M331.79 497.886H246.854V500.989H308.961C310.334 500.989 311.649 501.534 312.62 502.503C313.59 503.472 314.135 504.785 314.136 506.155V510.769C314.135 512.14 313.59 513.453 312.62 514.422C311.649 515.391 310.334 515.935 308.961 515.936H246.854V519.031H331.79C332.878 519.031 333.955 518.818 334.96 518.402C335.965 517.987 336.878 517.378 337.648 516.61C338.417 515.842 339.027 514.93 339.443 513.927C339.859 512.923 340.073 511.847 340.072 510.761V506.147C340.072 503.954 339.199 501.851 337.646 500.3C336.093 498.75 333.987 497.878 331.79 497.878V497.886Z" fill="#EA8913"/>
<path d="M340.463 497.886H309.466C311.662 497.886 313.769 498.758 315.322 500.309C316.875 501.859 317.748 503.962 317.748 506.155V510.77C317.748 512.963 316.875 515.066 315.322 516.616C313.769 518.167 311.662 519.039 309.466 519.039H340.463C341.551 519.04 342.628 518.826 343.633 518.411C344.638 517.995 345.551 517.386 346.32 516.618C347.09 515.85 347.7 514.938 348.116 513.935C348.532 512.931 348.746 511.856 348.745 510.77V506.155C348.745 503.962 347.872 501.859 346.319 500.309C344.766 498.758 342.659 497.886 340.463 497.886Z" fill="#FBC41C"/>
<path d="M316.707 514.782C315.99 516.07 314.941 517.143 313.67 517.89C312.398 518.637 310.95 519.031 309.474 519.031H340.471C341.948 519.032 343.398 518.639 344.671 517.892C345.944 517.145 346.994 516.071 347.712 514.782H316.715H316.707Z" fill="#ED9D11"/>
<path d="M104.739 235.096L45.9263 203.024L46.0402 250.124C46.0402 259.507 56.0715 267.703 72.2453 276.525C88.4191 285.347 123.59 285.347 139.764 276.525C155.937 267.703 163.691 257.809 163.438 250.124L163.552 203.024L104.739 235.096Z" fill="#314444"/>
<path opacity="0.4" d="M45.9261 205.331L46.04 242.025C54.2977 247.996 92.8773 271.846 105.569 271.895C118.545 271.944 156.848 248.857 163.43 242.878L163.544 207.037L104.731 201.172L45.918 205.331H45.9261Z" fill="#231F20"/>
<path d="M104.698 168.069L41.2316 202.334L23.5283 205.632V211.887L104.698 256.152L186.519 211.887V205.632L168.669 202.334L104.698 168.069Z" fill="#324446"/>
<path d="M23.5283 205.632L104.698 249.888L186.519 205.632L104.698 161.806L23.5283 205.632Z" fill="#4E6566"/>
<path d="M59.6997 250.002L62.6611 249.49V227.021L59.6753 225.388L59.6997 250.002Z" fill="#FBB526"/>
<path d="M59.6753 225.388L62.6611 227.021L107.57 202.724L104.796 200.62L59.6753 225.388Z" fill="#FBB526"/>
<path d="M105.024 199.198C100.598 199.198 97.0103 200.912 97.0103 203.024C97.0103 205.136 100.598 206.85 105.024 206.85C109.45 206.85 113.038 205.136 113.038 203.024C113.038 200.912 109.45 199.198 105.024 199.198Z" fill="#0B2025"/>
<path d="M113.021 200.474H97.0181V203.219H113.021V200.474Z" fill="#0B2025"/>
<path d="M105.024 196.794C100.598 196.794 97.0103 198.508 97.0103 200.62C97.0103 202.732 100.598 204.446 105.024 204.446C109.45 204.446 113.038 202.732 113.038 200.62C113.038 198.508 109.45 196.794 105.024 196.794Z" fill="#314444"/>
<path d="M64.7033 258.751C65.7034 258 66.4407 256.953 66.8102 255.76C67.1797 254.566 67.1627 253.286 66.7614 252.103C66.3602 250.919 65.5952 249.892 64.5755 249.168C63.5557 248.444 62.3332 248.06 61.0819 248.07C59.8307 248.08 58.6145 248.484 57.6065 249.224C56.5986 249.965 55.8503 251.004 55.4682 252.194C55.0861 253.383 55.0897 254.663 55.4785 255.851C55.8672 257.038 56.6213 258.073 57.6334 258.808C55.552 259.558 53.7542 260.932 52.4868 262.743C51.2194 264.554 50.5447 266.712 50.5553 268.922C50.5553 268.922 50.6611 281.269 50.6692 283.454C50.7099 290.928 72.1149 290.473 72.0742 283.333C72.0417 277.126 71.9603 268.8 71.9603 268.8C71.9486 266.577 71.2422 264.413 69.9398 262.61C68.6374 260.807 66.804 259.455 64.6952 258.743L64.7033 258.751Z" fill="#F4A721"/>
<path d="M67.0628 253.991C67.0537 252.624 66.5728 251.303 65.7014 250.249C64.8299 249.195 63.6212 248.474 62.279 248.207C62.3446 248.274 62.4217 248.329 62.5068 248.369C63.6531 249.098 64.4658 250.248 64.7688 251.571C65.0718 252.894 64.8408 254.283 64.1258 255.437C62.1977 258.662 57.0478 258.434 56.0471 257.053C56.4559 257.741 56.998 258.34 57.6417 258.816C56.9175 259.074 56.2244 259.412 55.5752 259.823H55.5833C56.8932 259.287 58.4308 260.749 62.279 260.595C65.8099 260.457 67.0791 259.994 68.2099 260.749C67.1773 259.869 65.9877 259.191 64.7035 258.751C65.4417 258.197 66.0396 257.477 66.4493 256.651C66.859 255.824 67.0691 254.913 67.0628 253.991Z" fill="#DD7C12"/>
</g>
<defs>
<clipPath id="clip0_470_2633">
<rect width="588" height="547" fill="white"/>
</clipPath>
</defs>
</svg>
