<svg width="15" height="14" viewBox="0 0 15 14" fill="none" xmlns="http://www.w3.org/2000/svg">
<g id="Group">
<g id="Group_2">
<path id="Vector" d="M6.26719 10.8665C6.26719 9.13587 4.86423 7.73291 3.13359 7.73291C1.40296 7.73291 0 9.13587 0 10.8665C0 12.5971 1.40296 14.0001 3.13359 14.0001C4.86423 14.0001 6.26719 12.5971 6.26719 10.8665Z" fill="#171C8F"/>
<path id="Vector_2" d="M9.33878 13.8188L11.0477 12.1099L12.7565 13.8188L13.9999 12.5754L12.291 10.8661L13.9999 9.15719L12.7565 7.91382L11.0477 9.62269L9.33878 7.91382L8.09497 9.15719L9.80385 10.8661L8.09497 12.5754L9.33878 13.8188Z" fill="#171C8F"/>
<path id="Vector_3" d="M6.26719 3.13359C6.26719 1.40296 4.86423 0 3.13359 0C1.40296 0 0 1.40296 0 3.13359C0 4.86423 1.40296 6.26719 3.13359 6.26719C4.86423 6.26719 6.26719 4.86423 6.26719 3.13359Z" fill="#171C8F"/>
</g>
<path id="Vector_4" fill-rule="evenodd" clip-rule="evenodd" d="M15 1.02326L14.0861 0L10.5549 3.93023L8.91395 2.11628L8 3.13953C8.85163 4.09302 9.70326 5.04651 10.5549 6L15 1.02326Z" fill="#171C8F"/>
</g>
</svg>
