<svg width="13" height="18" viewBox="0 0 13 18" fill="none" xmlns="http://www.w3.org/2000/svg">
<g id="Group 1">
<g id="Group">
<path id="Vector" d="M12.5716 12.0717C11.3466 11.4782 9.19483 12.709 7.46403 13.7002C6.7799 14.0948 6.13086 14.4661 5.85019 14.5246C5.60753 14.5714 5.41457 14.5422 5.25377 14.4311C5.06081 14.2995 4.94971 14.0773 4.88831 13.9107C5.00526 13.8756 5.14852 13.8493 5.31809 13.8434C7.01087 13.7791 8.07215 13.1534 8.08969 12.212C8.09554 11.7706 7.92305 11.525 7.77394 11.3963C7.4348 11.101 6.97286 11.1654 6.92609 11.1712C6.91147 11.1741 5.46427 11.3788 4.59303 11.2677L4.51409 11.256C3.64285 11.1449 2.81838 11.0367 2.00561 12.1828C1.39457 13.0511 0.374225 12.9225 0.333294 12.9166C0.248509 12.902 0.163723 12.9283 0.0994033 12.9839C0.0350834 13.0394 0 13.1213 0 13.2061V16.7378C0 16.884 0.111098 17.0097 0.260203 17.0272L4.65442 17.5155C4.80353 17.533 4.95263 17.5418 5.10466 17.5418C5.89697 17.5418 6.68342 17.3108 7.35294 16.8723L12.6476 13.4166C12.8815 13.2616 13.016 12.9926 12.9985 12.712C12.9809 12.4342 12.8201 12.1945 12.5716 12.0717Z" fill="#7C7C7C"/>
<path id="Vector_2" d="M1.61093 5.90281L1.94423 5.66308C2.21905 8.2271 4.39131 10.2356 7.02842 10.2356C9.84973 10.2356 12.1477 7.93766 12.1477 5.11636C12.1477 2.29505 9.84973 0 7.02842 0C4.97603 0 3.12537 1.21915 2.31845 3.10782C2.25705 3.25693 2.3243 3.42942 2.4734 3.49082C2.61958 3.55514 2.79208 3.48789 2.8564 3.33879C3.57269 1.66647 5.20992 0.584727 7.02842 0.584727C9.52813 0.584727 11.563 2.61958 11.563 5.11928C11.563 7.61899 9.52813 9.65384 7.02842 9.65384C4.73045 9.65384 2.83009 7.93474 2.5348 5.71863L2.79208 5.90574C2.8447 5.94375 2.90318 5.96129 2.96165 5.96129C3.05228 5.96129 3.14291 5.92036 3.19846 5.83849C3.29202 5.70693 3.26278 5.52567 3.13122 5.42919L2.37108 4.88247C2.26875 4.80938 2.13134 4.80938 2.02901 4.88247L1.26887 5.42919C1.1373 5.52274 1.10807 5.70693 1.20162 5.83849C1.2981 5.97006 1.47937 5.99929 1.61093 5.90281Z" fill="#7C7C7C"/>
</g>
<circle id="Ellipse 1" cx="6.93786" cy="5.11637" r="3.36218" fill="#7C7C7C"/>
<g id="Group_2">
<g id="Group_3">
<g id="Group_4">
<path id="Vector_3" d="M7.61109 6.88584C7.5606 6.8387 7.5097 6.79155 7.45922 6.7444C7.3374 6.63134 7.21599 6.51786 7.09416 6.40479C6.9473 6.26836 6.80086 6.13194 6.654 5.99551C6.52675 5.87702 6.3995 5.75853 6.27225 5.64046C6.2105 5.58288 6.14959 5.52406 6.08659 5.46773C6.08575 5.4669 6.08492 5.46606 6.08409 5.46523C6.10453 5.51446 6.12497 5.56369 6.145 5.61292C6.145 5.57329 6.145 5.53323 6.145 5.4936C6.07532 5.56327 6.00607 5.63253 5.93639 5.70221C6.01733 5.70221 6.09869 5.70221 6.17963 5.70221C6.26307 5.70221 6.34735 5.70513 6.43079 5.70137C6.62396 5.69261 6.81755 5.63545 6.97984 5.52906C7.1363 5.42643 7.27064 5.28624 7.35784 5.11978C7.44754 4.9483 7.49552 4.75304 7.48551 4.55904C7.47549 4.36754 7.41875 4.17687 7.3132 4.01583C7.20973 3.85812 7.06746 3.72211 6.8989 3.63533C6.73995 3.55356 6.56555 3.50933 6.38657 3.50933C6.20716 3.50933 6.02734 3.50933 5.84794 3.50933C5.8421 3.50933 5.83668 3.50933 5.83084 3.50933C5.77743 3.50933 5.72111 3.53269 5.68314 3.57024C5.64685 3.60654 5.61973 3.66579 5.62223 3.71794C5.62473 3.77176 5.64226 3.82766 5.68314 3.86563C5.72403 3.90318 5.7741 3.92654 5.83084 3.92654C6.00648 3.92654 6.18255 3.92654 6.3582 3.92654C6.40743 3.92654 6.45666 3.9278 6.50547 3.93405C6.48711 3.93155 6.46834 3.92905 6.44998 3.92654C6.52842 3.93697 6.60477 3.95784 6.67778 3.98829C6.66109 3.9812 6.6444 3.97411 6.62813 3.96743C6.69948 3.99789 6.76623 4.03711 6.82756 4.08425C6.81338 4.0734 6.79961 4.06256 6.78542 4.05171C6.84467 4.09802 6.89765 4.15101 6.94396 4.21025C6.93312 4.19606 6.92227 4.1823 6.91142 4.16811C6.95857 4.22944 6.99778 4.2962 7.02824 4.36754C7.02115 4.35085 7.01405 4.33416 7.00738 4.31789C7.03784 4.3909 7.0587 4.46725 7.06913 4.54569C7.06662 4.52733 7.06412 4.50856 7.06162 4.4902C7.07163 4.56697 7.07163 4.64499 7.06162 4.72175C7.06412 4.7034 7.06662 4.68462 7.06913 4.66626C7.0587 4.7447 7.03784 4.82105 7.00738 4.89406C7.01447 4.87737 7.02156 4.86069 7.02824 4.84441C6.99778 4.91576 6.95857 4.98251 6.91142 5.04384C6.92227 5.02966 6.93312 5.01589 6.94396 5.0017C6.89765 5.06095 6.84467 5.11393 6.78542 5.16025C6.79961 5.1494 6.81338 5.13855 6.82756 5.1277C6.76623 5.17485 6.69948 5.21407 6.62813 5.24452C6.64482 5.23743 6.66151 5.23034 6.67778 5.22366C6.60477 5.25412 6.52842 5.27498 6.44998 5.28541C6.46834 5.28291 6.48711 5.2804 6.50547 5.2779C6.43121 5.2875 6.35653 5.28541 6.28185 5.28541C6.18964 5.28541 6.09785 5.28541 6.00565 5.28541C5.9827 5.28541 5.95934 5.28541 5.93639 5.28541C5.82374 5.28541 5.72779 5.38095 5.72779 5.49402C5.72779 5.53282 5.72737 5.57162 5.72779 5.61042C5.72862 5.6705 5.75324 5.72766 5.79704 5.76854C5.82374 5.79316 5.85045 5.81819 5.87715 5.84281C5.99355 5.95086 6.10995 6.05934 6.22636 6.1674C6.38072 6.31092 6.53509 6.45444 6.68946 6.59838C6.82839 6.72772 6.96774 6.85705 7.10668 6.98639C7.17552 7.05064 7.24394 7.11531 7.3132 7.17872C7.31403 7.17956 7.31528 7.18039 7.31612 7.18123C7.35617 7.21836 7.40832 7.24214 7.46381 7.24214C7.51513 7.24214 7.57604 7.21961 7.6115 7.18123C7.6478 7.14159 7.67492 7.08944 7.67242 7.03353C7.66991 6.9793 7.65197 6.92381 7.61109 6.88584Z" fill="white"/>
</g>
</g>
<g id="Group_5">
<g id="Group_6">
<path id="Vector_4" d="M5.83157 3.92613C5.905 3.92613 5.97843 3.92613 6.05186 3.92613C6.22834 3.92613 6.40482 3.92613 6.5813 3.92613C6.79408 3.92613 7.00644 3.92613 7.21922 3.92613C7.40363 3.92613 7.58804 3.92613 7.77245 3.92613C7.86215 3.92613 7.95185 3.92738 8.04113 3.92613C8.04238 3.92613 8.04364 3.92613 8.04489 3.92613C8.09829 3.92613 8.15461 3.90277 8.19258 3.86522C8.22888 3.82892 8.256 3.76968 8.25349 3.71752C8.25099 3.6637 8.23347 3.6078 8.19258 3.56983C8.15169 3.53228 8.10163 3.50892 8.04489 3.50892C7.97146 3.50892 7.89803 3.50892 7.8246 3.50892C7.64812 3.50892 7.47164 3.50892 7.29515 3.50892C7.08238 3.50892 6.87001 3.50892 6.65724 3.50892C6.47283 3.50892 6.28842 3.50892 6.10401 3.50892C6.01431 3.50892 5.92461 3.50767 5.83532 3.50892C5.83407 3.50892 5.83282 3.50892 5.83157 3.50892C5.77817 3.50892 5.72184 3.53228 5.68388 3.56983C5.64758 3.60613 5.62046 3.66537 5.62296 3.71752C5.62547 3.77135 5.64299 3.82725 5.68388 3.86522C5.72476 3.90277 5.77525 3.92613 5.83157 3.92613Z" fill="white"/>
</g>
</g>
<g id="Group_7">
<g id="Group_8">
<path id="Vector_5" d="M5.83133 4.81438C5.90476 4.81438 5.97818 4.81438 6.05161 4.81438C6.2281 4.81438 6.40458 4.81438 6.58106 4.81438C6.79384 4.81438 7.0062 4.81438 7.21898 4.81438C7.40339 4.81438 7.58779 4.81438 7.7722 4.81438C7.8619 4.81438 7.9516 4.81563 8.04089 4.81438C8.04214 4.81438 8.04339 4.81438 8.04464 4.81438C8.09805 4.81438 8.15437 4.79101 8.19234 4.75346C8.22863 4.71717 8.25575 4.65792 8.25325 4.60577C8.25075 4.55195 8.23322 4.49604 8.19234 4.45808C8.15145 4.42053 8.10138 4.39716 8.04464 4.39716C7.97121 4.39716 7.89778 4.39716 7.82435 4.39716C7.64787 4.39716 7.47139 4.39716 7.29491 4.39716C7.08213 4.39716 6.86977 4.39716 6.65699 4.39716C6.47258 4.39716 6.28817 4.39716 6.10377 4.39716C6.01407 4.39716 5.92436 4.39591 5.83508 4.39716C5.83383 4.39716 5.83258 4.39716 5.83133 4.39716C5.77792 4.39716 5.7216 4.42053 5.68363 4.45808C5.64733 4.49437 5.62022 4.55362 5.62272 4.60577C5.62522 4.65959 5.64275 4.7155 5.68363 4.75346C5.72452 4.7906 5.775 4.81438 5.83133 4.81438Z" fill="white"/>
</g>
</g>
</g>
</g>
</svg>
