<svg width="13" height="13" viewBox="0 0 13 13" fill="none" xmlns="http://www.w3.org/2000/svg">
<path d="M12.9059 6.91981C12.8624 7.05508 12.7862 7.17169 12.6805 7.26964C12.483 7.46711 12.1892 7.58839 11.9108 7.58839H11.8922C11.7507 7.58994 11.6108 7.58839 11.4693 7.58839H7.58839V11.9108C7.58839 12.2063 7.46555 12.4675 7.26964 12.6805C7.07374 12.8935 6.78143 12.9868 6.5 12.9992C6.34918 13.0054 6.20925 12.9743 6.08019 12.9059C5.94492 12.8624 5.82831 12.7862 5.73036 12.6805C5.53289 12.483 5.41161 12.1892 5.41161 11.9108V11.8922C5.41006 11.7507 5.41161 11.6108 5.41161 11.4693V7.58839H1.08916C0.793745 7.58839 0.532532 7.46555 0.319519 7.26964C0.106506 7.07374 0.0132161 6.78143 0.000777419 6.5C-0.00544193 6.34918 0.0256548 6.20925 0.0940677 6.08019C0.137603 5.94492 0.21379 5.82831 0.319519 5.73036C0.516984 5.53289 0.810848 5.41161 1.08916 5.41161H1.10782C1.24931 5.41006 1.38925 5.41161 1.53074 5.41161H5.41161V1.08916C5.41161 0.793745 5.53445 0.532532 5.73036 0.319519C5.92626 0.106506 6.21857 0.0132161 6.5 0.000777419C6.65082 -0.00544193 6.79075 0.0256548 6.91981 0.0940677C7.05508 0.137603 7.17169 0.21379 7.26964 0.319519C7.46711 0.516984 7.58839 0.810848 7.58839 1.08916V1.10782C7.58994 1.24931 7.58839 1.38925 7.58839 1.53074V5.41161H11.9108C12.2063 5.41161 12.4675 5.53445 12.6805 5.73036C12.8935 5.92626 12.9868 6.21857 12.9992 6.5C13.0054 6.65082 12.9743 6.79075 12.9059 6.91981Z" fill="white"/>
</svg>
