<svg width="14" height="15" viewBox="0 0 14 15" fill="none" xmlns="http://www.w3.org/2000/svg">
<path fill-rule="evenodd" clip-rule="evenodd" d="M10.2487 7.39742C10.6 7.74863 10.6 8.27545 10.2487 8.62667C10.0731 8.80227 9.80973 8.89007 9.63412 8.89007C9.45851 8.89007 9.1951 8.80227 9.0195 8.62667L7.87806 7.48522V13.2802C7.87806 13.8071 7.52684 14.1583 7.00002 14.1583C6.4732 14.1583 6.12199 13.8071 6.12199 13.2802V7.48522L4.98055 8.62667C4.62934 8.97788 4.10252 8.97788 3.7513 8.62667C3.40009 8.27545 3.40009 7.74863 3.7513 7.39742L6.3854 4.76332C6.4732 4.67552 6.56101 4.67552 6.64881 4.58772C6.91222 4.49991 7.17563 4.49991 7.35124 4.58772C7.43904 4.58772 7.52684 4.67552 7.61465 4.76332L10.2487 7.39742ZM2.04142 2.04142C4.85113 -0.680475 9.24129 -0.680475 11.9632 2.04142C14.3339 4.41211 14.6851 8.18765 12.7534 10.9974C12.49 11.3486 12.2266 11.6998 11.9632 11.9632C11.612 12.3144 11.0852 12.3144 10.7339 11.9632C10.3827 11.612 10.3827 11.0852 10.7339 10.7339C10.9974 10.5583 11.173 10.2949 11.3486 10.0315C12.7534 7.92424 12.5778 5.11454 10.7339 3.27067C8.62667 1.2512 5.29014 1.2512 3.27067 3.27067C1.2512 5.37795 1.2512 8.71447 3.27067 10.7339C3.62188 11.0852 3.62188 11.612 3.27067 11.9632C3.09506 12.1388 2.83165 12.2266 2.65605 12.2266C2.48044 12.2266 2.21703 12.1388 2.04142 11.9632C-0.680475 9.24129 -0.680475 4.76332 2.04142 2.04142Z" fill="white"/>
</svg>
