<svg width="12" height="12" viewBox="0 0 12 12" fill="none" xmlns="http://www.w3.org/2000/svg">
<path fill-rule="evenodd" clip-rule="evenodd" d="M2.25277 3C3.12694 1.90951 4.46726 1.20881 5.97155 1.20009C5.99219 1.19997 6.01277 1.19998 6.03341 1.20012C7.31392 1.20885 8.47534 1.71899 9.33106 2.54402C9.38074 2.59187 9.42934 2.64081 9.47692 2.69081C10.2816 3.536 10.7813 4.67421 10.7994 5.92897C10.8002 5.97865 10.8002 6.02833 10.7994 6.07807C10.7795 7.32247 10.2861 8.45179 9.49162 9.29377C9.42814 9.36103 9.36268 9.42649 9.2953 9.49015C8.45194 10.2867 7.32004 10.7809 6.07282 10.7995C6.02681 10.8002 5.98067 10.8002 5.93453 10.7996C3.51588 10.7672 1.52908 8.94607 1.23699 6.59881C1.19606 6.27001 0.931372 6 0.599999 6C0.268631 6 -0.00311393 6.26928 0.029964 6.59899C0.0502559 6.80131 0.0807658 7.00189 0.121212 7.20001C0.333899 8.24191 0.821362 9.21613 1.54291 10.0168C2.53615 11.1189 3.90248 11.8139 5.37815 11.9677C6.85378 12.1214 8.33404 11.723 9.53314 10.8494C10.7323 9.97573 11.5652 8.68879 11.8711 7.23703C12.177 5.78526 11.9341 4.27167 11.1894 2.98847C10.4448 1.70525 9.25108 0.743443 7.83886 0.288739C6.42664 -0.165965 4.89599 -0.0813111 3.54253 0.526351C2.6089 0.945518 1.80523 1.59304 1.2 2.39998V1.2C1.2 0.868634 0.931366 0.600001 0.599999 0.600001C0.268631 0.600001 0 0.868634 0 1.2V3.6V4.2H0.599999H2.99999C3.33136 4.2 3.59999 3.93137 3.59999 3.6C3.59999 3.26864 3.33136 3 2.99999 3H2.25277Z" fill="#7C7C7C"/>
</svg>
