<svg width="11" height="15" viewBox="0 0 11 15" fill="none" xmlns="http://www.w3.org/2000/svg">
<g id="Group 11718">
<path id="Vector" d="M10.8849 0H1.94827C1.88386 0 1.83325 0.0520238 1.83325 0.118236V12.7151C1.83325 12.7813 1.88386 12.8333 1.94827 12.8333H10.8849C10.9493 12.8333 10.9999 12.7813 10.9999 12.7151V0.118236C10.9999 0.0520238 10.947 0 10.8849 0ZM9.62204 5.05577C9.62204 5.12435 9.56684 5.1811 9.50013 5.1811H3.33074C3.26403 5.1811 3.20883 5.12435 3.20883 5.05577V2.04312C3.20883 1.97454 3.26403 1.91779 3.33074 1.91779H9.50013C9.56684 1.91779 9.62204 1.97454 9.62204 2.04312V5.05577Z" fill="#7C7C7C"/>
<path id="Vector_2" d="M0.0550343 13.7428C0.0653533 13.7476 0.0756723 13.75 0.0859912 13.75C0.110069 13.75 0.132427 13.7355 0.149625 13.7115C0.371482 13.3693 0.605378 13.1645 0.846154 13.0995C0.88743 13.0898 0.916667 13.0392 0.916667 12.9814V0.120466C0.916667 0.0530051 0.878831 0 0.830675 0H0.376642C0.168543 0 0 0.236114 0 0.527642V13.6319C0 13.6801 0.0223577 13.7259 0.0550343 13.7428Z" fill="#7C7C7C"/>
<path id="Vector_3" d="M10.8788 13.75H1.20804C0.703648 13.75 0.286556 14.1462 0.0246607 14.4791C-0.00443874 14.5143 -0.00686351 14.5612 0.0125361 14.601C0.0319357 14.6409 0.0755849 14.6667 0.121659 14.6667H10.8788C10.9467 14.6667 11 14.6151 11 14.5494V13.8672C11 13.8016 10.9442 13.75 10.8788 13.75Z" fill="#7C7C7C"/>
</g>
</svg>
