<svg width="14" height="14" viewBox="0 0 14 14" fill="none" xmlns="http://www.w3.org/2000/svg">
<path id="Vector" d="M7 0C3.1402 0 0 3.1402 0 7C0 10.8598 3.1402 14 7 14C10.8598 14 14 10.8598 14 7C14 3.1402 10.8598 0 7 0ZM3.85644 3.85644C4.3211 3.39178 5.07458 3.39178 5.53938 3.85644C6.00418 4.3211 6.00404 5.07458 5.53938 5.53938C5.07472 6.00418 4.32124 6.00404 3.85644 5.53938C3.39164 5.07472 3.39178 4.32124 3.85644 3.85644ZM4.50856 10.2834L3.71658 9.49158L9.49158 3.71658L10.2834 4.50856L4.50856 10.2834ZM10.1436 10.1436C9.6789 10.6082 8.92542 10.6082 8.46062 10.1436C7.99582 9.6789 7.99596 8.92542 8.46062 8.46062C8.92528 7.99582 9.67876 7.99596 10.1436 8.46062C10.6084 8.92528 10.6082 9.67876 10.1436 10.1436Z" fill="#7C7C7C"/>
</svg>
