<svg width="11" height="12" viewBox="0 0 11 12" fill="none" xmlns="http://www.w3.org/2000/svg">
<path d="M10.7964 10.7692L8.69178 8.59077C9.47654 7.68 9.96404 6.47385 9.96404 5.15692C9.96404 2.31385 7.72867 0 4.98202 0C2.23537 0 0 2.31385 0 5.15692C0 8 2.23537 10.3138 4.98202 10.3138C5.95702 10.3138 6.86068 10.0185 7.62166 9.52615L9.80946 11.7908C9.94026 11.9262 10.1186 12 10.297 12C10.4753 12 10.6537 11.9262 10.7845 11.7908C11.0698 11.5077 11.0698 11.0523 10.7964 10.7692ZM1.39116 5.15692C1.39116 3.11385 2.99635 1.44 4.98202 1.44C6.96769 1.44 8.56099 3.11385 8.56099 5.15692C8.56099 7.2 6.9558 8.87385 4.98202 8.87385C3.00824 8.87385 1.39116 7.21231 1.39116 5.15692Z" fill="#7C7C7C"/>
</svg>
