<svg width="27" height="21" viewBox="0 0 27 21" fill="none" xmlns="http://www.w3.org/2000/svg">
<path d="M10.25 0.93335H0.25V2.16668H10.25V0.93335Z" fill="#171C8F"/>
<path d="M10.25 8.33334H0.25V9.56668H10.25V8.33334Z" fill="#171C8F"/>
<path d="M10.25 15.7334H0.25V16.9667H10.25V15.7334Z" fill="#171C8F"/>
<path d="M10.25 4.63335H0.25V5.86668H10.25V4.63335Z" fill="#171C8F"/>
<path d="M10.25 12.0334H0.25V13.2667H10.25V12.0334Z" fill="#171C8F"/>
<path d="M10.25 19.4333H0.25V20.6667H10.25V19.4333Z" fill="#171C8F"/>
<path d="M26.5 0.93335H14V2.16668H26.5V0.93335Z" fill="#171C8F"/>
<path d="M26.5 8.33334H14V9.56668H26.5V8.33334Z" fill="#171C8F"/>
<path d="M26.5 15.7334H14V16.9667H26.5V15.7334Z" fill="#171C8F"/>
<path d="M26.5 4.63335H14V5.86668H26.5V4.63335Z" fill="#171C8F"/>
<path d="M26.5 12.0334H14V13.2667H26.5V12.0334Z" fill="#171C8F"/>
<path d="M26.5 19.4333H14V20.6667H26.5V19.4333Z" fill="#171C8F"/>
<path d="M10.25 0.93335H0.25V2.16668H10.25V0.93335Z" fill="#171C8F"/>
<path d="M10.25 8.33334H0.25V9.56668H10.25V8.33334Z" fill="#171C8F"/>
<path d="M10.25 15.7334H0.25V16.9667H10.25V15.7334Z" fill="#171C8F"/>
<path d="M10.25 4.63335H0.25V5.86668H10.25V4.63335Z" fill="#171C8F"/>
<path d="M10.25 12.0334H0.25V13.2667H10.25V12.0334Z" fill="#171C8F"/>
<path d="M10.25 19.4333H0.25V20.6667H10.25V19.4333Z" fill="#171C8F"/>
<path d="M26.5 0.93335H14V2.16668H26.5V0.93335Z" fill="#171C8F"/>
<path d="M26.5 8.33334H14V9.56668H26.5V8.33334Z" fill="#171C8F"/>
<path d="M26.5 15.7334H14V16.9667H26.5V15.7334Z" fill="#171C8F"/>
<path d="M26.5 4.63335H14V5.86668H26.5V4.63335Z" fill="#171C8F"/>
<path d="M26.5 12.0334H14V13.2667H26.5V12.0334Z" fill="#171C8F"/>
<path d="M26.5 19.4333H14V20.6667H26.5V19.4333Z" fill="#171C8F"/>
</svg>
