<svg width="10" height="14" viewBox="0 0 10 14" fill="none" xmlns="http://www.w3.org/2000/svg">
<path d="M5.54644 5.38592V12.4998C5.54644 12.794 5.30579 13.0347 5.01161 13.0347C4.71742 13.0347 4.47677 12.794 4.47677 12.4998V5.37255L1.8826 7.68588C1.65529 7.88643 1.32098 7.85975 1.13379 7.64577C0.946588 7.4318 0.959927 7.08415 1.1739 6.89697L4.65063 3.80803L5.0117 3.48708L5.37276 3.80803L8.84949 6.89697C9.0768 7.09751 9.09014 7.4318 8.8896 7.64577C8.68906 7.87309 8.35477 7.88642 8.14079 7.68588L5.54644 5.38592ZM8.48828 2.06966C8.78247 2.06966 9.02312 1.82901 9.02312 1.53483C9.02312 1.24064 8.78247 0.999993 8.48828 0.999993L1.53483 0.999899C1.24065 0.999899 1 1.24055 1 1.53473C1 1.82892 1.24065 2.06957 1.53483 2.06957L8.48828 2.06966Z" fill="white" stroke="white" stroke-width="0.5"/>
</svg>
