<svg width="14" height="9" viewBox="0 0 14 9" fill="none" xmlns="http://www.w3.org/2000/svg">
<path d="M8.36293 4.19196C8.36293 5.0578 7.66108 5.75965 6.79523 5.75965C5.92939 5.75965 5.22754 5.0578 5.22754 4.19196C5.22754 3.32612 5.92939 2.62427 6.79523 2.62427C7.66108 2.62427 8.36293 3.32612 8.36293 4.19196Z" fill="#171C8F"/>
<path d="M11.5967 1.98691C10.3224 0.71457 8.59512 0 6.79451 0C4.9939 0 3.26645 0.71457 1.99229 1.98691L0.152804 3.82114C0.054941 3.91982 0 4.05314 0 4.19219C0 4.33124 0.054938 4.46455 0.152804 4.56324L1.99229 6.39747C3.26708 7.66901 4.9942 8.3831 6.79451 8.3831C8.59482 8.3831 10.322 7.66901 11.5967 6.39747L13.4362 4.56324C13.5341 4.46456 13.589 4.33124 13.589 4.19219C13.589 4.05314 13.5341 3.91983 13.4362 3.82114L11.5967 1.98691ZM6.79451 6.80495C6.10153 6.80495 5.437 6.52967 4.94699 6.03965C4.45697 5.54963 4.18169 4.88511 4.18169 4.19213C4.18169 3.49915 4.45697 2.83463 4.94699 2.34461C5.43701 1.8546 6.10153 1.57931 6.79451 1.57931C7.48749 1.57931 8.15201 1.85459 8.64203 2.34461C9.13204 2.83463 9.40733 3.49915 9.40733 4.19213C9.40733 4.88511 9.13205 5.54963 8.64203 6.03965C8.15201 6.52967 7.48749 6.80495 6.79451 6.80495Z" fill="#171C8F"/>
</svg>
