<svg width="31" height="37" viewBox="0 0 31 37" fill="none" xmlns="http://www.w3.org/2000/svg">
<path d="M30.9858 10.7196H30.7491L30.9858 10.6869C30.955 10.453 30.8488 10.2351 30.6828 10.0654L20.832 0.345794C20.7775 0.291154 20.7172 0.242577 20.6521 0.200934L20.6047 0.172897C20.5542 0.142094 20.5021 0.114015 20.4485 0.0887849L20.3633 0.0654203C20.3192 0.04653 20.2732 0.0324287 20.226 0.0233646C20.1496 0.00843087 20.072 0.000608329 19.9941 0H4.18343C3.86957 0 3.56856 0.12308 3.34662 0.342165C3.12468 0.56125 3 0.858392 3 1.16822V13.729C3 14.0388 3.12468 14.3359 3.34662 14.555C3.56856 14.7741 3.86957 14.8972 4.18343 14.8972C4.4973 14.8972 4.79831 14.7741 5.02024 14.555C5.24218 14.3359 5.36686 14.0388 5.36686 13.729V2.35047H18.8107V10.8271C18.8119 11.1358 18.9363 11.4315 19.157 11.6502C19.3776 11.8689 19.6767 11.9929 19.9893 11.9953L28.6331 12.0421V34.6636H5.36686V32.8551C5.36686 32.5453 5.24218 32.2482 5.02024 32.0291C4.79831 31.81 4.4973 31.6869 4.18343 31.6869C3.86957 31.6869 3.56856 31.81 3.34662 32.0291C3.12468 32.2482 3 32.5453 3 32.8551V35.8318C3 36.1416 3.12468 36.4387 3.34662 36.6578C3.56856 36.8769 3.86957 37 4.18343 37H29.8166C30.1304 37 30.4314 36.8769 30.6534 36.6578C30.8753 36.4387 31 36.1416 31 35.8318V10.8785C30.9999 10.8252 30.9951 10.7721 30.9858 10.7196ZM21.1775 9.66355V4.00467L26.9432 9.69159L21.1775 9.66355Z" fill="#7C7C7C"/>
<path d="M23.8737 16H1.12633C0.827608 16 0.541122 16.1232 0.329894 16.3425C0.118666 16.5618 0 16.8593 0 17.1694V28.8306C0 29.1407 0.118666 29.4382 0.329894 29.6575C0.541122 29.8768 0.827608 30 1.12633 30H23.8737C24.1724 30 24.4589 29.8768 24.6701 29.6575C24.8813 29.4382 25 29.1407 25 28.8306V17.1694C25 16.8593 24.8813 16.5618 24.6701 16.3425C24.4589 16.1232 24.1724 16 23.8737 16ZM8.65922 26.3562V26.3141L7.56442 24.1951L6.42007 26.3562H4.89277L6.74896 23.1473L4.89728 19.6766H6.49216L6.51469 19.7234L7.60948 21.9779L8.74932 19.6766H10.2541L8.39791 23.0865L10.2586 26.3608L8.65922 26.3562ZM14.5161 26.3562H10.8083V19.6766H12.2364V25.0231H14.5387L14.5161 26.3562ZM18.67 25.9258C18.2119 26.3044 17.6376 26.4987 17.0526 26.4731C16.4458 26.4595 15.8419 26.3811 15.2505 26.2392L14.8495 26.1597L14.9982 24.9763H15.0748C15.6986 25.0729 16.3275 25.1307 16.958 25.1493C17.5662 25.1493 17.8591 24.8968 17.8591 24.3869C17.869 24.3124 17.8615 24.2365 17.8372 24.1657C17.8129 24.0948 17.7725 24.0311 17.7194 23.98C17.4381 23.8138 17.1344 23.6924 16.8183 23.6198C16.2531 23.4888 15.7244 23.2248 15.273 22.848C15.1173 22.6797 14.9969 22.4798 14.9194 22.2608C14.8418 22.0418 14.8089 21.8086 14.8225 21.5757C14.8025 21.291 14.8467 21.0054 14.9515 20.7416C15.0563 20.4777 15.2188 20.2428 15.4262 20.0555C15.8943 19.7018 16.4656 19.5266 17.0436 19.5596C17.632 19.5712 18.2184 19.6354 18.7962 19.7514L19.2017 19.8309L19.071 21.0331H18.9899C18.1294 20.9348 17.5122 20.8834 17.1607 20.8834C16.2327 20.8834 16.2327 21.3512 16.2327 21.4915C16.2325 21.571 16.2519 21.6492 16.2889 21.7188C16.326 21.7883 16.3795 21.8469 16.4444 21.8891C16.8131 22.0839 17.1995 22.2406 17.5978 22.3568C18.0844 22.4884 18.5358 22.7331 18.9178 23.0725C19.0593 23.2435 19.1668 23.4419 19.2341 23.6563C19.3014 23.8706 19.3271 24.0967 19.3098 24.3214C19.3285 24.6197 19.2828 24.9185 19.176 25.1961C19.0692 25.4737 18.904 25.723 18.6926 25.9258H18.67Z" fill="#7C7C7C"/>
</svg>
